M48
METRIC,TZ
T1C0.600
T2C0.700
T3C0.800
T4C0.900
T5C1.000
T6C1.100
T7C1.200
T8C1.470
T9C1.500
T10C1.800
T11C3.500
%
G90
G05
T1
X114300Y-57912
X116840Y-57912
X172720Y-66548
X175260Y-57912
X175260Y-66548
X177800Y-57912
X177800Y-66548
X180848Y-66548
T2
X88900Y-121920
X91440Y-119380
X93980Y-121920
X167640Y-121920
X170180Y-119380
X172720Y-121920
T3
X75184Y-126492
X75240Y-99060
X75240Y-108204
X75240Y-117348
X78684Y-126492
X78740Y-99060
X78740Y-108204
X78740Y-117348
X86360Y-100330
X86360Y-104140
X86360Y-115570
X86900Y-109220
X88900Y-109220
X90170Y-60960
X90250Y-57150
X93250Y-109220
X95250Y-57150
X95250Y-109220
X96520Y-100330
X96520Y-104140
X96520Y-115570
X99600Y-109220
X100330Y-60960
X101600Y-109220
X102870Y-60960
X102870Y-118110
X103180Y-81280
X103180Y-90170
X103180Y-99060
X106680Y-81280
X106680Y-90170
X106680Y-99060
X107870Y-60960
X107870Y-118110
X116840Y-119380
X116840Y-129540
X121190Y-114300
X123190Y-114300
X129540Y-119380
X129540Y-129540
X142240Y-119380
X142240Y-129540
X145320Y-114300
X147320Y-114300
X151130Y-60960
X151210Y-57150
X154940Y-119380
X154940Y-129540
X156210Y-57150
X161290Y-60960
X163830Y-60960
X165100Y-99060
X165100Y-102870
X165100Y-115570
X165640Y-109220
X167640Y-109220
X168830Y-60960
X173260Y-109220
X175260Y-99060
X175260Y-102870
X175260Y-109220
X175260Y-115570
X180880Y-109220
X181610Y-118110
X181920Y-81280
X181920Y-90170
X181920Y-99060
X182880Y-109220
X185420Y-81280
X185420Y-90170
X185420Y-99060
X185928Y-58500
X185928Y-63500
X186610Y-118110
T4
X114300Y-137160
X116840Y-137160
X127000Y-137160
X129540Y-137160
X139700Y-137160
X142240Y-137160
X152400Y-137160
X154940Y-137160
T5
X86360Y-48768
X88900Y-48768
X91440Y-48768
X100330Y-55880
X101600Y-50800
X102870Y-55880
X104140Y-50800
X105410Y-55880
X106680Y-50800
X107950Y-55880
X109220Y-50800
X110490Y-55880
X111760Y-50800
X113030Y-55880
X114300Y-50800
X115570Y-55880
X116840Y-50800
X118110Y-55880
X132080Y-104290
X134620Y-104290
X137160Y-104290
X147320Y-48768
X149860Y-48768
X152400Y-48768
X161290Y-55880
X162560Y-50800
X163830Y-55880
X165100Y-50800
X166370Y-55880
X167640Y-50800
X168910Y-55880
X170180Y-50800
X171450Y-55880
X172720Y-50800
X173990Y-55880
X175260Y-50800
X176530Y-55880
X177800Y-50800
X179070Y-55880
T6
X130556Y-53340
X130810Y-114300
X138176Y-53340
X138430Y-114300
T7
X194940Y-113660
X194940Y-124460
X195700Y-60960
X195700Y-80010
X195700Y-99060
X203200Y-60960
X203200Y-80010
X203200Y-99060
X205740Y-113660
X205740Y-124460
T8
X215900Y-59516
X215900Y-64516
X215900Y-69516
X215900Y-74516
X215900Y-113016
X215900Y-118016
X215900Y-123016
X215900Y-128016
X215900Y-133016
T9
X215900Y-82648
X215900Y-104648
T10
X85090Y-80010
X96520Y-80010
X163830Y-80010
X175260Y-80010
T11
X70880Y-51600
X70880Y-140500
X134620Y-87630
X223740Y-51600
X223740Y-140500
T0
M30
