G04 #@! TF.FileFunction,Copper,L1,Top,Signal*
%FSLAX46Y46*%
G04 Gerber Fmt 4.6, Leading zero omitted, Abs format (unit mm)*
G04 Created by KiCad (PCBNEW 4.0.7) date 10/02/17 10:26:58*
%MOMM*%
%LPD*%
G01*
G04 APERTURE LIST*
%ADD10C,0.100000*%
%ADD11C,0.300000*%
%ADD12O,2.500000X4.000000*%
%ADD13R,2.400000X2.400000*%
%ADD14C,2.400000*%
%ADD15C,1.600000*%
%ADD16R,1.600000X1.600000*%
%ADD17C,2.100000*%
%ADD18R,2.100000X2.100000*%
%ADD19R,2.200000X2.200000*%
%ADD20O,2.200000X2.200000*%
%ADD21C,3.600000*%
%ADD22O,1.600000X1.600000*%
%ADD23R,1.800000X1.800000*%
%ADD24O,1.800000X1.800000*%
%ADD25C,1.800000*%
%ADD26C,1.260000*%
%ADD27C,1.000000*%
%ADD28C,2.500000*%
%ADD29C,0.250000*%
%ADD30C,1.500000*%
G04 APERTURE END LIST*
D10*
D11*
X78601429Y-137052857D02*
X78101429Y-137052857D01*
X78101429Y-137838571D02*
X78101429Y-136338571D01*
X78815715Y-136338571D01*
X80244286Y-137838571D02*
X79744286Y-137124286D01*
X79387143Y-137838571D02*
X79387143Y-136338571D01*
X79958571Y-136338571D01*
X80101429Y-136410000D01*
X80172857Y-136481429D01*
X80244286Y-136624286D01*
X80244286Y-136838571D01*
X80172857Y-136981429D01*
X80101429Y-137052857D01*
X79958571Y-137124286D01*
X79387143Y-137124286D01*
X81172857Y-136338571D02*
X81458571Y-136338571D01*
X81601429Y-136410000D01*
X81744286Y-136552857D01*
X81815714Y-136838571D01*
X81815714Y-137338571D01*
X81744286Y-137624286D01*
X81601429Y-137767143D01*
X81458571Y-137838571D01*
X81172857Y-137838571D01*
X81030000Y-137767143D01*
X80887143Y-137624286D01*
X80815714Y-137338571D01*
X80815714Y-136838571D01*
X80887143Y-136552857D01*
X81030000Y-136410000D01*
X81172857Y-136338571D01*
X82458572Y-137838571D02*
X82458572Y-136338571D01*
X83315715Y-137838571D01*
X83315715Y-136338571D01*
X83815715Y-136338571D02*
X84672858Y-136338571D01*
X84244287Y-137838571D02*
X84244287Y-136338571D01*
D12*
X215900000Y-82648000D03*
X215900000Y-104648000D03*
D13*
X195700000Y-99060000D03*
D14*
X203200000Y-99060000D03*
D13*
X195700000Y-80010000D03*
D14*
X203200000Y-80010000D03*
D13*
X195700000Y-60960000D03*
D14*
X203200000Y-60960000D03*
D15*
X185928000Y-63500000D03*
X185928000Y-58500000D03*
X156210000Y-57150000D03*
X151210000Y-57150000D03*
X168830000Y-60960000D03*
X163830000Y-60960000D03*
D16*
X180880000Y-109220000D03*
D15*
X182880000Y-109220000D03*
D16*
X173260000Y-109220000D03*
D15*
X175260000Y-109220000D03*
D16*
X165640000Y-109220000D03*
D15*
X167640000Y-109220000D03*
D16*
X181920000Y-99060000D03*
D15*
X185420000Y-99060000D03*
D16*
X181920000Y-90170000D03*
D15*
X185420000Y-90170000D03*
D16*
X181920000Y-81280000D03*
D15*
X185420000Y-81280000D03*
X186610000Y-118110000D03*
X181610000Y-118110000D03*
X95250000Y-57150000D03*
X90250000Y-57150000D03*
X107870000Y-60960000D03*
X102870000Y-60960000D03*
D16*
X99600000Y-109220000D03*
D15*
X101600000Y-109220000D03*
D16*
X93250000Y-109220000D03*
D15*
X95250000Y-109220000D03*
D16*
X86900000Y-109220000D03*
D15*
X88900000Y-109220000D03*
D16*
X103180000Y-81280000D03*
D15*
X106680000Y-81280000D03*
D16*
X103180000Y-90170000D03*
D15*
X106680000Y-90170000D03*
D16*
X103180000Y-99060000D03*
D15*
X106680000Y-99060000D03*
X107870000Y-118110000D03*
X102870000Y-118110000D03*
D16*
X121190000Y-114300000D03*
D15*
X123190000Y-114300000D03*
D16*
X145320000Y-114300000D03*
D15*
X147320000Y-114300000D03*
D17*
X205740000Y-124460000D03*
X205740000Y-113660000D03*
D18*
X194940000Y-113660000D03*
D17*
X194940000Y-124460000D03*
D19*
X130810000Y-114300000D03*
D20*
X138430000Y-114300000D03*
D21*
X175260000Y-80010000D03*
X163830000Y-80010000D03*
X96520000Y-80010000D03*
X85090000Y-80010000D03*
D15*
X116840000Y-119380000D03*
D22*
X116840000Y-129540000D03*
D15*
X161290000Y-60960000D03*
D22*
X151130000Y-60960000D03*
D15*
X175260000Y-99060000D03*
D22*
X165100000Y-99060000D03*
D15*
X175260000Y-102870000D03*
D22*
X165100000Y-102870000D03*
D15*
X165100000Y-115570000D03*
D22*
X175260000Y-115570000D03*
D15*
X129540000Y-119380000D03*
D22*
X129540000Y-129540000D03*
D15*
X100330000Y-60960000D03*
D22*
X90170000Y-60960000D03*
D15*
X96520000Y-100330000D03*
D22*
X86360000Y-100330000D03*
D15*
X96520000Y-104140000D03*
D22*
X86360000Y-104140000D03*
D15*
X86360000Y-115570000D03*
D22*
X96520000Y-115570000D03*
D15*
X154940000Y-119380000D03*
D22*
X154940000Y-129540000D03*
D15*
X142240000Y-119380000D03*
D22*
X142240000Y-129540000D03*
D23*
X147320000Y-48768000D03*
D24*
X149860000Y-48768000D03*
X152400000Y-48768000D03*
D23*
X161290000Y-55880000D03*
D24*
X162560000Y-50800000D03*
X163830000Y-55880000D03*
X165100000Y-50800000D03*
X166370000Y-55880000D03*
X167640000Y-50800000D03*
X168910000Y-55880000D03*
X170180000Y-50800000D03*
X171450000Y-55880000D03*
X172720000Y-50800000D03*
X173990000Y-55880000D03*
X175260000Y-50800000D03*
X176530000Y-55880000D03*
X177800000Y-50800000D03*
X179070000Y-55880000D03*
D23*
X86360000Y-48768000D03*
D24*
X88900000Y-48768000D03*
X91440000Y-48768000D03*
D23*
X100330000Y-55880000D03*
D24*
X101600000Y-50800000D03*
X102870000Y-55880000D03*
X104140000Y-50800000D03*
X105410000Y-55880000D03*
X106680000Y-50800000D03*
X107950000Y-55880000D03*
X109220000Y-50800000D03*
X110490000Y-55880000D03*
X111760000Y-50800000D03*
X113030000Y-55880000D03*
X114300000Y-50800000D03*
X115570000Y-55880000D03*
X116840000Y-50800000D03*
X118110000Y-55880000D03*
D23*
X132080000Y-104290000D03*
D24*
X134620000Y-104290000D03*
X137160000Y-104290000D03*
D23*
X114300000Y-137160000D03*
D25*
X116840000Y-137160000D03*
D23*
X127000000Y-137160000D03*
D25*
X129540000Y-137160000D03*
D23*
X152400000Y-137160000D03*
D25*
X154940000Y-137160000D03*
D23*
X139700000Y-137160000D03*
D25*
X142240000Y-137160000D03*
D13*
X215900000Y-74516000D03*
D14*
X215900000Y-69516000D03*
X215900000Y-64516000D03*
X215900000Y-59516000D03*
D13*
X215900000Y-133016000D03*
D14*
X215900000Y-128016000D03*
X215900000Y-123016000D03*
X215900000Y-118016000D03*
X215900000Y-113016000D03*
D16*
X75240000Y-99060000D03*
D15*
X78740000Y-99060000D03*
D16*
X75240000Y-108204000D03*
D15*
X78740000Y-108204000D03*
D16*
X75240000Y-117348000D03*
D15*
X78740000Y-117348000D03*
D16*
X75184000Y-126492000D03*
D15*
X78684000Y-126492000D03*
D19*
X130556000Y-53340000D03*
D20*
X138176000Y-53340000D03*
D26*
X172720000Y-121920000D03*
X170180000Y-119380000D03*
X167640000Y-121920000D03*
X93980000Y-121920000D03*
X91440000Y-119380000D03*
X88900000Y-121920000D03*
D27*
X180848000Y-66548000D03*
X177800000Y-66548000D03*
X177800000Y-57912000D03*
X175260000Y-66548000D03*
X175260000Y-57912000D03*
X116840000Y-57912000D03*
X114300000Y-57912000D03*
X172720000Y-66548000D03*
D28*
X185928000Y-63500000D02*
X172212000Y-63500000D01*
X195700000Y-60960000D02*
X188468000Y-60960000D01*
X188468000Y-60960000D02*
X185928000Y-63500000D01*
D29*
X116840000Y-119380000D02*
X116840000Y-74676000D01*
X138176000Y-53340000D02*
X137076001Y-54439999D01*
X137076001Y-54439999D02*
X116840000Y-74676000D01*
D28*
X138176000Y-53340000D02*
X150850002Y-53340000D01*
X150850002Y-53340000D02*
X151040001Y-53150001D01*
X215900000Y-113016000D02*
X215900000Y-111318944D01*
X215741055Y-111159999D02*
X200990001Y-111159999D01*
X215900000Y-111318944D02*
X215741055Y-111159999D01*
X200990001Y-111159999D02*
X198490000Y-113660000D01*
X198490000Y-113660000D02*
X194940000Y-113660000D01*
X170916001Y-62204001D02*
X171080001Y-62040001D01*
X171080001Y-62040001D02*
X171080001Y-59879999D01*
X171080001Y-59879999D02*
X171450000Y-59510000D01*
X195700000Y-60960000D02*
X195700000Y-63500000D01*
X195700000Y-63500000D02*
X195700000Y-80010000D01*
X170916001Y-62204001D02*
X172212000Y-63500000D01*
X169910001Y-63210001D02*
X170916001Y-62204001D01*
X171450000Y-59510000D02*
X171450000Y-55880000D01*
X151040001Y-53150001D02*
X153959999Y-56069999D01*
X153959999Y-56069999D02*
X153959999Y-58230001D01*
X158939999Y-63210001D02*
X169910001Y-63210001D01*
X153959999Y-58230001D02*
X158939999Y-63210001D01*
X171450000Y-57152792D02*
X171450000Y-55880000D01*
X195700000Y-99060000D02*
X195700000Y-112900000D01*
X195700000Y-112900000D02*
X194940000Y-113660000D01*
X195700000Y-80010000D02*
X195700000Y-99060000D01*
D29*
X162560000Y-50800000D02*
X156210000Y-57150000D01*
D11*
X167640000Y-50800000D02*
X167640000Y-57150000D01*
X167640000Y-57150000D02*
X163830000Y-60960000D01*
D29*
X180794999Y-71574999D02*
X180848000Y-71521998D01*
X180848000Y-71521998D02*
X180848000Y-66548000D01*
X180794999Y-71574999D02*
X180794999Y-108084999D01*
X180880000Y-108170000D02*
X180880000Y-109220000D01*
X180794999Y-108084999D02*
X180880000Y-108170000D01*
X168656000Y-93980000D02*
X173260000Y-98584000D01*
X173260000Y-98584000D02*
X173260000Y-109220000D01*
X177800000Y-66548000D02*
X177800000Y-74324998D01*
X177800000Y-74324998D02*
X168656000Y-83468998D01*
X168656000Y-83468998D02*
X168656000Y-93980000D01*
X177800000Y-50800000D02*
X177800000Y-57912000D01*
X175260000Y-57912000D02*
X175260000Y-50800000D01*
X175260000Y-66548000D02*
X175260000Y-75692000D01*
X167132000Y-83820000D02*
X167132000Y-106678000D01*
X175260000Y-75692000D02*
X167132000Y-83820000D01*
X167132000Y-106678000D02*
X165640000Y-108170000D01*
X165640000Y-108170000D02*
X165640000Y-109220000D01*
D28*
X215900000Y-118016000D02*
X186704000Y-118016000D01*
X186704000Y-118016000D02*
X186610000Y-118110000D01*
D29*
X101600000Y-50800000D02*
X95250000Y-57150000D01*
X107950000Y-55880000D02*
X107950000Y-60880000D01*
X107950000Y-60880000D02*
X107870000Y-60960000D01*
D11*
X106680000Y-50800000D02*
X106680000Y-57150000D01*
X106680000Y-57150000D02*
X102870000Y-60960000D01*
D29*
X118110000Y-55880000D02*
X118110000Y-58166000D01*
X118110000Y-58166000D02*
X111252000Y-65024000D01*
X111252000Y-65024000D02*
X106300410Y-65024000D01*
X106300410Y-65024000D02*
X99600000Y-71724410D01*
X99600000Y-71724410D02*
X99600000Y-109220000D01*
X96520000Y-115570000D02*
X99600000Y-112490000D01*
X99600000Y-112490000D02*
X99600000Y-109220000D01*
X116840000Y-57912000D02*
X110236000Y-64516000D01*
X110236000Y-64516000D02*
X106172000Y-64516000D01*
X106172000Y-64516000D02*
X89408000Y-81280000D01*
X89408000Y-81280000D02*
X89408000Y-106428000D01*
X89408000Y-106428000D02*
X92200000Y-109220000D01*
X92200000Y-109220000D02*
X93250000Y-109220000D01*
X114300000Y-57912000D02*
X108204000Y-64008000D01*
X108204000Y-64008000D02*
X105792410Y-64008000D01*
X86932205Y-82868205D02*
X86932205Y-83247795D01*
X105792410Y-64008000D02*
X86932205Y-82868205D01*
X86868000Y-83312000D02*
X86868000Y-97536000D01*
X87485001Y-107584999D02*
X86900000Y-108170000D01*
X86932205Y-83247795D02*
X86868000Y-83312000D01*
X87485001Y-98153001D02*
X87485001Y-107584999D01*
X86868000Y-97536000D02*
X87485001Y-98153001D01*
X86900000Y-108170000D02*
X86900000Y-109220000D01*
D28*
X215900000Y-128016000D02*
X214202944Y-128016000D01*
X213694944Y-127508000D02*
X177179600Y-127508000D01*
X214202944Y-128016000D02*
X213694944Y-127508000D01*
X177179600Y-127508000D02*
X173761601Y-124090001D01*
X173761601Y-124090001D02*
X154940000Y-124090001D01*
X154940000Y-124090001D02*
X113850001Y-124090001D01*
X154940000Y-119380000D02*
X154940000Y-124090001D01*
X108669999Y-118909999D02*
X107870000Y-118110000D01*
X113850001Y-124090001D02*
X108669999Y-118909999D01*
D29*
X145320000Y-114300000D02*
X145320000Y-116300000D01*
X145320000Y-116300000D02*
X144940010Y-116679990D01*
D28*
X145069999Y-114550001D02*
X145069999Y-114300000D01*
X215900000Y-123016000D02*
X214843999Y-121959999D01*
X168540001Y-117209999D02*
X167929999Y-117820001D01*
X167929999Y-117820001D02*
X164019999Y-117820001D01*
X214843999Y-121959999D02*
X180479999Y-121959999D01*
X180479999Y-121959999D02*
X176340001Y-117820001D01*
X171221601Y-117209999D02*
X168540001Y-117209999D01*
X176340001Y-117820001D02*
X171831603Y-117820001D01*
X171831603Y-117820001D02*
X171221601Y-117209999D01*
X164019999Y-117820001D02*
X162879988Y-116679990D01*
X162879988Y-116679990D02*
X144940010Y-116679990D01*
X144940010Y-116679990D02*
X142240000Y-119380000D01*
X145069999Y-114300000D02*
X142240000Y-114300000D01*
X138430000Y-114300000D02*
X142240000Y-114300000D01*
X137160000Y-104290000D02*
X137160000Y-113030000D01*
X137160000Y-113030000D02*
X138430000Y-114300000D01*
D29*
X116840000Y-129540000D02*
X116840000Y-137160000D01*
X129540000Y-129540000D02*
X129540000Y-137160000D01*
X154940000Y-129540000D02*
X154940000Y-137160000D01*
X142240000Y-129540000D02*
X142240000Y-137160000D01*
X161290000Y-60960000D02*
X161290000Y-55880000D01*
X165100000Y-99060000D02*
X165100000Y-100191370D01*
X165100000Y-100191370D02*
X165100000Y-102870000D01*
X165100000Y-93980000D02*
X165100000Y-99060000D01*
X165100000Y-84328000D02*
X165100000Y-93980000D01*
X172720000Y-76708000D02*
X165100000Y-84328000D01*
X172720000Y-66548000D02*
X172720000Y-76708000D01*
X100330000Y-60960000D02*
X100330000Y-55880000D01*
X113030000Y-55880000D02*
X113030000Y-58166000D01*
X86360000Y-99198630D02*
X86360000Y-100330000D01*
X113030000Y-58166000D02*
X107696000Y-63500000D01*
X107696000Y-63500000D02*
X105664000Y-63500000D01*
X105664000Y-63500000D02*
X86360000Y-82804000D01*
X86360000Y-82804000D02*
X86360000Y-99198630D01*
X86360000Y-104140000D02*
X86360000Y-100330000D01*
X96520000Y-104140000D02*
X96520000Y-109615002D01*
X96520000Y-109615002D02*
X91440000Y-114695002D01*
X91440000Y-114695002D02*
X91440000Y-118361767D01*
X91440000Y-118361767D02*
X91440000Y-119380000D01*
X86360000Y-115570000D02*
X86360000Y-119380000D01*
X86360000Y-119380000D02*
X88900000Y-121920000D01*
D30*
X122109999Y-112049999D02*
X121190000Y-112969998D01*
X121190000Y-112969998D02*
X121190000Y-114300000D01*
D28*
X130810000Y-114300000D02*
X126520002Y-114300000D01*
X124270001Y-112049999D02*
X122109999Y-112049999D01*
X126520002Y-114300000D02*
X124270001Y-112049999D01*
X132080000Y-104290000D02*
X132080000Y-113030000D01*
X132080000Y-113030000D02*
X130810000Y-114300000D01*
X130556000Y-53340000D02*
X111757208Y-53340000D01*
X111757208Y-53340000D02*
X110490000Y-54607208D01*
X110490000Y-54607208D02*
X110490000Y-55880000D01*
M02*
