G04 #@! TF.FileFunction,Copper,L2,Bot,Signal*
%FSLAX46Y46*%
G04 Gerber Fmt 4.6, Leading zero omitted, Abs format (unit mm)*
G04 Created by KiCad (PCBNEW 4.0.7) date 10/02/17 10:26:58*
%MOMM*%
%LPD*%
G01*
G04 APERTURE LIST*
%ADD10C,0.100000*%
%ADD11C,0.300000*%
%ADD12O,2.500000X4.000000*%
%ADD13R,2.400000X2.400000*%
%ADD14C,2.400000*%
%ADD15C,1.600000*%
%ADD16R,1.600000X1.600000*%
%ADD17C,2.100000*%
%ADD18R,2.100000X2.100000*%
%ADD19R,2.200000X2.200000*%
%ADD20O,2.200000X2.200000*%
%ADD21C,3.600000*%
%ADD22O,1.600000X1.600000*%
%ADD23R,1.800000X1.800000*%
%ADD24O,1.800000X1.800000*%
%ADD25C,1.800000*%
%ADD26C,1.260000*%
%ADD27C,1.000000*%
%ADD28C,2.000000*%
%ADD29C,0.250000*%
%ADD30C,2.500000*%
%ADD31C,0.254000*%
G04 APERTURE END LIST*
D10*
D11*
X83315714Y-137052857D02*
X83101428Y-137124286D01*
X83030000Y-137195714D01*
X82958571Y-137338571D01*
X82958571Y-137552857D01*
X83030000Y-137695714D01*
X83101428Y-137767143D01*
X83244286Y-137838571D01*
X83815714Y-137838571D01*
X83815714Y-136338571D01*
X83315714Y-136338571D01*
X83172857Y-136410000D01*
X83101428Y-136481429D01*
X83030000Y-136624286D01*
X83030000Y-136767143D01*
X83101428Y-136910000D01*
X83172857Y-136981429D01*
X83315714Y-137052857D01*
X83815714Y-137052857D01*
X82387143Y-137410000D02*
X81672857Y-137410000D01*
X82530000Y-137838571D02*
X82030000Y-136338571D01*
X81530000Y-137838571D01*
X80172857Y-137695714D02*
X80244286Y-137767143D01*
X80458572Y-137838571D01*
X80601429Y-137838571D01*
X80815714Y-137767143D01*
X80958572Y-137624286D01*
X81030000Y-137481429D01*
X81101429Y-137195714D01*
X81101429Y-136981429D01*
X81030000Y-136695714D01*
X80958572Y-136552857D01*
X80815714Y-136410000D01*
X80601429Y-136338571D01*
X80458572Y-136338571D01*
X80244286Y-136410000D01*
X80172857Y-136481429D01*
X79530000Y-137838571D02*
X79530000Y-136338571D01*
X78672857Y-137838571D02*
X79315714Y-136981429D01*
X78672857Y-136338571D02*
X79530000Y-137195714D01*
D12*
X215900000Y-82648000D03*
X215900000Y-104648000D03*
D13*
X195700000Y-99060000D03*
D14*
X203200000Y-99060000D03*
D13*
X195700000Y-80010000D03*
D14*
X203200000Y-80010000D03*
D13*
X195700000Y-60960000D03*
D14*
X203200000Y-60960000D03*
D15*
X185928000Y-63500000D03*
X185928000Y-58500000D03*
X156210000Y-57150000D03*
X151210000Y-57150000D03*
X168830000Y-60960000D03*
X163830000Y-60960000D03*
D16*
X180880000Y-109220000D03*
D15*
X182880000Y-109220000D03*
D16*
X173260000Y-109220000D03*
D15*
X175260000Y-109220000D03*
D16*
X165640000Y-109220000D03*
D15*
X167640000Y-109220000D03*
D16*
X181920000Y-99060000D03*
D15*
X185420000Y-99060000D03*
D16*
X181920000Y-90170000D03*
D15*
X185420000Y-90170000D03*
D16*
X181920000Y-81280000D03*
D15*
X185420000Y-81280000D03*
X186610000Y-118110000D03*
X181610000Y-118110000D03*
X95250000Y-57150000D03*
X90250000Y-57150000D03*
X107870000Y-60960000D03*
X102870000Y-60960000D03*
D16*
X99600000Y-109220000D03*
D15*
X101600000Y-109220000D03*
D16*
X93250000Y-109220000D03*
D15*
X95250000Y-109220000D03*
D16*
X86900000Y-109220000D03*
D15*
X88900000Y-109220000D03*
D16*
X103180000Y-81280000D03*
D15*
X106680000Y-81280000D03*
D16*
X103180000Y-90170000D03*
D15*
X106680000Y-90170000D03*
D16*
X103180000Y-99060000D03*
D15*
X106680000Y-99060000D03*
X107870000Y-118110000D03*
X102870000Y-118110000D03*
D16*
X121190000Y-114300000D03*
D15*
X123190000Y-114300000D03*
D16*
X145320000Y-114300000D03*
D15*
X147320000Y-114300000D03*
D17*
X205740000Y-124460000D03*
X205740000Y-113660000D03*
D18*
X194940000Y-113660000D03*
D17*
X194940000Y-124460000D03*
D19*
X130810000Y-114300000D03*
D20*
X138430000Y-114300000D03*
D21*
X175260000Y-80010000D03*
X163830000Y-80010000D03*
X96520000Y-80010000D03*
X85090000Y-80010000D03*
D15*
X116840000Y-119380000D03*
D22*
X116840000Y-129540000D03*
D15*
X161290000Y-60960000D03*
D22*
X151130000Y-60960000D03*
D15*
X175260000Y-99060000D03*
D22*
X165100000Y-99060000D03*
D15*
X175260000Y-102870000D03*
D22*
X165100000Y-102870000D03*
D15*
X165100000Y-115570000D03*
D22*
X175260000Y-115570000D03*
D15*
X129540000Y-119380000D03*
D22*
X129540000Y-129540000D03*
D15*
X100330000Y-60960000D03*
D22*
X90170000Y-60960000D03*
D15*
X96520000Y-100330000D03*
D22*
X86360000Y-100330000D03*
D15*
X96520000Y-104140000D03*
D22*
X86360000Y-104140000D03*
D15*
X86360000Y-115570000D03*
D22*
X96520000Y-115570000D03*
D15*
X154940000Y-119380000D03*
D22*
X154940000Y-129540000D03*
D15*
X142240000Y-119380000D03*
D22*
X142240000Y-129540000D03*
D23*
X147320000Y-48768000D03*
D24*
X149860000Y-48768000D03*
X152400000Y-48768000D03*
D23*
X161290000Y-55880000D03*
D24*
X162560000Y-50800000D03*
X163830000Y-55880000D03*
X165100000Y-50800000D03*
X166370000Y-55880000D03*
X167640000Y-50800000D03*
X168910000Y-55880000D03*
X170180000Y-50800000D03*
X171450000Y-55880000D03*
X172720000Y-50800000D03*
X173990000Y-55880000D03*
X175260000Y-50800000D03*
X176530000Y-55880000D03*
X177800000Y-50800000D03*
X179070000Y-55880000D03*
D23*
X86360000Y-48768000D03*
D24*
X88900000Y-48768000D03*
X91440000Y-48768000D03*
D23*
X100330000Y-55880000D03*
D24*
X101600000Y-50800000D03*
X102870000Y-55880000D03*
X104140000Y-50800000D03*
X105410000Y-55880000D03*
X106680000Y-50800000D03*
X107950000Y-55880000D03*
X109220000Y-50800000D03*
X110490000Y-55880000D03*
X111760000Y-50800000D03*
X113030000Y-55880000D03*
X114300000Y-50800000D03*
X115570000Y-55880000D03*
X116840000Y-50800000D03*
X118110000Y-55880000D03*
D23*
X132080000Y-104290000D03*
D24*
X134620000Y-104290000D03*
X137160000Y-104290000D03*
D23*
X114300000Y-137160000D03*
D25*
X116840000Y-137160000D03*
D23*
X127000000Y-137160000D03*
D25*
X129540000Y-137160000D03*
D23*
X152400000Y-137160000D03*
D25*
X154940000Y-137160000D03*
D23*
X139700000Y-137160000D03*
D25*
X142240000Y-137160000D03*
D13*
X215900000Y-74516000D03*
D14*
X215900000Y-69516000D03*
X215900000Y-64516000D03*
X215900000Y-59516000D03*
D13*
X215900000Y-133016000D03*
D14*
X215900000Y-128016000D03*
X215900000Y-123016000D03*
X215900000Y-118016000D03*
X215900000Y-113016000D03*
D16*
X75240000Y-99060000D03*
D15*
X78740000Y-99060000D03*
D16*
X75240000Y-108204000D03*
D15*
X78740000Y-108204000D03*
D16*
X75240000Y-117348000D03*
D15*
X78740000Y-117348000D03*
D16*
X75184000Y-126492000D03*
D15*
X78684000Y-126492000D03*
D19*
X130556000Y-53340000D03*
D20*
X138176000Y-53340000D03*
D26*
X172720000Y-121920000D03*
X170180000Y-119380000D03*
X167640000Y-121920000D03*
X93980000Y-121920000D03*
X91440000Y-119380000D03*
X88900000Y-121920000D03*
D27*
X180848000Y-66548000D03*
X177800000Y-66548000D03*
X177800000Y-57912000D03*
X175260000Y-66548000D03*
X175260000Y-57912000D03*
X116840000Y-57912000D03*
X114300000Y-57912000D03*
X172720000Y-66548000D03*
D28*
X168830000Y-58420000D02*
X168830000Y-55960000D01*
X168830000Y-60960000D02*
X168830000Y-58420000D01*
X168830000Y-58420000D02*
X168830000Y-75010000D01*
X168830000Y-75010000D02*
X163830000Y-80010000D01*
X168830000Y-55960000D02*
X168910000Y-55880000D01*
X168910000Y-63500000D02*
X168910000Y-74930000D01*
X168910000Y-55880000D02*
X168910000Y-63500000D01*
X168910000Y-63500000D02*
X168830000Y-63420000D01*
X168830000Y-63420000D02*
X168830000Y-60960000D01*
X167202793Y-52900001D02*
X152719209Y-52900001D01*
X152719209Y-52900001D02*
X149860000Y-50040792D01*
X149860000Y-50040792D02*
X149860000Y-48768000D01*
X168910000Y-74930000D02*
X163830000Y-80010000D01*
X168910000Y-55880000D02*
X168910000Y-54607208D01*
X168910000Y-54607208D02*
X167202793Y-52900001D01*
D29*
X180848000Y-57658000D02*
X180848000Y-66548000D01*
X179070000Y-55880000D02*
X180848000Y-57658000D01*
X180880000Y-109220000D02*
X180880000Y-110270000D01*
X180880000Y-110270000D02*
X175580000Y-115570000D01*
X175580000Y-115570000D02*
X175260000Y-115570000D01*
X177800000Y-57912000D02*
X177800000Y-66548000D01*
X175260000Y-57912000D02*
X175260000Y-66548000D01*
D28*
X181920000Y-90170000D02*
X181920000Y-99060000D01*
X181920000Y-81280000D02*
X181920000Y-90170000D01*
D29*
X129540000Y-119380000D02*
X133125001Y-122965001D01*
X133125001Y-122965001D02*
X181754999Y-122965001D01*
X181754999Y-122965001D02*
X185810001Y-118909999D01*
X185810001Y-118909999D02*
X186610000Y-118110000D01*
D28*
X186610000Y-118110000D02*
X186610000Y-103750000D01*
X186610000Y-103750000D02*
X181920000Y-99060000D01*
X175260000Y-80010000D02*
X180650000Y-80010000D01*
X180650000Y-80010000D02*
X181920000Y-81280000D01*
X177059999Y-99060000D02*
X181610000Y-99060000D01*
X175260000Y-99060000D02*
X177059999Y-99060000D01*
D30*
X82839999Y-56698003D02*
X82839999Y-77759999D01*
X82839999Y-77759999D02*
X85090000Y-80010000D01*
D28*
X88900000Y-48768000D02*
X88900000Y-50638002D01*
D30*
X92389207Y-53529999D02*
X106872791Y-53529999D01*
X106872791Y-53529999D02*
X107950000Y-54607208D01*
X107950000Y-54607208D02*
X107950000Y-55880000D01*
X88900000Y-50040792D02*
X92389207Y-53529999D01*
X82839999Y-56698003D02*
X88900000Y-50638002D01*
X88900000Y-50638002D02*
X88900000Y-50040792D01*
D29*
X116840000Y-57912000D02*
X116840000Y-56896000D01*
X116840000Y-50800000D02*
X116840000Y-56896000D01*
X116840000Y-56896000D02*
X116840000Y-57150000D01*
X114300000Y-56896000D02*
X114300000Y-57912000D01*
X114300000Y-56423002D02*
X114300000Y-56896000D01*
X114300000Y-55336998D02*
X114300000Y-56423002D01*
X114300000Y-55880000D02*
X114300000Y-52072792D01*
X114300000Y-55880000D02*
X114300000Y-55336998D01*
X114300000Y-56423002D02*
X114300000Y-55880000D01*
X114300000Y-52072792D02*
X114300000Y-50800000D01*
D30*
X96520000Y-80010000D02*
X101910000Y-80010000D01*
X101910000Y-80010000D02*
X103180000Y-81280000D01*
X103180000Y-99060000D02*
X99880000Y-99060000D01*
X99880000Y-99060000D02*
X98610000Y-100330000D01*
X98610000Y-100330000D02*
X97082398Y-100330000D01*
X103180000Y-99060000D02*
X107870000Y-103750000D01*
X107870000Y-103750000D02*
X107870000Y-118110000D01*
X103180000Y-90170000D02*
X103180000Y-99060000D01*
X103180000Y-81280000D02*
X103180000Y-90170000D01*
X211836000Y-59436000D02*
X211916000Y-59516000D01*
X211916000Y-59516000D02*
X215900000Y-59516000D01*
X206789999Y-64482001D02*
X211836000Y-59436000D01*
X205740000Y-113660000D02*
X206789999Y-112610001D01*
X206789999Y-112610001D02*
X206789999Y-64482001D01*
X212344000Y-118364000D02*
X212344000Y-112704000D01*
X212344000Y-112704000D02*
X215900000Y-109148000D01*
X215900000Y-109148000D02*
X215900000Y-104648000D01*
X209296000Y-121412000D02*
X212344000Y-118364000D01*
X197988000Y-121412000D02*
X209296000Y-121412000D01*
X194940000Y-124460000D02*
X197988000Y-121412000D01*
X215900000Y-74516000D02*
X215900000Y-82648000D01*
D29*
X173990000Y-55880000D02*
X173990000Y-65278000D01*
X173990000Y-65278000D02*
X172720000Y-66548000D01*
X179070000Y-106680000D02*
X176410001Y-104020001D01*
X179070000Y-111443590D02*
X179070000Y-106680000D01*
X176213590Y-114300000D02*
X179070000Y-111443590D01*
X170180000Y-119380000D02*
X170180000Y-118361767D01*
X170180000Y-118361767D02*
X174241767Y-114300000D01*
X174241767Y-114300000D02*
X176213590Y-114300000D01*
D11*
X176410001Y-104020001D02*
X176059999Y-103669999D01*
X176059999Y-103669999D02*
X175260000Y-102870000D01*
X165100000Y-115570000D02*
X165100000Y-119380000D01*
X165100000Y-119380000D02*
X167640000Y-121920000D01*
D30*
X215900000Y-64516000D02*
X215900000Y-69516000D01*
X75240000Y-117348000D02*
X75240000Y-126436000D01*
X75240000Y-126436000D02*
X75184000Y-126492000D01*
X75240000Y-108204000D02*
X75240000Y-117348000D01*
X75240000Y-99060000D02*
X75240000Y-108204000D01*
X91440000Y-76200000D02*
X91460000Y-76200000D01*
X91460000Y-76200000D02*
X105619999Y-62040001D01*
X105619999Y-62040001D02*
X105619999Y-59879999D01*
X110650010Y-56998380D02*
X110650010Y-55880000D01*
X105619999Y-59879999D02*
X106919988Y-58580010D01*
X106919988Y-58580010D02*
X109068380Y-58580010D01*
X109068380Y-58580010D02*
X110650010Y-56998380D01*
X91440000Y-86360000D02*
X91440000Y-76200000D01*
X80990001Y-96809999D02*
X91440000Y-86360000D01*
X75240000Y-99060000D02*
X77490001Y-96809999D01*
X77490001Y-96809999D02*
X80990001Y-96809999D01*
X75184000Y-99116000D02*
X75240000Y-99060000D01*
X126492000Y-81280000D02*
X126492000Y-95302000D01*
X126492000Y-95302000D02*
X132080000Y-100890000D01*
X132080000Y-100890000D02*
X132080000Y-104290000D01*
X130556000Y-77216000D02*
X126492000Y-81280000D01*
X130556000Y-53340000D02*
X130556000Y-77216000D01*
D31*
G36*
X226485000Y-145225000D02*
X68135000Y-145225000D01*
X68135000Y-140972325D01*
X68494587Y-140972325D01*
X68856916Y-141849229D01*
X69527242Y-142520726D01*
X70403513Y-142884585D01*
X71352325Y-142885413D01*
X72229229Y-142523084D01*
X72900726Y-141852758D01*
X73264585Y-140976487D01*
X73264588Y-140972325D01*
X221354587Y-140972325D01*
X221716916Y-141849229D01*
X222387242Y-142520726D01*
X223263513Y-142884585D01*
X224212325Y-142885413D01*
X225089229Y-142523084D01*
X225760726Y-141852758D01*
X226124585Y-140976487D01*
X226125413Y-140027675D01*
X225763084Y-139150771D01*
X225092758Y-138479274D01*
X224216487Y-138115415D01*
X223267675Y-138114587D01*
X222390771Y-138476916D01*
X221719274Y-139147242D01*
X221355415Y-140023513D01*
X221354587Y-140972325D01*
X73264588Y-140972325D01*
X73265413Y-140027675D01*
X72903084Y-139150771D01*
X72232758Y-138479274D01*
X71356487Y-138115415D01*
X70407675Y-138114587D01*
X69530771Y-138476916D01*
X68859274Y-139147242D01*
X68495415Y-140023513D01*
X68494587Y-140972325D01*
X68135000Y-140972325D01*
X68135000Y-135325000D01*
X77752143Y-135325000D01*
X77752143Y-139145000D01*
X84807857Y-139145000D01*
X84807857Y-137445750D01*
X112765000Y-137445750D01*
X112765000Y-138186310D01*
X112861673Y-138419699D01*
X113040302Y-138598327D01*
X113273691Y-138695000D01*
X114014250Y-138695000D01*
X114173000Y-138536250D01*
X114173000Y-137287000D01*
X112923750Y-137287000D01*
X112765000Y-137445750D01*
X84807857Y-137445750D01*
X84807857Y-136133690D01*
X112765000Y-136133690D01*
X112765000Y-136874250D01*
X112923750Y-137033000D01*
X114173000Y-137033000D01*
X114173000Y-135783750D01*
X114427000Y-135783750D01*
X114427000Y-137033000D01*
X114447000Y-137033000D01*
X114447000Y-137287000D01*
X114427000Y-137287000D01*
X114427000Y-138536250D01*
X114585750Y-138695000D01*
X115326309Y-138695000D01*
X115559698Y-138598327D01*
X115738327Y-138419699D01*
X115794119Y-138285006D01*
X115969357Y-138460551D01*
X116533330Y-138694733D01*
X117143991Y-138695265D01*
X117708371Y-138462068D01*
X118140551Y-138030643D01*
X118374733Y-137466670D01*
X118374751Y-137445750D01*
X125465000Y-137445750D01*
X125465000Y-138186310D01*
X125561673Y-138419699D01*
X125740302Y-138598327D01*
X125973691Y-138695000D01*
X126714250Y-138695000D01*
X126873000Y-138536250D01*
X126873000Y-137287000D01*
X125623750Y-137287000D01*
X125465000Y-137445750D01*
X118374751Y-137445750D01*
X118375265Y-136856009D01*
X118142068Y-136291629D01*
X117984405Y-136133690D01*
X125465000Y-136133690D01*
X125465000Y-136874250D01*
X125623750Y-137033000D01*
X126873000Y-137033000D01*
X126873000Y-135783750D01*
X127127000Y-135783750D01*
X127127000Y-137033000D01*
X127147000Y-137033000D01*
X127147000Y-137287000D01*
X127127000Y-137287000D01*
X127127000Y-138536250D01*
X127285750Y-138695000D01*
X128026309Y-138695000D01*
X128259698Y-138598327D01*
X128438327Y-138419699D01*
X128494119Y-138285006D01*
X128669357Y-138460551D01*
X129233330Y-138694733D01*
X129843991Y-138695265D01*
X130408371Y-138462068D01*
X130840551Y-138030643D01*
X131074733Y-137466670D01*
X131074751Y-137445750D01*
X138165000Y-137445750D01*
X138165000Y-138186310D01*
X138261673Y-138419699D01*
X138440302Y-138598327D01*
X138673691Y-138695000D01*
X139414250Y-138695000D01*
X139573000Y-138536250D01*
X139573000Y-137287000D01*
X138323750Y-137287000D01*
X138165000Y-137445750D01*
X131074751Y-137445750D01*
X131075265Y-136856009D01*
X130842068Y-136291629D01*
X130684405Y-136133690D01*
X138165000Y-136133690D01*
X138165000Y-136874250D01*
X138323750Y-137033000D01*
X139573000Y-137033000D01*
X139573000Y-135783750D01*
X139827000Y-135783750D01*
X139827000Y-137033000D01*
X139847000Y-137033000D01*
X139847000Y-137287000D01*
X139827000Y-137287000D01*
X139827000Y-138536250D01*
X139985750Y-138695000D01*
X140726309Y-138695000D01*
X140959698Y-138598327D01*
X141138327Y-138419699D01*
X141194119Y-138285006D01*
X141369357Y-138460551D01*
X141933330Y-138694733D01*
X142543991Y-138695265D01*
X143108371Y-138462068D01*
X143540551Y-138030643D01*
X143774733Y-137466670D01*
X143774751Y-137445750D01*
X150865000Y-137445750D01*
X150865000Y-138186310D01*
X150961673Y-138419699D01*
X151140302Y-138598327D01*
X151373691Y-138695000D01*
X152114250Y-138695000D01*
X152273000Y-138536250D01*
X152273000Y-137287000D01*
X151023750Y-137287000D01*
X150865000Y-137445750D01*
X143774751Y-137445750D01*
X143775265Y-136856009D01*
X143542068Y-136291629D01*
X143384405Y-136133690D01*
X150865000Y-136133690D01*
X150865000Y-136874250D01*
X151023750Y-137033000D01*
X152273000Y-137033000D01*
X152273000Y-135783750D01*
X152527000Y-135783750D01*
X152527000Y-137033000D01*
X152547000Y-137033000D01*
X152547000Y-137287000D01*
X152527000Y-137287000D01*
X152527000Y-138536250D01*
X152685750Y-138695000D01*
X153426309Y-138695000D01*
X153659698Y-138598327D01*
X153838327Y-138419699D01*
X153894119Y-138285006D01*
X154069357Y-138460551D01*
X154633330Y-138694733D01*
X155243991Y-138695265D01*
X155808371Y-138462068D01*
X156240551Y-138030643D01*
X156474733Y-137466670D01*
X156475265Y-136856009D01*
X156242068Y-136291629D01*
X155810643Y-135859449D01*
X155246670Y-135625267D01*
X154636009Y-135624735D01*
X154071629Y-135857932D01*
X153894159Y-136035092D01*
X153838327Y-135900301D01*
X153659698Y-135721673D01*
X153426309Y-135625000D01*
X152685750Y-135625000D01*
X152527000Y-135783750D01*
X152273000Y-135783750D01*
X152114250Y-135625000D01*
X151373691Y-135625000D01*
X151140302Y-135721673D01*
X150961673Y-135900301D01*
X150865000Y-136133690D01*
X143384405Y-136133690D01*
X143110643Y-135859449D01*
X142546670Y-135625267D01*
X141936009Y-135624735D01*
X141371629Y-135857932D01*
X141194159Y-136035092D01*
X141138327Y-135900301D01*
X140959698Y-135721673D01*
X140726309Y-135625000D01*
X139985750Y-135625000D01*
X139827000Y-135783750D01*
X139573000Y-135783750D01*
X139414250Y-135625000D01*
X138673691Y-135625000D01*
X138440302Y-135721673D01*
X138261673Y-135900301D01*
X138165000Y-136133690D01*
X130684405Y-136133690D01*
X130410643Y-135859449D01*
X129846670Y-135625267D01*
X129236009Y-135624735D01*
X128671629Y-135857932D01*
X128494159Y-136035092D01*
X128438327Y-135900301D01*
X128259698Y-135721673D01*
X128026309Y-135625000D01*
X127285750Y-135625000D01*
X127127000Y-135783750D01*
X126873000Y-135783750D01*
X126714250Y-135625000D01*
X125973691Y-135625000D01*
X125740302Y-135721673D01*
X125561673Y-135900301D01*
X125465000Y-136133690D01*
X117984405Y-136133690D01*
X117710643Y-135859449D01*
X117146670Y-135625267D01*
X116536009Y-135624735D01*
X115971629Y-135857932D01*
X115794159Y-136035092D01*
X115738327Y-135900301D01*
X115559698Y-135721673D01*
X115326309Y-135625000D01*
X114585750Y-135625000D01*
X114427000Y-135783750D01*
X114173000Y-135783750D01*
X114014250Y-135625000D01*
X113273691Y-135625000D01*
X113040302Y-135721673D01*
X112861673Y-135900301D01*
X112765000Y-136133690D01*
X84807857Y-136133690D01*
X84807857Y-135325000D01*
X77752143Y-135325000D01*
X68135000Y-135325000D01*
X68135000Y-133301750D01*
X214065000Y-133301750D01*
X214065000Y-134342309D01*
X214161673Y-134575698D01*
X214340301Y-134754327D01*
X214573690Y-134851000D01*
X215614250Y-134851000D01*
X215773000Y-134692250D01*
X215773000Y-133143000D01*
X216027000Y-133143000D01*
X216027000Y-134692250D01*
X216185750Y-134851000D01*
X217226310Y-134851000D01*
X217459699Y-134754327D01*
X217638327Y-134575698D01*
X217735000Y-134342309D01*
X217735000Y-133301750D01*
X217576250Y-133143000D01*
X216027000Y-133143000D01*
X215773000Y-133143000D01*
X214223750Y-133143000D01*
X214065000Y-133301750D01*
X68135000Y-133301750D01*
X68135000Y-131689691D01*
X214065000Y-131689691D01*
X214065000Y-132730250D01*
X214223750Y-132889000D01*
X215773000Y-132889000D01*
X215773000Y-131339750D01*
X216027000Y-131339750D01*
X216027000Y-132889000D01*
X217576250Y-132889000D01*
X217735000Y-132730250D01*
X217735000Y-131689691D01*
X217638327Y-131456302D01*
X217459699Y-131277673D01*
X217226310Y-131181000D01*
X216185750Y-131181000D01*
X216027000Y-131339750D01*
X215773000Y-131339750D01*
X215614250Y-131181000D01*
X214573690Y-131181000D01*
X214340301Y-131277673D01*
X214161673Y-131456302D01*
X214065000Y-131689691D01*
X68135000Y-131689691D01*
X68135000Y-129511887D01*
X115405000Y-129511887D01*
X115405000Y-129568113D01*
X115514233Y-130117264D01*
X115825302Y-130582811D01*
X116290849Y-130893880D01*
X116840000Y-131003113D01*
X117389151Y-130893880D01*
X117854698Y-130582811D01*
X118165767Y-130117264D01*
X118275000Y-129568113D01*
X118275000Y-129511887D01*
X128105000Y-129511887D01*
X128105000Y-129568113D01*
X128214233Y-130117264D01*
X128525302Y-130582811D01*
X128990849Y-130893880D01*
X129540000Y-131003113D01*
X130089151Y-130893880D01*
X130554698Y-130582811D01*
X130865767Y-130117264D01*
X130975000Y-129568113D01*
X130975000Y-129511887D01*
X140805000Y-129511887D01*
X140805000Y-129568113D01*
X140914233Y-130117264D01*
X141225302Y-130582811D01*
X141690849Y-130893880D01*
X142240000Y-131003113D01*
X142789151Y-130893880D01*
X143254698Y-130582811D01*
X143565767Y-130117264D01*
X143675000Y-129568113D01*
X143675000Y-129511887D01*
X153505000Y-129511887D01*
X153505000Y-129568113D01*
X153614233Y-130117264D01*
X153925302Y-130582811D01*
X154390849Y-130893880D01*
X154940000Y-131003113D01*
X155489151Y-130893880D01*
X155954698Y-130582811D01*
X156265767Y-130117264D01*
X156375000Y-129568113D01*
X156375000Y-129511887D01*
X156265767Y-128962736D01*
X155954698Y-128497189D01*
X155778420Y-128379403D01*
X214064682Y-128379403D01*
X214343455Y-129054086D01*
X214859199Y-129570730D01*
X215533395Y-129850681D01*
X216263403Y-129851318D01*
X216938086Y-129572545D01*
X217454730Y-129056801D01*
X217734681Y-128382605D01*
X217735318Y-127652597D01*
X217456545Y-126977914D01*
X216940801Y-126461270D01*
X216266605Y-126181319D01*
X215536597Y-126180682D01*
X214861914Y-126459455D01*
X214345270Y-126975199D01*
X214065319Y-127649395D01*
X214064682Y-128379403D01*
X155778420Y-128379403D01*
X155489151Y-128186120D01*
X154940000Y-128076887D01*
X154390849Y-128186120D01*
X153925302Y-128497189D01*
X153614233Y-128962736D01*
X153505000Y-129511887D01*
X143675000Y-129511887D01*
X143565767Y-128962736D01*
X143254698Y-128497189D01*
X142789151Y-128186120D01*
X142240000Y-128076887D01*
X141690849Y-128186120D01*
X141225302Y-128497189D01*
X140914233Y-128962736D01*
X140805000Y-129511887D01*
X130975000Y-129511887D01*
X130865767Y-128962736D01*
X130554698Y-128497189D01*
X130089151Y-128186120D01*
X129540000Y-128076887D01*
X128990849Y-128186120D01*
X128525302Y-128497189D01*
X128214233Y-128962736D01*
X128105000Y-129511887D01*
X118275000Y-129511887D01*
X118165767Y-128962736D01*
X117854698Y-128497189D01*
X117389151Y-128186120D01*
X116840000Y-128076887D01*
X116290849Y-128186120D01*
X115825302Y-128497189D01*
X115514233Y-128962736D01*
X115405000Y-129511887D01*
X68135000Y-129511887D01*
X68135000Y-99116000D01*
X73299000Y-99116000D01*
X73355000Y-99397531D01*
X73355000Y-126210469D01*
X73299000Y-126492000D01*
X73442487Y-127213359D01*
X73851104Y-127824896D01*
X74462641Y-128233513D01*
X75184000Y-128377000D01*
X75905359Y-128233513D01*
X76516896Y-127824896D01*
X76572896Y-127768896D01*
X76752737Y-127499745D01*
X77855861Y-127499745D01*
X77929995Y-127745864D01*
X78467223Y-127938965D01*
X79037454Y-127911778D01*
X79438005Y-127745864D01*
X79512139Y-127499745D01*
X78684000Y-126671605D01*
X77855861Y-127499745D01*
X76752737Y-127499745D01*
X76981513Y-127157358D01*
X77125000Y-126436000D01*
X77125000Y-126275223D01*
X77237035Y-126275223D01*
X77264222Y-126845454D01*
X77430136Y-127246005D01*
X77676255Y-127320139D01*
X78504395Y-126492000D01*
X78863605Y-126492000D01*
X79691745Y-127320139D01*
X79937864Y-127246005D01*
X80130965Y-126708777D01*
X80103778Y-126138546D01*
X79937864Y-125737995D01*
X79691745Y-125663861D01*
X78863605Y-126492000D01*
X78504395Y-126492000D01*
X77676255Y-125663861D01*
X77430136Y-125737995D01*
X77237035Y-126275223D01*
X77125000Y-126275223D01*
X77125000Y-125484255D01*
X77855861Y-125484255D01*
X78684000Y-126312395D01*
X79512139Y-125484255D01*
X79438005Y-125238136D01*
X78900777Y-125045035D01*
X78330546Y-125072222D01*
X77929995Y-125238136D01*
X77855861Y-125484255D01*
X77125000Y-125484255D01*
X77125000Y-124460000D01*
X193055000Y-124460000D01*
X193198487Y-125181359D01*
X193607104Y-125792896D01*
X194218641Y-126201513D01*
X194940000Y-126345000D01*
X195661359Y-126201513D01*
X196272896Y-125792896D01*
X196417089Y-125648703D01*
X204730902Y-125648703D01*
X204835687Y-125920745D01*
X205463526Y-126155619D01*
X206133456Y-126132349D01*
X206644313Y-125920745D01*
X206749098Y-125648703D01*
X205740000Y-124639605D01*
X204730902Y-125648703D01*
X196417089Y-125648703D01*
X198768792Y-123297000D01*
X204476884Y-123297000D01*
X204437138Y-123336746D01*
X204551295Y-123450903D01*
X204279255Y-123555687D01*
X204044381Y-124183526D01*
X204067651Y-124853456D01*
X204279255Y-125364313D01*
X204551297Y-125469098D01*
X205560395Y-124460000D01*
X205546253Y-124445858D01*
X205725858Y-124266253D01*
X205740000Y-124280395D01*
X205754143Y-124266253D01*
X205933748Y-124445858D01*
X205919605Y-124460000D01*
X206928703Y-125469098D01*
X207200745Y-125364313D01*
X207435619Y-124736474D01*
X207412349Y-124066544D01*
X207200745Y-123555687D01*
X206928705Y-123450903D01*
X207000205Y-123379403D01*
X214064682Y-123379403D01*
X214343455Y-124054086D01*
X214859199Y-124570730D01*
X215533395Y-124850681D01*
X216263403Y-124851318D01*
X216938086Y-124572545D01*
X217454730Y-124056801D01*
X217734681Y-123382605D01*
X217735318Y-122652597D01*
X217456545Y-121977914D01*
X216940801Y-121461270D01*
X216266605Y-121181319D01*
X215536597Y-121180682D01*
X214861914Y-121459455D01*
X214345270Y-121975199D01*
X214065319Y-122649395D01*
X214064682Y-123379403D01*
X207000205Y-123379403D01*
X207042862Y-123336746D01*
X207003116Y-123297000D01*
X209296000Y-123297000D01*
X210017359Y-123153513D01*
X210628896Y-122744896D01*
X213676896Y-119696896D01*
X214085513Y-119085358D01*
X214173534Y-118642846D01*
X214343455Y-119054086D01*
X214859199Y-119570730D01*
X215533395Y-119850681D01*
X216263403Y-119851318D01*
X216938086Y-119572545D01*
X217454730Y-119056801D01*
X217734681Y-118382605D01*
X217735318Y-117652597D01*
X217456545Y-116977914D01*
X216940801Y-116461270D01*
X216266605Y-116181319D01*
X215536597Y-116180682D01*
X214861914Y-116459455D01*
X214345270Y-116975199D01*
X214229000Y-117255208D01*
X214229000Y-113777083D01*
X214343455Y-114054086D01*
X214859199Y-114570730D01*
X215533395Y-114850681D01*
X216263403Y-114851318D01*
X216938086Y-114572545D01*
X217454730Y-114056801D01*
X217734681Y-113382605D01*
X217735318Y-112652597D01*
X217456545Y-111977914D01*
X216940801Y-111461270D01*
X216454467Y-111259326D01*
X217232896Y-110480897D01*
X217641512Y-109869359D01*
X217641513Y-109869358D01*
X217785000Y-109148000D01*
X217785000Y-103846377D01*
X217641513Y-103125019D01*
X217232896Y-102513481D01*
X216621358Y-102104864D01*
X215900000Y-101961377D01*
X215178642Y-102104864D01*
X214567104Y-102513481D01*
X214158487Y-103125019D01*
X214015000Y-103846377D01*
X214015000Y-108367207D01*
X211011104Y-111371104D01*
X210602487Y-111982641D01*
X210602487Y-111982642D01*
X210459000Y-112704000D01*
X210459000Y-117583208D01*
X208515208Y-119527000D01*
X197988000Y-119527000D01*
X197266642Y-119670487D01*
X196655104Y-120079104D01*
X193607104Y-123127104D01*
X193198487Y-123738641D01*
X193055000Y-124460000D01*
X77125000Y-124460000D01*
X77125000Y-122170520D01*
X87634781Y-122170520D01*
X87826960Y-122635629D01*
X88182499Y-122991790D01*
X88647272Y-123184780D01*
X89150520Y-123185219D01*
X89615629Y-122993040D01*
X89804492Y-122804506D01*
X93275099Y-122804506D01*
X93328313Y-123033034D01*
X93803860Y-123197700D01*
X94306222Y-123167846D01*
X94631687Y-123033034D01*
X94684901Y-122804506D01*
X93980000Y-122099605D01*
X93275099Y-122804506D01*
X89804492Y-122804506D01*
X89971790Y-122637501D01*
X90164780Y-122172728D01*
X90165154Y-121743860D01*
X92702300Y-121743860D01*
X92732154Y-122246222D01*
X92866966Y-122571687D01*
X93095494Y-122624901D01*
X93800395Y-121920000D01*
X94159605Y-121920000D01*
X94864506Y-122624901D01*
X95093034Y-122571687D01*
X95257700Y-122096140D01*
X95227846Y-121593778D01*
X95093034Y-121268313D01*
X94864506Y-121215099D01*
X94159605Y-121920000D01*
X93800395Y-121920000D01*
X93095494Y-121215099D01*
X92866966Y-121268313D01*
X92702300Y-121743860D01*
X90165154Y-121743860D01*
X90165219Y-121669480D01*
X89973040Y-121204371D01*
X89804458Y-121035494D01*
X93275099Y-121035494D01*
X93980000Y-121740395D01*
X94684901Y-121035494D01*
X94631687Y-120806966D01*
X94156140Y-120642300D01*
X93653778Y-120672154D01*
X93328313Y-120806966D01*
X93275099Y-121035494D01*
X89804458Y-121035494D01*
X89617501Y-120848210D01*
X89152728Y-120655220D01*
X88649480Y-120654781D01*
X88184371Y-120846960D01*
X87828210Y-121202499D01*
X87635220Y-121667272D01*
X87634781Y-122170520D01*
X77125000Y-122170520D01*
X77125000Y-119630520D01*
X90174781Y-119630520D01*
X90366960Y-120095629D01*
X90722499Y-120451790D01*
X91187272Y-120644780D01*
X91690520Y-120645219D01*
X92155629Y-120453040D01*
X92511790Y-120097501D01*
X92704780Y-119632728D01*
X92705219Y-119129480D01*
X92700371Y-119117745D01*
X102041861Y-119117745D01*
X102115995Y-119363864D01*
X102653223Y-119556965D01*
X103223454Y-119529778D01*
X103624005Y-119363864D01*
X103698139Y-119117745D01*
X102870000Y-118289605D01*
X102041861Y-119117745D01*
X92700371Y-119117745D01*
X92513040Y-118664371D01*
X92157501Y-118308210D01*
X91692728Y-118115220D01*
X91189480Y-118114781D01*
X90724371Y-118306960D01*
X90368210Y-118662499D01*
X90175220Y-119127272D01*
X90174781Y-119630520D01*
X77125000Y-119630520D01*
X77125000Y-118355745D01*
X77911861Y-118355745D01*
X77985995Y-118601864D01*
X78523223Y-118794965D01*
X79093454Y-118767778D01*
X79494005Y-118601864D01*
X79568139Y-118355745D01*
X78740000Y-117527605D01*
X77911861Y-118355745D01*
X77125000Y-118355745D01*
X77125000Y-117131223D01*
X77293035Y-117131223D01*
X77320222Y-117701454D01*
X77486136Y-118102005D01*
X77732255Y-118176139D01*
X78560395Y-117348000D01*
X78919605Y-117348000D01*
X79747745Y-118176139D01*
X79993864Y-118102005D01*
X80068908Y-117893223D01*
X101423035Y-117893223D01*
X101450222Y-118463454D01*
X101616136Y-118864005D01*
X101862255Y-118938139D01*
X102690395Y-118110000D01*
X103049605Y-118110000D01*
X103877745Y-118938139D01*
X104123864Y-118864005D01*
X104316965Y-118326777D01*
X104289778Y-117756546D01*
X104123864Y-117355995D01*
X103877745Y-117281861D01*
X103049605Y-118110000D01*
X102690395Y-118110000D01*
X101862255Y-117281861D01*
X101616136Y-117355995D01*
X101423035Y-117893223D01*
X80068908Y-117893223D01*
X80186965Y-117564777D01*
X80164914Y-117102255D01*
X102041861Y-117102255D01*
X102870000Y-117930395D01*
X103698139Y-117102255D01*
X103624005Y-116856136D01*
X103086777Y-116663035D01*
X102516546Y-116690222D01*
X102115995Y-116856136D01*
X102041861Y-117102255D01*
X80164914Y-117102255D01*
X80159778Y-116994546D01*
X79993864Y-116593995D01*
X79747745Y-116519861D01*
X78919605Y-117348000D01*
X78560395Y-117348000D01*
X77732255Y-116519861D01*
X77486136Y-116593995D01*
X77293035Y-117131223D01*
X77125000Y-117131223D01*
X77125000Y-116340255D01*
X77911861Y-116340255D01*
X78740000Y-117168395D01*
X79568139Y-116340255D01*
X79494005Y-116094136D01*
X78956777Y-115901035D01*
X78386546Y-115928222D01*
X77985995Y-116094136D01*
X77911861Y-116340255D01*
X77125000Y-116340255D01*
X77125000Y-115854187D01*
X84924752Y-115854187D01*
X85142757Y-116381800D01*
X85546077Y-116785824D01*
X86073309Y-117004750D01*
X86644187Y-117005248D01*
X87171800Y-116787243D01*
X87575824Y-116383923D01*
X87794750Y-115856691D01*
X87795000Y-115570000D01*
X95056887Y-115570000D01*
X95166120Y-116119151D01*
X95477189Y-116584698D01*
X95942736Y-116895767D01*
X96491887Y-117005000D01*
X96548113Y-117005000D01*
X97097264Y-116895767D01*
X97562811Y-116584698D01*
X97873880Y-116119151D01*
X97983113Y-115570000D01*
X97873880Y-115020849D01*
X97562811Y-114555302D01*
X97097264Y-114244233D01*
X96548113Y-114135000D01*
X96491887Y-114135000D01*
X95942736Y-114244233D01*
X95477189Y-114555302D01*
X95166120Y-115020849D01*
X95056887Y-115570000D01*
X87795000Y-115570000D01*
X87795248Y-115285813D01*
X87577243Y-114758200D01*
X87173923Y-114354176D01*
X86646691Y-114135250D01*
X86075813Y-114134752D01*
X85548200Y-114352757D01*
X85144176Y-114756077D01*
X84925250Y-115283309D01*
X84924752Y-115854187D01*
X77125000Y-115854187D01*
X77125000Y-109211745D01*
X77911861Y-109211745D01*
X77985995Y-109457864D01*
X78523223Y-109650965D01*
X79093454Y-109623778D01*
X79494005Y-109457864D01*
X79568139Y-109211745D01*
X78740000Y-108383605D01*
X77911861Y-109211745D01*
X77125000Y-109211745D01*
X77125000Y-107987223D01*
X77293035Y-107987223D01*
X77320222Y-108557454D01*
X77486136Y-108958005D01*
X77732255Y-109032139D01*
X78560395Y-108204000D01*
X78919605Y-108204000D01*
X79747745Y-109032139D01*
X79993864Y-108958005D01*
X80186965Y-108420777D01*
X80186928Y-108420000D01*
X85452560Y-108420000D01*
X85452560Y-110020000D01*
X85496838Y-110255317D01*
X85635910Y-110471441D01*
X85848110Y-110616431D01*
X86100000Y-110667440D01*
X87700000Y-110667440D01*
X87935317Y-110623162D01*
X88151441Y-110484090D01*
X88155977Y-110477452D01*
X88683223Y-110666965D01*
X89253454Y-110639778D01*
X89654005Y-110473864D01*
X89728139Y-110227745D01*
X88900000Y-109399605D01*
X88885858Y-109413748D01*
X88706253Y-109234143D01*
X88720395Y-109220000D01*
X89079605Y-109220000D01*
X89907745Y-110048139D01*
X90153864Y-109974005D01*
X90346965Y-109436777D01*
X90319778Y-108866546D01*
X90153864Y-108465995D01*
X90001165Y-108420000D01*
X91802560Y-108420000D01*
X91802560Y-110020000D01*
X91846838Y-110255317D01*
X91985910Y-110471441D01*
X92198110Y-110616431D01*
X92450000Y-110667440D01*
X94050000Y-110667440D01*
X94285317Y-110623162D01*
X94501441Y-110484090D01*
X94505977Y-110477452D01*
X95033223Y-110666965D01*
X95603454Y-110639778D01*
X96004005Y-110473864D01*
X96078139Y-110227745D01*
X95250000Y-109399605D01*
X95235858Y-109413748D01*
X95056253Y-109234143D01*
X95070395Y-109220000D01*
X95429605Y-109220000D01*
X96257745Y-110048139D01*
X96503864Y-109974005D01*
X96696965Y-109436777D01*
X96669778Y-108866546D01*
X96503864Y-108465995D01*
X96351165Y-108420000D01*
X98152560Y-108420000D01*
X98152560Y-110020000D01*
X98196838Y-110255317D01*
X98335910Y-110471441D01*
X98548110Y-110616431D01*
X98800000Y-110667440D01*
X100400000Y-110667440D01*
X100635317Y-110623162D01*
X100851441Y-110484090D01*
X100855977Y-110477452D01*
X101383223Y-110666965D01*
X101953454Y-110639778D01*
X102354005Y-110473864D01*
X102428139Y-110227745D01*
X101600000Y-109399605D01*
X101585858Y-109413748D01*
X101406253Y-109234143D01*
X101420395Y-109220000D01*
X101779605Y-109220000D01*
X102607745Y-110048139D01*
X102853864Y-109974005D01*
X103046965Y-109436777D01*
X103019778Y-108866546D01*
X102853864Y-108465995D01*
X102607745Y-108391861D01*
X101779605Y-109220000D01*
X101420395Y-109220000D01*
X101406253Y-109205858D01*
X101585858Y-109026252D01*
X101600000Y-109040395D01*
X102428139Y-108212255D01*
X102354005Y-107966136D01*
X101816777Y-107773035D01*
X101246546Y-107800222D01*
X100855053Y-107962384D01*
X100651890Y-107823569D01*
X100400000Y-107772560D01*
X98800000Y-107772560D01*
X98564683Y-107816838D01*
X98348559Y-107955910D01*
X98203569Y-108168110D01*
X98152560Y-108420000D01*
X96351165Y-108420000D01*
X96257745Y-108391861D01*
X95429605Y-109220000D01*
X95070395Y-109220000D01*
X95056253Y-109205858D01*
X95235858Y-109026252D01*
X95250000Y-109040395D01*
X96078139Y-108212255D01*
X96004005Y-107966136D01*
X95466777Y-107773035D01*
X94896546Y-107800222D01*
X94505053Y-107962384D01*
X94301890Y-107823569D01*
X94050000Y-107772560D01*
X92450000Y-107772560D01*
X92214683Y-107816838D01*
X91998559Y-107955910D01*
X91853569Y-108168110D01*
X91802560Y-108420000D01*
X90001165Y-108420000D01*
X89907745Y-108391861D01*
X89079605Y-109220000D01*
X88720395Y-109220000D01*
X88706253Y-109205858D01*
X88885858Y-109026252D01*
X88900000Y-109040395D01*
X89728139Y-108212255D01*
X89654005Y-107966136D01*
X89116777Y-107773035D01*
X88546546Y-107800222D01*
X88155053Y-107962384D01*
X87951890Y-107823569D01*
X87700000Y-107772560D01*
X86100000Y-107772560D01*
X85864683Y-107816838D01*
X85648559Y-107955910D01*
X85503569Y-108168110D01*
X85452560Y-108420000D01*
X80186928Y-108420000D01*
X80159778Y-107850546D01*
X79993864Y-107449995D01*
X79747745Y-107375861D01*
X78919605Y-108204000D01*
X78560395Y-108204000D01*
X77732255Y-107375861D01*
X77486136Y-107449995D01*
X77293035Y-107987223D01*
X77125000Y-107987223D01*
X77125000Y-107196255D01*
X77911861Y-107196255D01*
X78740000Y-108024395D01*
X79568139Y-107196255D01*
X79494005Y-106950136D01*
X78956777Y-106757035D01*
X78386546Y-106784222D01*
X77985995Y-106950136D01*
X77911861Y-107196255D01*
X77125000Y-107196255D01*
X77125000Y-104140000D01*
X84896887Y-104140000D01*
X85006120Y-104689151D01*
X85317189Y-105154698D01*
X85782736Y-105465767D01*
X86331887Y-105575000D01*
X86388113Y-105575000D01*
X86937264Y-105465767D01*
X87402811Y-105154698D01*
X87713880Y-104689151D01*
X87766584Y-104424187D01*
X95084752Y-104424187D01*
X95302757Y-104951800D01*
X95706077Y-105355824D01*
X96233309Y-105574750D01*
X96804187Y-105575248D01*
X97331800Y-105357243D01*
X97735824Y-104953923D01*
X97954750Y-104426691D01*
X97955248Y-103855813D01*
X97737243Y-103328200D01*
X97333923Y-102924176D01*
X96806691Y-102705250D01*
X96235813Y-102704752D01*
X95708200Y-102922757D01*
X95304176Y-103326077D01*
X95085250Y-103853309D01*
X95084752Y-104424187D01*
X87766584Y-104424187D01*
X87823113Y-104140000D01*
X87713880Y-103590849D01*
X87402811Y-103125302D01*
X86937264Y-102814233D01*
X86388113Y-102705000D01*
X86331887Y-102705000D01*
X85782736Y-102814233D01*
X85317189Y-103125302D01*
X85006120Y-103590849D01*
X84896887Y-104140000D01*
X77125000Y-104140000D01*
X77125000Y-100067745D01*
X77911861Y-100067745D01*
X77985995Y-100313864D01*
X78523223Y-100506965D01*
X79093454Y-100479778D01*
X79455049Y-100330000D01*
X84896887Y-100330000D01*
X85006120Y-100879151D01*
X85317189Y-101344698D01*
X85782736Y-101655767D01*
X86331887Y-101765000D01*
X86388113Y-101765000D01*
X86937264Y-101655767D01*
X87402811Y-101344698D01*
X87713880Y-100879151D01*
X87823113Y-100330000D01*
X87713880Y-99780849D01*
X87402811Y-99315302D01*
X86937264Y-99004233D01*
X86388113Y-98895000D01*
X86331887Y-98895000D01*
X85782736Y-99004233D01*
X85317189Y-99315302D01*
X85006120Y-99780849D01*
X84896887Y-100330000D01*
X79455049Y-100330000D01*
X79494005Y-100313864D01*
X79568139Y-100067745D01*
X78740000Y-99239605D01*
X77911861Y-100067745D01*
X77125000Y-100067745D01*
X77125000Y-99840792D01*
X77388207Y-99577585D01*
X77486136Y-99814005D01*
X77732255Y-99888139D01*
X78560395Y-99060000D01*
X78546252Y-99045858D01*
X78725858Y-98866253D01*
X78740000Y-98880395D01*
X78754143Y-98866253D01*
X78933748Y-99045858D01*
X78919605Y-99060000D01*
X79747745Y-99888139D01*
X79993864Y-99814005D01*
X80186965Y-99276777D01*
X80159778Y-98706546D01*
X80154995Y-98694999D01*
X80990001Y-98694999D01*
X81711360Y-98551512D01*
X82322897Y-98142895D01*
X92772896Y-87692897D01*
X93181513Y-87081359D01*
X93205319Y-86961678D01*
X93325000Y-86360000D01*
X93325000Y-80492226D01*
X94084579Y-80492226D01*
X94454504Y-81387514D01*
X95138883Y-82073088D01*
X96033524Y-82444576D01*
X97002226Y-82445421D01*
X97897514Y-82075496D01*
X98078325Y-81895000D01*
X101129208Y-81895000D01*
X101295000Y-82060792D01*
X101295000Y-97175000D01*
X99880000Y-97175000D01*
X99278322Y-97294681D01*
X99158641Y-97318487D01*
X98547104Y-97727104D01*
X97829208Y-98445000D01*
X97082398Y-98445000D01*
X96361040Y-98588487D01*
X95749502Y-98997104D01*
X95600162Y-99220606D01*
X95304176Y-99516077D01*
X95085250Y-100043309D01*
X95084752Y-100614187D01*
X95302757Y-101141800D01*
X95600831Y-101440394D01*
X95749502Y-101662896D01*
X96361040Y-102071513D01*
X97082398Y-102215000D01*
X98610000Y-102215000D01*
X99331359Y-102071513D01*
X99942896Y-101662896D01*
X100660792Y-100945000D01*
X102399208Y-100945000D01*
X105985000Y-104530793D01*
X105985000Y-118110000D01*
X106128487Y-118831358D01*
X106537104Y-119442896D01*
X107148642Y-119851513D01*
X107870000Y-119995000D01*
X108591358Y-119851513D01*
X108871710Y-119664187D01*
X115404752Y-119664187D01*
X115622757Y-120191800D01*
X116026077Y-120595824D01*
X116553309Y-120814750D01*
X117124187Y-120815248D01*
X117651800Y-120597243D01*
X118055824Y-120193923D01*
X118274750Y-119666691D01*
X118274752Y-119664187D01*
X128104752Y-119664187D01*
X128322757Y-120191800D01*
X128726077Y-120595824D01*
X129253309Y-120814750D01*
X129824187Y-120815248D01*
X129878149Y-120792951D01*
X132587600Y-123502402D01*
X132834162Y-123667149D01*
X133125001Y-123725001D01*
X181754999Y-123725001D01*
X182045838Y-123667149D01*
X182292400Y-123502402D01*
X186142745Y-119652057D01*
X186610000Y-119745000D01*
X187235687Y-119620543D01*
X187766120Y-119266120D01*
X188120543Y-118735687D01*
X188245000Y-118110000D01*
X188245000Y-112610000D01*
X193242560Y-112610000D01*
X193242560Y-114710000D01*
X193286838Y-114945317D01*
X193425910Y-115161441D01*
X193638110Y-115306431D01*
X193890000Y-115357440D01*
X195990000Y-115357440D01*
X196225317Y-115313162D01*
X196441441Y-115174090D01*
X196586431Y-114961890D01*
X196637440Y-114710000D01*
X196637440Y-112610000D01*
X196593162Y-112374683D01*
X196454090Y-112158559D01*
X196241890Y-112013569D01*
X195990000Y-111962560D01*
X193890000Y-111962560D01*
X193654683Y-112006838D01*
X193438559Y-112145910D01*
X193293569Y-112358110D01*
X193242560Y-112610000D01*
X188245000Y-112610000D01*
X188245000Y-103750005D01*
X188245001Y-103750000D01*
X188120543Y-103124313D01*
X187996426Y-102938559D01*
X187766120Y-102593880D01*
X187766117Y-102593878D01*
X185657544Y-100485304D01*
X185773454Y-100479778D01*
X186174005Y-100313864D01*
X186248139Y-100067745D01*
X185420000Y-99239605D01*
X185405858Y-99253748D01*
X185226252Y-99074142D01*
X185240395Y-99060000D01*
X185599605Y-99060000D01*
X186427745Y-99888139D01*
X186673864Y-99814005D01*
X186866965Y-99276777D01*
X186839778Y-98706546D01*
X186673864Y-98305995D01*
X186427745Y-98231861D01*
X185599605Y-99060000D01*
X185240395Y-99060000D01*
X184412255Y-98231861D01*
X184166136Y-98305995D01*
X183984253Y-98812013D01*
X183555000Y-98382760D01*
X183555000Y-98052255D01*
X184591861Y-98052255D01*
X185420000Y-98880395D01*
X186248139Y-98052255D01*
X186190230Y-97860000D01*
X193852560Y-97860000D01*
X193852560Y-100260000D01*
X193896838Y-100495317D01*
X194035910Y-100711441D01*
X194248110Y-100856431D01*
X194500000Y-100907440D01*
X196900000Y-100907440D01*
X197135317Y-100863162D01*
X197351441Y-100724090D01*
X197496431Y-100511890D01*
X197527761Y-100357175D01*
X202082430Y-100357175D01*
X202205565Y-100644788D01*
X202887734Y-100904707D01*
X203617443Y-100883786D01*
X204194435Y-100644788D01*
X204317570Y-100357175D01*
X203200000Y-99239605D01*
X202082430Y-100357175D01*
X197527761Y-100357175D01*
X197547440Y-100260000D01*
X197547440Y-98747734D01*
X201355293Y-98747734D01*
X201376214Y-99477443D01*
X201615212Y-100054435D01*
X201902825Y-100177570D01*
X203020395Y-99060000D01*
X201902825Y-97942430D01*
X201615212Y-98065565D01*
X201355293Y-98747734D01*
X197547440Y-98747734D01*
X197547440Y-97860000D01*
X197529156Y-97762825D01*
X202082430Y-97762825D01*
X203200000Y-98880395D01*
X204317570Y-97762825D01*
X204194435Y-97475212D01*
X203512266Y-97215293D01*
X202782557Y-97236214D01*
X202205565Y-97475212D01*
X202082430Y-97762825D01*
X197529156Y-97762825D01*
X197503162Y-97624683D01*
X197364090Y-97408559D01*
X197151890Y-97263569D01*
X196900000Y-97212560D01*
X194500000Y-97212560D01*
X194264683Y-97256838D01*
X194048559Y-97395910D01*
X193903569Y-97608110D01*
X193852560Y-97860000D01*
X186190230Y-97860000D01*
X186174005Y-97806136D01*
X185636777Y-97613035D01*
X185066546Y-97640222D01*
X184665995Y-97806136D01*
X184591861Y-98052255D01*
X183555000Y-98052255D01*
X183555000Y-91177745D01*
X184591861Y-91177745D01*
X184665995Y-91423864D01*
X185203223Y-91616965D01*
X185773454Y-91589778D01*
X186174005Y-91423864D01*
X186248139Y-91177745D01*
X185420000Y-90349605D01*
X184591861Y-91177745D01*
X183555000Y-91177745D01*
X183555000Y-89953223D01*
X183973035Y-89953223D01*
X184000222Y-90523454D01*
X184166136Y-90924005D01*
X184412255Y-90998139D01*
X185240395Y-90170000D01*
X185599605Y-90170000D01*
X186427745Y-90998139D01*
X186673864Y-90924005D01*
X186866965Y-90386777D01*
X186839778Y-89816546D01*
X186673864Y-89415995D01*
X186427745Y-89341861D01*
X185599605Y-90170000D01*
X185240395Y-90170000D01*
X184412255Y-89341861D01*
X184166136Y-89415995D01*
X183973035Y-89953223D01*
X183555000Y-89953223D01*
X183555000Y-89162255D01*
X184591861Y-89162255D01*
X185420000Y-89990395D01*
X186248139Y-89162255D01*
X186174005Y-88916136D01*
X185636777Y-88723035D01*
X185066546Y-88750222D01*
X184665995Y-88916136D01*
X184591861Y-89162255D01*
X183555000Y-89162255D01*
X183555000Y-82287745D01*
X184591861Y-82287745D01*
X184665995Y-82533864D01*
X185203223Y-82726965D01*
X185773454Y-82699778D01*
X186174005Y-82533864D01*
X186248139Y-82287745D01*
X185420000Y-81459605D01*
X184591861Y-82287745D01*
X183555000Y-82287745D01*
X183555000Y-81280000D01*
X183511881Y-81063223D01*
X183973035Y-81063223D01*
X184000222Y-81633454D01*
X184166136Y-82034005D01*
X184412255Y-82108139D01*
X185240395Y-81280000D01*
X185599605Y-81280000D01*
X186427745Y-82108139D01*
X186673864Y-82034005D01*
X186866965Y-81496777D01*
X186839778Y-80926546D01*
X186673864Y-80525995D01*
X186427745Y-80451861D01*
X185599605Y-81280000D01*
X185240395Y-81280000D01*
X184412255Y-80451861D01*
X184166136Y-80525995D01*
X183973035Y-81063223D01*
X183511881Y-81063223D01*
X183484694Y-80926546D01*
X183430543Y-80654312D01*
X183367440Y-80559872D01*
X183367440Y-80480000D01*
X183328351Y-80272255D01*
X184591861Y-80272255D01*
X185420000Y-81100395D01*
X186248139Y-80272255D01*
X186174005Y-80026136D01*
X185636777Y-79833035D01*
X185066546Y-79860222D01*
X184665995Y-80026136D01*
X184591861Y-80272255D01*
X183328351Y-80272255D01*
X183323162Y-80244683D01*
X183184090Y-80028559D01*
X182971890Y-79883569D01*
X182801253Y-79849014D01*
X181806120Y-78853880D01*
X181740449Y-78810000D01*
X193852560Y-78810000D01*
X193852560Y-81210000D01*
X193896838Y-81445317D01*
X194035910Y-81661441D01*
X194248110Y-81806431D01*
X194500000Y-81857440D01*
X196900000Y-81857440D01*
X197135317Y-81813162D01*
X197351441Y-81674090D01*
X197496431Y-81461890D01*
X197527761Y-81307175D01*
X202082430Y-81307175D01*
X202205565Y-81594788D01*
X202887734Y-81854707D01*
X203617443Y-81833786D01*
X204194435Y-81594788D01*
X204317570Y-81307175D01*
X203200000Y-80189605D01*
X202082430Y-81307175D01*
X197527761Y-81307175D01*
X197547440Y-81210000D01*
X197547440Y-79697734D01*
X201355293Y-79697734D01*
X201376214Y-80427443D01*
X201615212Y-81004435D01*
X201902825Y-81127570D01*
X203020395Y-80010000D01*
X203379605Y-80010000D01*
X204497175Y-81127570D01*
X204784788Y-81004435D01*
X204904999Y-80688936D01*
X204904999Y-98355780D01*
X204784788Y-98065565D01*
X204497175Y-97942430D01*
X203379605Y-99060000D01*
X204497175Y-100177570D01*
X204784788Y-100054435D01*
X204904999Y-99738936D01*
X204904999Y-111829209D01*
X204407104Y-112327104D01*
X203998487Y-112938641D01*
X203855000Y-113660000D01*
X203998487Y-114381359D01*
X204407104Y-114992896D01*
X205018641Y-115401513D01*
X205740000Y-115545000D01*
X206461359Y-115401513D01*
X207072896Y-114992896D01*
X208122895Y-113942897D01*
X208531512Y-113331359D01*
X208674999Y-112610001D01*
X208674999Y-74516000D01*
X214015000Y-74516000D01*
X214015000Y-83449623D01*
X214158487Y-84170981D01*
X214567104Y-84782519D01*
X215178642Y-85191136D01*
X215900000Y-85334623D01*
X216621358Y-85191136D01*
X217232896Y-84782519D01*
X217641513Y-84170981D01*
X217785000Y-83449623D01*
X217785000Y-74516000D01*
X217747440Y-74327173D01*
X217747440Y-73316000D01*
X217703162Y-73080683D01*
X217564090Y-72864559D01*
X217351890Y-72719569D01*
X217100000Y-72668560D01*
X216088827Y-72668560D01*
X215900000Y-72631000D01*
X215711173Y-72668560D01*
X214700000Y-72668560D01*
X214464683Y-72712838D01*
X214248559Y-72851910D01*
X214103569Y-73064110D01*
X214052560Y-73316000D01*
X214052560Y-74327173D01*
X214015000Y-74516000D01*
X208674999Y-74516000D01*
X208674999Y-65262793D01*
X209421792Y-64516000D01*
X214015000Y-64516000D01*
X214015000Y-69516000D01*
X214064781Y-69766265D01*
X214064682Y-69879403D01*
X214108268Y-69984889D01*
X214158487Y-70237358D01*
X214300249Y-70449520D01*
X214343455Y-70554086D01*
X214424092Y-70634864D01*
X214567104Y-70848896D01*
X214779268Y-70990660D01*
X214859199Y-71070730D01*
X214964607Y-71114499D01*
X215178642Y-71257513D01*
X215428907Y-71307294D01*
X215533395Y-71350681D01*
X215647530Y-71350781D01*
X215900000Y-71401000D01*
X216150265Y-71351219D01*
X216263403Y-71351318D01*
X216368889Y-71307732D01*
X216621358Y-71257513D01*
X216833520Y-71115751D01*
X216938086Y-71072545D01*
X217018864Y-70991908D01*
X217232896Y-70848896D01*
X217374660Y-70636732D01*
X217454730Y-70556801D01*
X217498499Y-70451393D01*
X217641513Y-70237358D01*
X217691294Y-69987093D01*
X217734681Y-69882605D01*
X217734781Y-69768470D01*
X217785000Y-69516000D01*
X217785000Y-64516000D01*
X217735219Y-64265735D01*
X217735318Y-64152597D01*
X217691732Y-64047111D01*
X217641513Y-63794642D01*
X217499751Y-63582480D01*
X217456545Y-63477914D01*
X217375908Y-63397136D01*
X217232896Y-63183104D01*
X217020732Y-63041340D01*
X216940801Y-62961270D01*
X216835393Y-62917501D01*
X216621358Y-62774487D01*
X216371093Y-62724706D01*
X216266605Y-62681319D01*
X216152470Y-62681219D01*
X215900000Y-62631000D01*
X215649735Y-62680781D01*
X215536597Y-62680682D01*
X215431111Y-62724268D01*
X215178642Y-62774487D01*
X214966480Y-62916249D01*
X214861914Y-62959455D01*
X214781136Y-63040092D01*
X214567104Y-63183104D01*
X214425340Y-63395268D01*
X214345270Y-63475199D01*
X214301501Y-63580607D01*
X214158487Y-63794642D01*
X214108706Y-64044907D01*
X214065319Y-64149395D01*
X214065219Y-64263530D01*
X214015000Y-64516000D01*
X209421792Y-64516000D01*
X212536792Y-61401000D01*
X215900000Y-61401000D01*
X216150265Y-61351219D01*
X216263403Y-61351318D01*
X216368889Y-61307732D01*
X216621358Y-61257513D01*
X216833520Y-61115751D01*
X216938086Y-61072545D01*
X217018864Y-60991908D01*
X217232896Y-60848896D01*
X217374660Y-60636732D01*
X217454730Y-60556801D01*
X217498499Y-60451393D01*
X217641513Y-60237358D01*
X217691294Y-59987093D01*
X217734681Y-59882605D01*
X217734781Y-59768470D01*
X217785000Y-59516000D01*
X217735219Y-59265735D01*
X217735318Y-59152597D01*
X217691732Y-59047111D01*
X217641513Y-58794642D01*
X217499751Y-58582480D01*
X217456545Y-58477914D01*
X217375908Y-58397136D01*
X217232896Y-58183104D01*
X217020732Y-58041340D01*
X216940801Y-57961270D01*
X216835393Y-57917501D01*
X216621358Y-57774487D01*
X216371093Y-57724706D01*
X216266605Y-57681319D01*
X216152470Y-57681219D01*
X215900000Y-57631000D01*
X212238188Y-57631000D01*
X211836000Y-57551000D01*
X211114641Y-57694487D01*
X210503104Y-58103104D01*
X205457103Y-63149105D01*
X205048486Y-63760642D01*
X204938854Y-64311800D01*
X204904999Y-64482001D01*
X204904999Y-79305780D01*
X204784788Y-79015565D01*
X204497175Y-78892430D01*
X203379605Y-80010000D01*
X203020395Y-80010000D01*
X201902825Y-78892430D01*
X201615212Y-79015565D01*
X201355293Y-79697734D01*
X197547440Y-79697734D01*
X197547440Y-78810000D01*
X197529156Y-78712825D01*
X202082430Y-78712825D01*
X203200000Y-79830395D01*
X204317570Y-78712825D01*
X204194435Y-78425212D01*
X203512266Y-78165293D01*
X202782557Y-78186214D01*
X202205565Y-78425212D01*
X202082430Y-78712825D01*
X197529156Y-78712825D01*
X197503162Y-78574683D01*
X197364090Y-78358559D01*
X197151890Y-78213569D01*
X196900000Y-78162560D01*
X194500000Y-78162560D01*
X194264683Y-78206838D01*
X194048559Y-78345910D01*
X193903569Y-78558110D01*
X193852560Y-78810000D01*
X181740449Y-78810000D01*
X181275688Y-78499457D01*
X180650000Y-78374999D01*
X180649995Y-78375000D01*
X177068459Y-78375000D01*
X176641117Y-77946912D01*
X175746476Y-77575424D01*
X174777774Y-77574579D01*
X173882486Y-77944504D01*
X173196912Y-78628883D01*
X172825424Y-79523524D01*
X172824579Y-80492226D01*
X173194504Y-81387514D01*
X173878883Y-82073088D01*
X174773524Y-82444576D01*
X175742226Y-82445421D01*
X176637514Y-82075496D01*
X177068762Y-81645000D01*
X179972760Y-81645000D01*
X180285000Y-81957239D01*
X180285000Y-97425000D01*
X175260000Y-97425000D01*
X174634313Y-97549457D01*
X174103880Y-97903880D01*
X173749457Y-98434313D01*
X173625000Y-99060000D01*
X173749457Y-99685687D01*
X174103880Y-100216120D01*
X174634313Y-100570543D01*
X175260000Y-100695000D01*
X181242760Y-100695000D01*
X184975000Y-104427239D01*
X184975000Y-118110000D01*
X185067943Y-118577255D01*
X181440197Y-122205001D01*
X173960005Y-122205001D01*
X173997700Y-122096140D01*
X173967846Y-121593778D01*
X173833034Y-121268313D01*
X173604506Y-121215099D01*
X172899605Y-121920000D01*
X172913748Y-121934143D01*
X172734143Y-122113748D01*
X172720000Y-122099605D01*
X172705858Y-122113748D01*
X172526253Y-121934143D01*
X172540395Y-121920000D01*
X171835494Y-121215099D01*
X171606966Y-121268313D01*
X171442300Y-121743860D01*
X171469704Y-122205001D01*
X168891379Y-122205001D01*
X168904780Y-122172728D01*
X168905219Y-121669480D01*
X168713040Y-121204371D01*
X168544458Y-121035494D01*
X172015099Y-121035494D01*
X172720000Y-121740395D01*
X173424901Y-121035494D01*
X173371687Y-120806966D01*
X172896140Y-120642300D01*
X172393778Y-120672154D01*
X172068313Y-120806966D01*
X172015099Y-121035494D01*
X168544458Y-121035494D01*
X168357501Y-120848210D01*
X167892728Y-120655220D01*
X167485022Y-120654864D01*
X166460678Y-119630520D01*
X168914781Y-119630520D01*
X169106960Y-120095629D01*
X169462499Y-120451790D01*
X169927272Y-120644780D01*
X170430520Y-120645219D01*
X170895629Y-120453040D01*
X171251790Y-120097501D01*
X171444780Y-119632728D01*
X171445219Y-119129480D01*
X171440371Y-119117745D01*
X180781861Y-119117745D01*
X180855995Y-119363864D01*
X181393223Y-119556965D01*
X181963454Y-119529778D01*
X182364005Y-119363864D01*
X182438139Y-119117745D01*
X181610000Y-118289605D01*
X180781861Y-119117745D01*
X171440371Y-119117745D01*
X171253040Y-118664371D01*
X171102750Y-118513819D01*
X171723346Y-117893223D01*
X180163035Y-117893223D01*
X180190222Y-118463454D01*
X180356136Y-118864005D01*
X180602255Y-118938139D01*
X181430395Y-118110000D01*
X181789605Y-118110000D01*
X182617745Y-118938139D01*
X182863864Y-118864005D01*
X183056965Y-118326777D01*
X183029778Y-117756546D01*
X182863864Y-117355995D01*
X182617745Y-117281861D01*
X181789605Y-118110000D01*
X181430395Y-118110000D01*
X180602255Y-117281861D01*
X180356136Y-117355995D01*
X180163035Y-117893223D01*
X171723346Y-117893223D01*
X172514314Y-117102255D01*
X180781861Y-117102255D01*
X181610000Y-117930395D01*
X182438139Y-117102255D01*
X182364005Y-116856136D01*
X181826777Y-116663035D01*
X181256546Y-116690222D01*
X180855995Y-116856136D01*
X180781861Y-117102255D01*
X172514314Y-117102255D01*
X173838312Y-115778257D01*
X173906120Y-116119151D01*
X174217189Y-116584698D01*
X174682736Y-116895767D01*
X175231887Y-117005000D01*
X175288113Y-117005000D01*
X175837264Y-116895767D01*
X176302811Y-116584698D01*
X176613880Y-116119151D01*
X176723113Y-115570000D01*
X176711779Y-115513023D01*
X181417401Y-110807401D01*
X181510920Y-110667440D01*
X181680000Y-110667440D01*
X181915317Y-110623162D01*
X182131441Y-110484090D01*
X182135977Y-110477452D01*
X182663223Y-110666965D01*
X183233454Y-110639778D01*
X183634005Y-110473864D01*
X183708139Y-110227745D01*
X182880000Y-109399605D01*
X182865858Y-109413748D01*
X182686253Y-109234143D01*
X182700395Y-109220000D01*
X183059605Y-109220000D01*
X183887745Y-110048139D01*
X184133864Y-109974005D01*
X184326965Y-109436777D01*
X184299778Y-108866546D01*
X184133864Y-108465995D01*
X183887745Y-108391861D01*
X183059605Y-109220000D01*
X182700395Y-109220000D01*
X182686253Y-109205858D01*
X182865858Y-109026252D01*
X182880000Y-109040395D01*
X183708139Y-108212255D01*
X183634005Y-107966136D01*
X183096777Y-107773035D01*
X182526546Y-107800222D01*
X182135053Y-107962384D01*
X181931890Y-107823569D01*
X181680000Y-107772560D01*
X180080000Y-107772560D01*
X179844683Y-107816838D01*
X179830000Y-107826286D01*
X179830000Y-106680000D01*
X179772148Y-106389161D01*
X179607401Y-106142599D01*
X177036274Y-103571472D01*
X176965080Y-103464922D01*
X176683630Y-103183472D01*
X176694750Y-103156691D01*
X176695248Y-102585813D01*
X176477243Y-102058200D01*
X176073923Y-101654176D01*
X175546691Y-101435250D01*
X174975813Y-101434752D01*
X174448200Y-101652757D01*
X174044176Y-102056077D01*
X173825250Y-102583309D01*
X173824752Y-103154187D01*
X174042757Y-103681800D01*
X174446077Y-104085824D01*
X174973309Y-104304750D01*
X175544187Y-104305248D01*
X175573131Y-104293289D01*
X175854922Y-104575080D01*
X175961472Y-104646274D01*
X178310000Y-106994802D01*
X178310000Y-111128788D01*
X175898788Y-113540000D01*
X174241767Y-113540000D01*
X173950928Y-113597852D01*
X173704366Y-113762599D01*
X169642599Y-117824366D01*
X169477852Y-118070928D01*
X169422609Y-118348649D01*
X169108210Y-118662499D01*
X168915220Y-119127272D01*
X168914781Y-119630520D01*
X166460678Y-119630520D01*
X165885000Y-119054842D01*
X165885000Y-116798317D01*
X165911800Y-116787243D01*
X166315824Y-116383923D01*
X166534750Y-115856691D01*
X166535248Y-115285813D01*
X166317243Y-114758200D01*
X165913923Y-114354176D01*
X165386691Y-114135250D01*
X164815813Y-114134752D01*
X164288200Y-114352757D01*
X163884176Y-114756077D01*
X163665250Y-115283309D01*
X163664752Y-115854187D01*
X163882757Y-116381800D01*
X164286077Y-116785824D01*
X164315000Y-116797834D01*
X164315000Y-119380000D01*
X164374755Y-119680407D01*
X164544921Y-119935079D01*
X166375134Y-121765292D01*
X166374781Y-122170520D01*
X166389028Y-122205001D01*
X133439803Y-122205001D01*
X130953256Y-119718454D01*
X130974750Y-119666691D01*
X130974752Y-119664187D01*
X140804752Y-119664187D01*
X141022757Y-120191800D01*
X141426077Y-120595824D01*
X141953309Y-120814750D01*
X142524187Y-120815248D01*
X143051800Y-120597243D01*
X143455824Y-120193923D01*
X143674750Y-119666691D01*
X143674752Y-119664187D01*
X153504752Y-119664187D01*
X153722757Y-120191800D01*
X154126077Y-120595824D01*
X154653309Y-120814750D01*
X155224187Y-120815248D01*
X155751800Y-120597243D01*
X156155824Y-120193923D01*
X156374750Y-119666691D01*
X156375248Y-119095813D01*
X156157243Y-118568200D01*
X155753923Y-118164176D01*
X155226691Y-117945250D01*
X154655813Y-117944752D01*
X154128200Y-118162757D01*
X153724176Y-118566077D01*
X153505250Y-119093309D01*
X153504752Y-119664187D01*
X143674752Y-119664187D01*
X143675248Y-119095813D01*
X143457243Y-118568200D01*
X143053923Y-118164176D01*
X142526691Y-117945250D01*
X141955813Y-117944752D01*
X141428200Y-118162757D01*
X141024176Y-118566077D01*
X140805250Y-119093309D01*
X140804752Y-119664187D01*
X130974752Y-119664187D01*
X130975248Y-119095813D01*
X130757243Y-118568200D01*
X130353923Y-118164176D01*
X129826691Y-117945250D01*
X129255813Y-117944752D01*
X128728200Y-118162757D01*
X128324176Y-118566077D01*
X128105250Y-119093309D01*
X128104752Y-119664187D01*
X118274752Y-119664187D01*
X118275248Y-119095813D01*
X118057243Y-118568200D01*
X117653923Y-118164176D01*
X117126691Y-117945250D01*
X116555813Y-117944752D01*
X116028200Y-118162757D01*
X115624176Y-118566077D01*
X115405250Y-119093309D01*
X115404752Y-119664187D01*
X108871710Y-119664187D01*
X109202896Y-119442896D01*
X109611513Y-118831358D01*
X109755000Y-118110000D01*
X109755000Y-113500000D01*
X119742560Y-113500000D01*
X119742560Y-115100000D01*
X119786838Y-115335317D01*
X119925910Y-115551441D01*
X120138110Y-115696431D01*
X120390000Y-115747440D01*
X121990000Y-115747440D01*
X122225317Y-115703162D01*
X122441441Y-115564090D01*
X122445977Y-115557452D01*
X122973223Y-115746965D01*
X123543454Y-115719778D01*
X123944005Y-115553864D01*
X124018139Y-115307745D01*
X123190000Y-114479605D01*
X123175858Y-114493748D01*
X122996253Y-114314143D01*
X123010395Y-114300000D01*
X123369605Y-114300000D01*
X124197745Y-115128139D01*
X124443864Y-115054005D01*
X124636965Y-114516777D01*
X124609778Y-113946546D01*
X124443864Y-113545995D01*
X124197745Y-113471861D01*
X123369605Y-114300000D01*
X123010395Y-114300000D01*
X122996253Y-114285858D01*
X123175858Y-114106252D01*
X123190000Y-114120395D01*
X124018139Y-113292255D01*
X123990351Y-113200000D01*
X129062560Y-113200000D01*
X129062560Y-115400000D01*
X129106838Y-115635317D01*
X129245910Y-115851441D01*
X129458110Y-115996431D01*
X129710000Y-116047440D01*
X131910000Y-116047440D01*
X132145317Y-116003162D01*
X132361441Y-115864090D01*
X132506431Y-115651890D01*
X132557440Y-115400000D01*
X132557440Y-114300000D01*
X136661009Y-114300000D01*
X136793078Y-114963956D01*
X137169179Y-115526830D01*
X137732053Y-115902931D01*
X138396009Y-116035000D01*
X138463991Y-116035000D01*
X139127947Y-115902931D01*
X139690821Y-115526830D01*
X140066922Y-114963956D01*
X140198991Y-114300000D01*
X140066922Y-113636044D01*
X139976021Y-113500000D01*
X143872560Y-113500000D01*
X143872560Y-115100000D01*
X143916838Y-115335317D01*
X144055910Y-115551441D01*
X144268110Y-115696431D01*
X144520000Y-115747440D01*
X146120000Y-115747440D01*
X146355317Y-115703162D01*
X146571441Y-115564090D01*
X146575977Y-115557452D01*
X147103223Y-115746965D01*
X147673454Y-115719778D01*
X148074005Y-115553864D01*
X148148139Y-115307745D01*
X147320000Y-114479605D01*
X147305858Y-114493748D01*
X147126253Y-114314143D01*
X147140395Y-114300000D01*
X147499605Y-114300000D01*
X148327745Y-115128139D01*
X148573864Y-115054005D01*
X148766965Y-114516777D01*
X148739778Y-113946546D01*
X148573864Y-113545995D01*
X148327745Y-113471861D01*
X147499605Y-114300000D01*
X147140395Y-114300000D01*
X147126253Y-114285858D01*
X147305858Y-114106252D01*
X147320000Y-114120395D01*
X148148139Y-113292255D01*
X148074005Y-113046136D01*
X147536777Y-112853035D01*
X146966546Y-112880222D01*
X146575053Y-113042384D01*
X146371890Y-112903569D01*
X146120000Y-112852560D01*
X144520000Y-112852560D01*
X144284683Y-112896838D01*
X144068559Y-113035910D01*
X143923569Y-113248110D01*
X143872560Y-113500000D01*
X139976021Y-113500000D01*
X139690821Y-113073170D01*
X139127947Y-112697069D01*
X138463991Y-112565000D01*
X138396009Y-112565000D01*
X137732053Y-112697069D01*
X137169179Y-113073170D01*
X136793078Y-113636044D01*
X136661009Y-114300000D01*
X132557440Y-114300000D01*
X132557440Y-113200000D01*
X132513162Y-112964683D01*
X132374090Y-112748559D01*
X132161890Y-112603569D01*
X131910000Y-112552560D01*
X129710000Y-112552560D01*
X129474683Y-112596838D01*
X129258559Y-112735910D01*
X129113569Y-112948110D01*
X129062560Y-113200000D01*
X123990351Y-113200000D01*
X123944005Y-113046136D01*
X123406777Y-112853035D01*
X122836546Y-112880222D01*
X122445053Y-113042384D01*
X122241890Y-112903569D01*
X121990000Y-112852560D01*
X120390000Y-112852560D01*
X120154683Y-112896838D01*
X119938559Y-113035910D01*
X119793569Y-113248110D01*
X119742560Y-113500000D01*
X109755000Y-113500000D01*
X109755000Y-108420000D01*
X164192560Y-108420000D01*
X164192560Y-110020000D01*
X164236838Y-110255317D01*
X164375910Y-110471441D01*
X164588110Y-110616431D01*
X164840000Y-110667440D01*
X166440000Y-110667440D01*
X166675317Y-110623162D01*
X166891441Y-110484090D01*
X166895977Y-110477452D01*
X167423223Y-110666965D01*
X167993454Y-110639778D01*
X168394005Y-110473864D01*
X168468139Y-110227745D01*
X167640000Y-109399605D01*
X167625858Y-109413748D01*
X167446253Y-109234143D01*
X167460395Y-109220000D01*
X167819605Y-109220000D01*
X168647745Y-110048139D01*
X168893864Y-109974005D01*
X169086965Y-109436777D01*
X169059778Y-108866546D01*
X168893864Y-108465995D01*
X168741165Y-108420000D01*
X171812560Y-108420000D01*
X171812560Y-110020000D01*
X171856838Y-110255317D01*
X171995910Y-110471441D01*
X172208110Y-110616431D01*
X172460000Y-110667440D01*
X174060000Y-110667440D01*
X174295317Y-110623162D01*
X174511441Y-110484090D01*
X174515977Y-110477452D01*
X175043223Y-110666965D01*
X175613454Y-110639778D01*
X176014005Y-110473864D01*
X176088139Y-110227745D01*
X175260000Y-109399605D01*
X175245858Y-109413748D01*
X175066253Y-109234143D01*
X175080395Y-109220000D01*
X175439605Y-109220000D01*
X176267745Y-110048139D01*
X176513864Y-109974005D01*
X176706965Y-109436777D01*
X176679778Y-108866546D01*
X176513864Y-108465995D01*
X176267745Y-108391861D01*
X175439605Y-109220000D01*
X175080395Y-109220000D01*
X175066253Y-109205858D01*
X175245858Y-109026252D01*
X175260000Y-109040395D01*
X176088139Y-108212255D01*
X176014005Y-107966136D01*
X175476777Y-107773035D01*
X174906546Y-107800222D01*
X174515053Y-107962384D01*
X174311890Y-107823569D01*
X174060000Y-107772560D01*
X172460000Y-107772560D01*
X172224683Y-107816838D01*
X172008559Y-107955910D01*
X171863569Y-108168110D01*
X171812560Y-108420000D01*
X168741165Y-108420000D01*
X168647745Y-108391861D01*
X167819605Y-109220000D01*
X167460395Y-109220000D01*
X167446253Y-109205858D01*
X167625858Y-109026252D01*
X167640000Y-109040395D01*
X168468139Y-108212255D01*
X168394005Y-107966136D01*
X167856777Y-107773035D01*
X167286546Y-107800222D01*
X166895053Y-107962384D01*
X166691890Y-107823569D01*
X166440000Y-107772560D01*
X164840000Y-107772560D01*
X164604683Y-107816838D01*
X164388559Y-107955910D01*
X164243569Y-108168110D01*
X164192560Y-108420000D01*
X109755000Y-108420000D01*
X109755000Y-103750000D01*
X109611513Y-103028642D01*
X109555461Y-102944754D01*
X109202897Y-102417104D01*
X107197585Y-100411793D01*
X107434005Y-100313864D01*
X107508139Y-100067745D01*
X106680000Y-99239605D01*
X106665858Y-99253748D01*
X106486252Y-99074142D01*
X106500395Y-99060000D01*
X106859605Y-99060000D01*
X107687745Y-99888139D01*
X107933864Y-99814005D01*
X108126965Y-99276777D01*
X108099778Y-98706546D01*
X107933864Y-98305995D01*
X107687745Y-98231861D01*
X106859605Y-99060000D01*
X106500395Y-99060000D01*
X105672255Y-98231861D01*
X105426136Y-98305995D01*
X105337733Y-98551941D01*
X105065000Y-98279208D01*
X105065000Y-98052255D01*
X105851861Y-98052255D01*
X106680000Y-98880395D01*
X107508139Y-98052255D01*
X107434005Y-97806136D01*
X106896777Y-97613035D01*
X106326546Y-97640222D01*
X105925995Y-97806136D01*
X105851861Y-98052255D01*
X105065000Y-98052255D01*
X105065000Y-91177745D01*
X105851861Y-91177745D01*
X105925995Y-91423864D01*
X106463223Y-91616965D01*
X107033454Y-91589778D01*
X107434005Y-91423864D01*
X107508139Y-91177745D01*
X106680000Y-90349605D01*
X105851861Y-91177745D01*
X105065000Y-91177745D01*
X105065000Y-89953223D01*
X105233035Y-89953223D01*
X105260222Y-90523454D01*
X105426136Y-90924005D01*
X105672255Y-90998139D01*
X106500395Y-90170000D01*
X106859605Y-90170000D01*
X107687745Y-90998139D01*
X107933864Y-90924005D01*
X108126965Y-90386777D01*
X108099778Y-89816546D01*
X107933864Y-89415995D01*
X107687745Y-89341861D01*
X106859605Y-90170000D01*
X106500395Y-90170000D01*
X105672255Y-89341861D01*
X105426136Y-89415995D01*
X105233035Y-89953223D01*
X105065000Y-89953223D01*
X105065000Y-89162255D01*
X105851861Y-89162255D01*
X106680000Y-89990395D01*
X107508139Y-89162255D01*
X107434005Y-88916136D01*
X106896777Y-88723035D01*
X106326546Y-88750222D01*
X105925995Y-88916136D01*
X105851861Y-89162255D01*
X105065000Y-89162255D01*
X105065000Y-82287745D01*
X105851861Y-82287745D01*
X105925995Y-82533864D01*
X106463223Y-82726965D01*
X107033454Y-82699778D01*
X107434005Y-82533864D01*
X107508139Y-82287745D01*
X106680000Y-81459605D01*
X105851861Y-82287745D01*
X105065000Y-82287745D01*
X105065000Y-81280000D01*
X105021881Y-81063223D01*
X105233035Y-81063223D01*
X105260222Y-81633454D01*
X105426136Y-82034005D01*
X105672255Y-82108139D01*
X106500395Y-81280000D01*
X106859605Y-81280000D01*
X107687745Y-82108139D01*
X107933864Y-82034005D01*
X108126965Y-81496777D01*
X108116630Y-81280000D01*
X124607000Y-81280000D01*
X124607000Y-95302000D01*
X124750487Y-96023359D01*
X125159104Y-96634896D01*
X130195000Y-101670793D01*
X130195000Y-104290000D01*
X130338487Y-105011358D01*
X130561845Y-105345637D01*
X130576838Y-105425317D01*
X130715910Y-105641441D01*
X130928110Y-105786431D01*
X131019570Y-105804952D01*
X131358642Y-106031513D01*
X132080000Y-106175000D01*
X132801358Y-106031513D01*
X133135637Y-105808155D01*
X133215317Y-105793162D01*
X133431441Y-105654090D01*
X133576431Y-105441890D01*
X133586766Y-105390854D01*
X133712424Y-105527966D01*
X134255258Y-105781046D01*
X134493000Y-105660997D01*
X134493000Y-104417000D01*
X134473000Y-104417000D01*
X134473000Y-104163000D01*
X134493000Y-104163000D01*
X134493000Y-102919003D01*
X134747000Y-102919003D01*
X134747000Y-104163000D01*
X134767000Y-104163000D01*
X134767000Y-104417000D01*
X134747000Y-104417000D01*
X134747000Y-105660997D01*
X134984742Y-105781046D01*
X135527576Y-105527966D01*
X135885499Y-105137418D01*
X136044519Y-105375409D01*
X136542509Y-105708155D01*
X137129928Y-105825000D01*
X137190072Y-105825000D01*
X137777491Y-105708155D01*
X138275481Y-105375409D01*
X138608227Y-104877419D01*
X138725072Y-104290000D01*
X138608227Y-103702581D01*
X138275481Y-103204591D01*
X137777491Y-102871845D01*
X137768216Y-102870000D01*
X163636887Y-102870000D01*
X163746120Y-103419151D01*
X164057189Y-103884698D01*
X164522736Y-104195767D01*
X165071887Y-104305000D01*
X165128113Y-104305000D01*
X165677264Y-104195767D01*
X166142811Y-103884698D01*
X166453880Y-103419151D01*
X166563113Y-102870000D01*
X166453880Y-102320849D01*
X166142811Y-101855302D01*
X165677264Y-101544233D01*
X165128113Y-101435000D01*
X165071887Y-101435000D01*
X164522736Y-101544233D01*
X164057189Y-101855302D01*
X163746120Y-102320849D01*
X163636887Y-102870000D01*
X137768216Y-102870000D01*
X137190072Y-102755000D01*
X137129928Y-102755000D01*
X136542509Y-102871845D01*
X136044519Y-103204591D01*
X135885499Y-103442582D01*
X135527576Y-103052034D01*
X134984742Y-102798954D01*
X134747000Y-102919003D01*
X134493000Y-102919003D01*
X134255258Y-102798954D01*
X133965000Y-102934278D01*
X133965000Y-100890000D01*
X133821513Y-100168642D01*
X133821513Y-100168641D01*
X133412896Y-99557103D01*
X132915793Y-99060000D01*
X163636887Y-99060000D01*
X163746120Y-99609151D01*
X164057189Y-100074698D01*
X164522736Y-100385767D01*
X165071887Y-100495000D01*
X165128113Y-100495000D01*
X165677264Y-100385767D01*
X166142811Y-100074698D01*
X166453880Y-99609151D01*
X166563113Y-99060000D01*
X166453880Y-98510849D01*
X166142811Y-98045302D01*
X165677264Y-97734233D01*
X165128113Y-97625000D01*
X165071887Y-97625000D01*
X164522736Y-97734233D01*
X164057189Y-98045302D01*
X163746120Y-98510849D01*
X163636887Y-99060000D01*
X132915793Y-99060000D01*
X128377000Y-94521208D01*
X128377000Y-87630000D01*
X132188275Y-87630000D01*
X132369822Y-88542700D01*
X132886825Y-89316450D01*
X133660575Y-89833453D01*
X134573275Y-90015000D01*
X134666725Y-90015000D01*
X135579425Y-89833453D01*
X136353175Y-89316450D01*
X136870178Y-88542700D01*
X137051725Y-87630000D01*
X136870178Y-86717300D01*
X136353175Y-85943550D01*
X135579425Y-85426547D01*
X134666725Y-85245000D01*
X134573275Y-85245000D01*
X133660575Y-85426547D01*
X132886825Y-85943550D01*
X132369822Y-86717300D01*
X132188275Y-87630000D01*
X128377000Y-87630000D01*
X128377000Y-82060792D01*
X131888896Y-78548896D01*
X132297513Y-77937358D01*
X132441000Y-77216000D01*
X132441000Y-61309039D01*
X149738096Y-61309039D01*
X149898959Y-61697423D01*
X150274866Y-62112389D01*
X150780959Y-62351914D01*
X151003000Y-62230629D01*
X151003000Y-61087000D01*
X151257000Y-61087000D01*
X151257000Y-62230629D01*
X151479041Y-62351914D01*
X151985134Y-62112389D01*
X152361041Y-61697423D01*
X152521904Y-61309039D01*
X152486275Y-61244187D01*
X159854752Y-61244187D01*
X160072757Y-61771800D01*
X160476077Y-62175824D01*
X161003309Y-62394750D01*
X161574187Y-62395248D01*
X162101800Y-62177243D01*
X162505824Y-61773923D01*
X162559862Y-61643785D01*
X162612757Y-61771800D01*
X163016077Y-62175824D01*
X163543309Y-62394750D01*
X164114187Y-62395248D01*
X164641800Y-62177243D01*
X165045824Y-61773923D01*
X165264750Y-61246691D01*
X165265248Y-60675813D01*
X165047243Y-60148200D01*
X164643923Y-59744176D01*
X164116691Y-59525250D01*
X163545813Y-59524752D01*
X163018200Y-59742757D01*
X162614176Y-60146077D01*
X162560138Y-60276215D01*
X162507243Y-60148200D01*
X162103923Y-59744176D01*
X161576691Y-59525250D01*
X161005813Y-59524752D01*
X160478200Y-59742757D01*
X160074176Y-60146077D01*
X159855250Y-60673309D01*
X159854752Y-61244187D01*
X152486275Y-61244187D01*
X152399915Y-61087000D01*
X151257000Y-61087000D01*
X151003000Y-61087000D01*
X149860085Y-61087000D01*
X149738096Y-61309039D01*
X132441000Y-61309039D01*
X132441000Y-60610961D01*
X149738096Y-60610961D01*
X149860085Y-60833000D01*
X151003000Y-60833000D01*
X151003000Y-59689371D01*
X151257000Y-59689371D01*
X151257000Y-60833000D01*
X152399915Y-60833000D01*
X152521904Y-60610961D01*
X152361041Y-60222577D01*
X151985134Y-59807611D01*
X151479041Y-59568086D01*
X151257000Y-59689371D01*
X151003000Y-59689371D01*
X150780959Y-59568086D01*
X150274866Y-59807611D01*
X149898959Y-60222577D01*
X149738096Y-60610961D01*
X132441000Y-60610961D01*
X132441000Y-58157745D01*
X150381861Y-58157745D01*
X150455995Y-58403864D01*
X150993223Y-58596965D01*
X151563454Y-58569778D01*
X151964005Y-58403864D01*
X152038139Y-58157745D01*
X151210000Y-57329605D01*
X150381861Y-58157745D01*
X132441000Y-58157745D01*
X132441000Y-56933223D01*
X149763035Y-56933223D01*
X149790222Y-57503454D01*
X149956136Y-57904005D01*
X150202255Y-57978139D01*
X151030395Y-57150000D01*
X151389605Y-57150000D01*
X152217745Y-57978139D01*
X152463864Y-57904005D01*
X152632735Y-57434187D01*
X154774752Y-57434187D01*
X154992757Y-57961800D01*
X155396077Y-58365824D01*
X155923309Y-58584750D01*
X156494187Y-58585248D01*
X157021800Y-58367243D01*
X157425824Y-57963923D01*
X157644750Y-57436691D01*
X157645248Y-56865813D01*
X157427243Y-56338200D01*
X157023923Y-55934176D01*
X156496691Y-55715250D01*
X155925813Y-55714752D01*
X155398200Y-55932757D01*
X154994176Y-56336077D01*
X154775250Y-56863309D01*
X154774752Y-57434187D01*
X152632735Y-57434187D01*
X152656965Y-57366777D01*
X152629778Y-56796546D01*
X152463864Y-56395995D01*
X152217745Y-56321861D01*
X151389605Y-57150000D01*
X151030395Y-57150000D01*
X150202255Y-56321861D01*
X149956136Y-56395995D01*
X149763035Y-56933223D01*
X132441000Y-56933223D01*
X132441000Y-56142255D01*
X150381861Y-56142255D01*
X151210000Y-56970395D01*
X152038139Y-56142255D01*
X151964005Y-55896136D01*
X151426777Y-55703035D01*
X150856546Y-55730222D01*
X150455995Y-55896136D01*
X150381861Y-56142255D01*
X132441000Y-56142255D01*
X132441000Y-53340000D01*
X136407009Y-53340000D01*
X136539078Y-54003956D01*
X136915179Y-54566830D01*
X137478053Y-54942931D01*
X138142009Y-55075000D01*
X138209991Y-55075000D01*
X138873947Y-54942931D01*
X139436821Y-54566830D01*
X139812922Y-54003956D01*
X139944991Y-53340000D01*
X139812922Y-52676044D01*
X139436821Y-52113170D01*
X138873947Y-51737069D01*
X138209991Y-51605000D01*
X138142009Y-51605000D01*
X137478053Y-51737069D01*
X136915179Y-52113170D01*
X136539078Y-52676044D01*
X136407009Y-53340000D01*
X132441000Y-53340000D01*
X132303440Y-52648439D01*
X132303440Y-52240000D01*
X132259162Y-52004683D01*
X132120090Y-51788559D01*
X131907890Y-51643569D01*
X131656000Y-51592560D01*
X131247561Y-51592560D01*
X130556000Y-51455000D01*
X129864439Y-51592560D01*
X129456000Y-51592560D01*
X129220683Y-51636838D01*
X129004559Y-51775910D01*
X128859569Y-51988110D01*
X128808560Y-52240000D01*
X128808560Y-52648439D01*
X128671000Y-53340000D01*
X128671000Y-76435208D01*
X125159104Y-79947104D01*
X124750487Y-80558641D01*
X124731457Y-80654312D01*
X124607000Y-81280000D01*
X108116630Y-81280000D01*
X108099778Y-80926546D01*
X107933864Y-80525995D01*
X107687745Y-80451861D01*
X106859605Y-81280000D01*
X106500395Y-81280000D01*
X105672255Y-80451861D01*
X105426136Y-80525995D01*
X105233035Y-81063223D01*
X105021881Y-81063223D01*
X104921513Y-80558642D01*
X104921513Y-80558641D01*
X104730156Y-80272255D01*
X105851861Y-80272255D01*
X106680000Y-81100395D01*
X107508139Y-80272255D01*
X107434005Y-80026136D01*
X106896777Y-79833035D01*
X106326546Y-79860222D01*
X105925995Y-80026136D01*
X105851861Y-80272255D01*
X104730156Y-80272255D01*
X104512896Y-79947104D01*
X103242896Y-78677104D01*
X102631359Y-78268487D01*
X101910000Y-78125000D01*
X98078895Y-78125000D01*
X97901117Y-77946912D01*
X97006476Y-77575424D01*
X96037774Y-77574579D01*
X95142486Y-77944504D01*
X94456912Y-78628883D01*
X94085424Y-79523524D01*
X94084579Y-80492226D01*
X93325000Y-80492226D01*
X93325000Y-77000792D01*
X106952896Y-63372897D01*
X107361512Y-62761359D01*
X107445793Y-62337648D01*
X107583309Y-62394750D01*
X108154187Y-62395248D01*
X108681800Y-62177243D01*
X109085824Y-61773923D01*
X109304750Y-61246691D01*
X109305248Y-60675813D01*
X109206772Y-60437482D01*
X109789739Y-60321523D01*
X110401276Y-59912906D01*
X111982907Y-58331276D01*
X112391523Y-57719738D01*
X112472988Y-57310185D01*
X112999928Y-57415000D01*
X113060072Y-57415000D01*
X113296980Y-57367876D01*
X113165197Y-57685244D01*
X113164803Y-58136775D01*
X113337233Y-58554086D01*
X113656235Y-58873645D01*
X114073244Y-59046803D01*
X114524775Y-59047197D01*
X114942086Y-58874767D01*
X115261645Y-58555765D01*
X115434803Y-58138756D01*
X115435197Y-57687225D01*
X115303264Y-57367925D01*
X115539928Y-57415000D01*
X115600072Y-57415000D01*
X115836980Y-57367876D01*
X115705197Y-57685244D01*
X115704803Y-58136775D01*
X115877233Y-58554086D01*
X116196235Y-58873645D01*
X116613244Y-59046803D01*
X117064775Y-59047197D01*
X117482086Y-58874767D01*
X117801645Y-58555765D01*
X117974803Y-58138756D01*
X117975197Y-57687225D01*
X117843264Y-57367925D01*
X118079928Y-57415000D01*
X118140072Y-57415000D01*
X118727491Y-57298155D01*
X119225481Y-56965409D01*
X119558227Y-56467419D01*
X119675072Y-55880000D01*
X119558227Y-55292581D01*
X119225481Y-54794591D01*
X118727491Y-54461845D01*
X118140072Y-54345000D01*
X118079928Y-54345000D01*
X117600000Y-54440464D01*
X117600000Y-52122934D01*
X117955481Y-51885409D01*
X118288227Y-51387419D01*
X118405072Y-50800000D01*
X118288227Y-50212581D01*
X117955481Y-49714591D01*
X117457491Y-49381845D01*
X116870072Y-49265000D01*
X116809928Y-49265000D01*
X116222509Y-49381845D01*
X115724519Y-49714591D01*
X115570000Y-49945845D01*
X115415481Y-49714591D01*
X114917491Y-49381845D01*
X114330072Y-49265000D01*
X114269928Y-49265000D01*
X113682509Y-49381845D01*
X113184519Y-49714591D01*
X113030000Y-49945845D01*
X112875481Y-49714591D01*
X112377491Y-49381845D01*
X111790072Y-49265000D01*
X111729928Y-49265000D01*
X111142509Y-49381845D01*
X110644519Y-49714591D01*
X110485499Y-49952582D01*
X110127576Y-49562034D01*
X109584742Y-49308954D01*
X109347000Y-49429003D01*
X109347000Y-50673000D01*
X109367000Y-50673000D01*
X109367000Y-50927000D01*
X109347000Y-50927000D01*
X109347000Y-52170997D01*
X109584742Y-52291046D01*
X110127576Y-52037966D01*
X110485499Y-51647418D01*
X110644519Y-51885409D01*
X111142509Y-52218155D01*
X111729928Y-52335000D01*
X111790072Y-52335000D01*
X112377491Y-52218155D01*
X112875481Y-51885409D01*
X113030000Y-51654155D01*
X113184519Y-51885409D01*
X113540000Y-52122934D01*
X113540000Y-54440464D01*
X113060072Y-54345000D01*
X112999928Y-54345000D01*
X112412509Y-54461845D01*
X112076122Y-54686611D01*
X111982906Y-54547104D01*
X111371368Y-54138487D01*
X110650010Y-53995000D01*
X109928652Y-54138487D01*
X109763690Y-54248711D01*
X109691513Y-53885850D01*
X109282897Y-53274312D01*
X108205687Y-52197103D01*
X107767343Y-51904210D01*
X107795481Y-51885409D01*
X107954501Y-51647418D01*
X108312424Y-52037966D01*
X108855258Y-52291046D01*
X109093000Y-52170997D01*
X109093000Y-50927000D01*
X109073000Y-50927000D01*
X109073000Y-50673000D01*
X109093000Y-50673000D01*
X109093000Y-49429003D01*
X108855258Y-49308954D01*
X108312424Y-49562034D01*
X107954501Y-49952582D01*
X107795481Y-49714591D01*
X107297491Y-49381845D01*
X106710072Y-49265000D01*
X106649928Y-49265000D01*
X106062509Y-49381845D01*
X105564519Y-49714591D01*
X105410000Y-49945845D01*
X105255481Y-49714591D01*
X104757491Y-49381845D01*
X104170072Y-49265000D01*
X104109928Y-49265000D01*
X103522509Y-49381845D01*
X103024519Y-49714591D01*
X102870000Y-49945845D01*
X102715481Y-49714591D01*
X102217491Y-49381845D01*
X101630072Y-49265000D01*
X101569928Y-49265000D01*
X100982509Y-49381845D01*
X100484519Y-49714591D01*
X100151773Y-50212581D01*
X100034928Y-50800000D01*
X100151773Y-51387419D01*
X100323882Y-51644999D01*
X93169999Y-51644999D01*
X91762936Y-50237936D01*
X91804742Y-50259046D01*
X92347576Y-50005966D01*
X92752240Y-49564417D01*
X92931036Y-49132740D01*
X92890947Y-49053750D01*
X145785000Y-49053750D01*
X145785000Y-49794310D01*
X145881673Y-50027699D01*
X146060302Y-50206327D01*
X146293691Y-50303000D01*
X147034250Y-50303000D01*
X147193000Y-50144250D01*
X147193000Y-48895000D01*
X145943750Y-48895000D01*
X145785000Y-49053750D01*
X92890947Y-49053750D01*
X92810378Y-48895000D01*
X91567000Y-48895000D01*
X91567000Y-48915000D01*
X91313000Y-48915000D01*
X91313000Y-48895000D01*
X91293000Y-48895000D01*
X91293000Y-48641000D01*
X91313000Y-48641000D01*
X91313000Y-47397003D01*
X91567000Y-47397003D01*
X91567000Y-48641000D01*
X92810378Y-48641000D01*
X92931036Y-48403260D01*
X92752240Y-47971583D01*
X92541552Y-47741690D01*
X145785000Y-47741690D01*
X145785000Y-48482250D01*
X145943750Y-48641000D01*
X147193000Y-48641000D01*
X147193000Y-47391750D01*
X147447000Y-47391750D01*
X147447000Y-48641000D01*
X147467000Y-48641000D01*
X147467000Y-48895000D01*
X147447000Y-48895000D01*
X147447000Y-50144250D01*
X147605750Y-50303000D01*
X148277156Y-50303000D01*
X148349457Y-50666480D01*
X148703880Y-51196912D01*
X151563087Y-54056118D01*
X151563089Y-54056121D01*
X151845766Y-54244999D01*
X152093521Y-54410544D01*
X152719209Y-54535001D01*
X159925515Y-54535001D01*
X159793569Y-54728110D01*
X159742560Y-54980000D01*
X159742560Y-56780000D01*
X159786838Y-57015317D01*
X159925910Y-57231441D01*
X160138110Y-57376431D01*
X160390000Y-57427440D01*
X162190000Y-57427440D01*
X162425317Y-57383162D01*
X162641441Y-57244090D01*
X162786431Y-57031890D01*
X162796766Y-56980854D01*
X162922424Y-57117966D01*
X163465258Y-57371046D01*
X163703000Y-57250997D01*
X163703000Y-56007000D01*
X163683000Y-56007000D01*
X163683000Y-55753000D01*
X163703000Y-55753000D01*
X163703000Y-55733000D01*
X163957000Y-55733000D01*
X163957000Y-55753000D01*
X163977000Y-55753000D01*
X163977000Y-56007000D01*
X163957000Y-56007000D01*
X163957000Y-57250997D01*
X164194742Y-57371046D01*
X164737576Y-57117966D01*
X165095499Y-56727418D01*
X165254519Y-56965409D01*
X165752509Y-57298155D01*
X166339928Y-57415000D01*
X166400072Y-57415000D01*
X166987491Y-57298155D01*
X167195000Y-57159502D01*
X167195000Y-63419995D01*
X167194999Y-63420000D01*
X167195000Y-63420005D01*
X167195000Y-74332760D01*
X163952653Y-77575107D01*
X163347774Y-77574579D01*
X162452486Y-77944504D01*
X161766912Y-78628883D01*
X161395424Y-79523524D01*
X161394579Y-80492226D01*
X161764504Y-81387514D01*
X162448883Y-82073088D01*
X163343524Y-82444576D01*
X164312226Y-82445421D01*
X165207514Y-82075496D01*
X165893088Y-81391117D01*
X166264576Y-80496476D01*
X166265108Y-79887132D01*
X170066120Y-76086120D01*
X170420543Y-75555688D01*
X170545001Y-74930000D01*
X170545000Y-74929995D01*
X170545000Y-63500005D01*
X170545001Y-63500000D01*
X170545000Y-63499995D01*
X170545000Y-57106048D01*
X170832509Y-57298155D01*
X171419928Y-57415000D01*
X171480072Y-57415000D01*
X172067491Y-57298155D01*
X172565481Y-56965409D01*
X172720000Y-56734155D01*
X172874519Y-56965409D01*
X173230000Y-57202934D01*
X173230000Y-64963198D01*
X172780146Y-65413052D01*
X172495225Y-65412803D01*
X172077914Y-65585233D01*
X171758355Y-65904235D01*
X171585197Y-66321244D01*
X171584803Y-66772775D01*
X171757233Y-67190086D01*
X172076235Y-67509645D01*
X172493244Y-67682803D01*
X172944775Y-67683197D01*
X173362086Y-67510767D01*
X173681645Y-67191765D01*
X173854803Y-66774756D01*
X173855053Y-66487749D01*
X174198791Y-66144011D01*
X174125197Y-66321244D01*
X174124803Y-66772775D01*
X174297233Y-67190086D01*
X174616235Y-67509645D01*
X175033244Y-67682803D01*
X175484775Y-67683197D01*
X175902086Y-67510767D01*
X176221645Y-67191765D01*
X176394803Y-66774756D01*
X176395197Y-66323225D01*
X176222767Y-65905914D01*
X176020000Y-65702793D01*
X176020000Y-58757059D01*
X176221645Y-58555765D01*
X176394803Y-58138756D01*
X176395197Y-57687225D01*
X176263264Y-57367925D01*
X176499928Y-57415000D01*
X176560072Y-57415000D01*
X176796980Y-57367876D01*
X176665197Y-57685244D01*
X176664803Y-58136775D01*
X176837233Y-58554086D01*
X177040000Y-58757207D01*
X177040000Y-65702941D01*
X176838355Y-65904235D01*
X176665197Y-66321244D01*
X176664803Y-66772775D01*
X176837233Y-67190086D01*
X177156235Y-67509645D01*
X177573244Y-67682803D01*
X178024775Y-67683197D01*
X178442086Y-67510767D01*
X178761645Y-67191765D01*
X178934803Y-66774756D01*
X178935197Y-66323225D01*
X178762767Y-65905914D01*
X178560000Y-65702793D01*
X178560000Y-58757059D01*
X178761645Y-58555765D01*
X178934803Y-58138756D01*
X178935197Y-57687225D01*
X178803264Y-57367925D01*
X179039928Y-57415000D01*
X179100072Y-57415000D01*
X179458835Y-57343637D01*
X180088000Y-57972802D01*
X180088000Y-65702941D01*
X179886355Y-65904235D01*
X179713197Y-66321244D01*
X179712803Y-66772775D01*
X179885233Y-67190086D01*
X180204235Y-67509645D01*
X180621244Y-67682803D01*
X181072775Y-67683197D01*
X181490086Y-67510767D01*
X181809645Y-67191765D01*
X181982803Y-66774756D01*
X181983197Y-66323225D01*
X181810767Y-65905914D01*
X181608000Y-65702793D01*
X181608000Y-63784187D01*
X184492752Y-63784187D01*
X184710757Y-64311800D01*
X185114077Y-64715824D01*
X185641309Y-64934750D01*
X186212187Y-64935248D01*
X186739800Y-64717243D01*
X187143824Y-64313923D01*
X187362750Y-63786691D01*
X187363248Y-63215813D01*
X187145243Y-62688200D01*
X186741923Y-62284176D01*
X186214691Y-62065250D01*
X185643813Y-62064752D01*
X185116200Y-62282757D01*
X184712176Y-62686077D01*
X184493250Y-63213309D01*
X184492752Y-63784187D01*
X181608000Y-63784187D01*
X181608000Y-59507745D01*
X185099861Y-59507745D01*
X185173995Y-59753864D01*
X185711223Y-59946965D01*
X186281454Y-59919778D01*
X186667191Y-59760000D01*
X193852560Y-59760000D01*
X193852560Y-62160000D01*
X193896838Y-62395317D01*
X194035910Y-62611441D01*
X194248110Y-62756431D01*
X194500000Y-62807440D01*
X196900000Y-62807440D01*
X197135317Y-62763162D01*
X197351441Y-62624090D01*
X197496431Y-62411890D01*
X197527761Y-62257175D01*
X202082430Y-62257175D01*
X202205565Y-62544788D01*
X202887734Y-62804707D01*
X203617443Y-62783786D01*
X204194435Y-62544788D01*
X204317570Y-62257175D01*
X203200000Y-61139605D01*
X202082430Y-62257175D01*
X197527761Y-62257175D01*
X197547440Y-62160000D01*
X197547440Y-60647734D01*
X201355293Y-60647734D01*
X201376214Y-61377443D01*
X201615212Y-61954435D01*
X201902825Y-62077570D01*
X203020395Y-60960000D01*
X203379605Y-60960000D01*
X204497175Y-62077570D01*
X204784788Y-61954435D01*
X205044707Y-61272266D01*
X205023786Y-60542557D01*
X204784788Y-59965565D01*
X204497175Y-59842430D01*
X203379605Y-60960000D01*
X203020395Y-60960000D01*
X201902825Y-59842430D01*
X201615212Y-59965565D01*
X201355293Y-60647734D01*
X197547440Y-60647734D01*
X197547440Y-59760000D01*
X197529156Y-59662825D01*
X202082430Y-59662825D01*
X203200000Y-60780395D01*
X204317570Y-59662825D01*
X204194435Y-59375212D01*
X203512266Y-59115293D01*
X202782557Y-59136214D01*
X202205565Y-59375212D01*
X202082430Y-59662825D01*
X197529156Y-59662825D01*
X197503162Y-59524683D01*
X197364090Y-59308559D01*
X197151890Y-59163569D01*
X196900000Y-59112560D01*
X194500000Y-59112560D01*
X194264683Y-59156838D01*
X194048559Y-59295910D01*
X193903569Y-59508110D01*
X193852560Y-59760000D01*
X186667191Y-59760000D01*
X186682005Y-59753864D01*
X186756139Y-59507745D01*
X185928000Y-58679605D01*
X185099861Y-59507745D01*
X181608000Y-59507745D01*
X181608000Y-58283223D01*
X184481035Y-58283223D01*
X184508222Y-58853454D01*
X184674136Y-59254005D01*
X184920255Y-59328139D01*
X185748395Y-58500000D01*
X186107605Y-58500000D01*
X186935745Y-59328139D01*
X187181864Y-59254005D01*
X187374965Y-58716777D01*
X187347778Y-58146546D01*
X187181864Y-57745995D01*
X186935745Y-57671861D01*
X186107605Y-58500000D01*
X185748395Y-58500000D01*
X184920255Y-57671861D01*
X184674136Y-57745995D01*
X184481035Y-58283223D01*
X181608000Y-58283223D01*
X181608000Y-57658000D01*
X181575031Y-57492255D01*
X185099861Y-57492255D01*
X185928000Y-58320395D01*
X186756139Y-57492255D01*
X186682005Y-57246136D01*
X186144777Y-57053035D01*
X185574546Y-57080222D01*
X185173995Y-57246136D01*
X185099861Y-57492255D01*
X181575031Y-57492255D01*
X181550148Y-57367161D01*
X181385401Y-57120599D01*
X180553731Y-56288929D01*
X180635072Y-55880000D01*
X180518227Y-55292581D01*
X180185481Y-54794591D01*
X179687491Y-54461845D01*
X179100072Y-54345000D01*
X179039928Y-54345000D01*
X178452509Y-54461845D01*
X177954519Y-54794591D01*
X177800000Y-55025845D01*
X177645481Y-54794591D01*
X177147491Y-54461845D01*
X176560072Y-54345000D01*
X176499928Y-54345000D01*
X175912509Y-54461845D01*
X175414519Y-54794591D01*
X175260000Y-55025845D01*
X175105481Y-54794591D01*
X174607491Y-54461845D01*
X174020072Y-54345000D01*
X173959928Y-54345000D01*
X173372509Y-54461845D01*
X172874519Y-54794591D01*
X172720000Y-55025845D01*
X172565481Y-54794591D01*
X172067491Y-54461845D01*
X171480072Y-54345000D01*
X171419928Y-54345000D01*
X170832509Y-54461845D01*
X170545000Y-54653952D01*
X170545000Y-54607208D01*
X170525466Y-54509003D01*
X170420543Y-53981520D01*
X170278581Y-53769059D01*
X170066120Y-53451088D01*
X170066117Y-53451086D01*
X168602596Y-51987564D01*
X168755481Y-51885409D01*
X168914501Y-51647418D01*
X169272424Y-52037966D01*
X169815258Y-52291046D01*
X170053000Y-52170997D01*
X170053000Y-50927000D01*
X170033000Y-50927000D01*
X170033000Y-50673000D01*
X170053000Y-50673000D01*
X170053000Y-49429003D01*
X170307000Y-49429003D01*
X170307000Y-50673000D01*
X170327000Y-50673000D01*
X170327000Y-50927000D01*
X170307000Y-50927000D01*
X170307000Y-52170997D01*
X170544742Y-52291046D01*
X171087576Y-52037966D01*
X171445499Y-51647418D01*
X171604519Y-51885409D01*
X172102509Y-52218155D01*
X172689928Y-52335000D01*
X172750072Y-52335000D01*
X173337491Y-52218155D01*
X173835481Y-51885409D01*
X173990000Y-51654155D01*
X174144519Y-51885409D01*
X174642509Y-52218155D01*
X175229928Y-52335000D01*
X175290072Y-52335000D01*
X175877491Y-52218155D01*
X176375481Y-51885409D01*
X176530000Y-51654155D01*
X176684519Y-51885409D01*
X177182509Y-52218155D01*
X177769928Y-52335000D01*
X177830072Y-52335000D01*
X178417491Y-52218155D01*
X178635741Y-52072325D01*
X221354587Y-52072325D01*
X221716916Y-52949229D01*
X222387242Y-53620726D01*
X223263513Y-53984585D01*
X224212325Y-53985413D01*
X225089229Y-53623084D01*
X225760726Y-52952758D01*
X226124585Y-52076487D01*
X226125413Y-51127675D01*
X225763084Y-50250771D01*
X225092758Y-49579274D01*
X224216487Y-49215415D01*
X223267675Y-49214587D01*
X222390771Y-49576916D01*
X221719274Y-50247242D01*
X221355415Y-51123513D01*
X221354587Y-52072325D01*
X178635741Y-52072325D01*
X178915481Y-51885409D01*
X179248227Y-51387419D01*
X179365072Y-50800000D01*
X179248227Y-50212581D01*
X178915481Y-49714591D01*
X178417491Y-49381845D01*
X177830072Y-49265000D01*
X177769928Y-49265000D01*
X177182509Y-49381845D01*
X176684519Y-49714591D01*
X176530000Y-49945845D01*
X176375481Y-49714591D01*
X175877491Y-49381845D01*
X175290072Y-49265000D01*
X175229928Y-49265000D01*
X174642509Y-49381845D01*
X174144519Y-49714591D01*
X173990000Y-49945845D01*
X173835481Y-49714591D01*
X173337491Y-49381845D01*
X172750072Y-49265000D01*
X172689928Y-49265000D01*
X172102509Y-49381845D01*
X171604519Y-49714591D01*
X171445499Y-49952582D01*
X171087576Y-49562034D01*
X170544742Y-49308954D01*
X170307000Y-49429003D01*
X170053000Y-49429003D01*
X169815258Y-49308954D01*
X169272424Y-49562034D01*
X168914501Y-49952582D01*
X168755481Y-49714591D01*
X168257491Y-49381845D01*
X167670072Y-49265000D01*
X167609928Y-49265000D01*
X167022509Y-49381845D01*
X166524519Y-49714591D01*
X166370000Y-49945845D01*
X166215481Y-49714591D01*
X165717491Y-49381845D01*
X165130072Y-49265000D01*
X165069928Y-49265000D01*
X164482509Y-49381845D01*
X163984519Y-49714591D01*
X163830000Y-49945845D01*
X163675481Y-49714591D01*
X163177491Y-49381845D01*
X162590072Y-49265000D01*
X162529928Y-49265000D01*
X161942509Y-49381845D01*
X161444519Y-49714591D01*
X161111773Y-50212581D01*
X160994928Y-50800000D01*
X161087423Y-51265001D01*
X153396448Y-51265001D01*
X152434448Y-50303000D01*
X152527002Y-50303000D01*
X152527002Y-50138998D01*
X152764742Y-50259046D01*
X153307576Y-50005966D01*
X153712240Y-49564417D01*
X153891036Y-49132740D01*
X153770378Y-48895000D01*
X152527000Y-48895000D01*
X152527000Y-48915000D01*
X152273000Y-48915000D01*
X152273000Y-48895000D01*
X152253000Y-48895000D01*
X152253000Y-48641000D01*
X152273000Y-48641000D01*
X152273000Y-47397003D01*
X152527000Y-47397003D01*
X152527000Y-48641000D01*
X153770378Y-48641000D01*
X153891036Y-48403260D01*
X153712240Y-47971583D01*
X153307576Y-47530034D01*
X152764742Y-47276954D01*
X152527000Y-47397003D01*
X152273000Y-47397003D01*
X152035258Y-47276954D01*
X151492424Y-47530034D01*
X151185329Y-47865120D01*
X151016120Y-47611880D01*
X150485687Y-47257457D01*
X149860000Y-47133000D01*
X149234313Y-47257457D01*
X148780128Y-47560933D01*
X148758327Y-47508301D01*
X148579698Y-47329673D01*
X148346309Y-47233000D01*
X147605750Y-47233000D01*
X147447000Y-47391750D01*
X147193000Y-47391750D01*
X147034250Y-47233000D01*
X146293691Y-47233000D01*
X146060302Y-47329673D01*
X145881673Y-47508301D01*
X145785000Y-47741690D01*
X92541552Y-47741690D01*
X92347576Y-47530034D01*
X91804742Y-47276954D01*
X91567000Y-47397003D01*
X91313000Y-47397003D01*
X91075258Y-47276954D01*
X90532424Y-47530034D01*
X90225329Y-47865120D01*
X90056120Y-47611880D01*
X89525687Y-47257457D01*
X88900000Y-47133000D01*
X88274313Y-47257457D01*
X87820128Y-47560933D01*
X87798327Y-47508301D01*
X87619698Y-47329673D01*
X87386309Y-47233000D01*
X86645750Y-47233000D01*
X86487000Y-47391750D01*
X86487000Y-48641000D01*
X86507000Y-48641000D01*
X86507000Y-48895000D01*
X86487000Y-48895000D01*
X86487000Y-50144250D01*
X86607480Y-50264730D01*
X81507103Y-55365107D01*
X81098486Y-55976644D01*
X80959293Y-56676417D01*
X80954999Y-56698003D01*
X80954999Y-77759999D01*
X81098486Y-78481358D01*
X81507103Y-79092895D01*
X82654799Y-80240591D01*
X82654579Y-80492226D01*
X83024504Y-81387514D01*
X83708883Y-82073088D01*
X84603524Y-82444576D01*
X85572226Y-82445421D01*
X86467514Y-82075496D01*
X87153088Y-81391117D01*
X87524576Y-80496476D01*
X87525421Y-79527774D01*
X87155496Y-78632486D01*
X86471117Y-77946912D01*
X85576476Y-77575424D01*
X85320993Y-77575201D01*
X84724999Y-76979207D01*
X84724999Y-61309039D01*
X88778096Y-61309039D01*
X88938959Y-61697423D01*
X89314866Y-62112389D01*
X89820959Y-62351914D01*
X90043000Y-62230629D01*
X90043000Y-61087000D01*
X90297000Y-61087000D01*
X90297000Y-62230629D01*
X90519041Y-62351914D01*
X91025134Y-62112389D01*
X91401041Y-61697423D01*
X91561904Y-61309039D01*
X91439915Y-61087000D01*
X90297000Y-61087000D01*
X90043000Y-61087000D01*
X88900085Y-61087000D01*
X88778096Y-61309039D01*
X84724999Y-61309039D01*
X84724999Y-60610961D01*
X88778096Y-60610961D01*
X88900085Y-60833000D01*
X90043000Y-60833000D01*
X90043000Y-59689371D01*
X90297000Y-59689371D01*
X90297000Y-60833000D01*
X91439915Y-60833000D01*
X91561904Y-60610961D01*
X91401041Y-60222577D01*
X91025134Y-59807611D01*
X90519041Y-59568086D01*
X90297000Y-59689371D01*
X90043000Y-59689371D01*
X89820959Y-59568086D01*
X89314866Y-59807611D01*
X88938959Y-60222577D01*
X88778096Y-60610961D01*
X84724999Y-60610961D01*
X84724999Y-58157745D01*
X89421861Y-58157745D01*
X89495995Y-58403864D01*
X90033223Y-58596965D01*
X90603454Y-58569778D01*
X91004005Y-58403864D01*
X91078139Y-58157745D01*
X90250000Y-57329605D01*
X89421861Y-58157745D01*
X84724999Y-58157745D01*
X84724999Y-57478795D01*
X85270571Y-56933223D01*
X88803035Y-56933223D01*
X88830222Y-57503454D01*
X88996136Y-57904005D01*
X89242255Y-57978139D01*
X90070395Y-57150000D01*
X90429605Y-57150000D01*
X91257745Y-57978139D01*
X91503864Y-57904005D01*
X91672735Y-57434187D01*
X93814752Y-57434187D01*
X94032757Y-57961800D01*
X94436077Y-58365824D01*
X94963309Y-58584750D01*
X95534187Y-58585248D01*
X96061800Y-58367243D01*
X96465824Y-57963923D01*
X96684750Y-57436691D01*
X96685248Y-56865813D01*
X96467243Y-56338200D01*
X96063923Y-55934176D01*
X95536691Y-55715250D01*
X94965813Y-55714752D01*
X94438200Y-55932757D01*
X94034176Y-56336077D01*
X93815250Y-56863309D01*
X93814752Y-57434187D01*
X91672735Y-57434187D01*
X91696965Y-57366777D01*
X91669778Y-56796546D01*
X91503864Y-56395995D01*
X91257745Y-56321861D01*
X90429605Y-57150000D01*
X90070395Y-57150000D01*
X89242255Y-56321861D01*
X88996136Y-56395995D01*
X88803035Y-56933223D01*
X85270571Y-56933223D01*
X86061539Y-56142255D01*
X89421861Y-56142255D01*
X90250000Y-56970395D01*
X91078139Y-56142255D01*
X91004005Y-55896136D01*
X90466777Y-55703035D01*
X89896546Y-55730222D01*
X89495995Y-55896136D01*
X89421861Y-56142255D01*
X86061539Y-56142255D01*
X89198605Y-53005189D01*
X91056311Y-54862895D01*
X91667849Y-55271512D01*
X92389207Y-55414999D01*
X98782560Y-55414999D01*
X98782560Y-56780000D01*
X98826838Y-57015317D01*
X98965910Y-57231441D01*
X99178110Y-57376431D01*
X99430000Y-57427440D01*
X101230000Y-57427440D01*
X101465317Y-57383162D01*
X101681441Y-57244090D01*
X101826431Y-57031890D01*
X101836766Y-56980854D01*
X101962424Y-57117966D01*
X102505258Y-57371046D01*
X102743000Y-57250997D01*
X102743000Y-56007000D01*
X102723000Y-56007000D01*
X102723000Y-55753000D01*
X102743000Y-55753000D01*
X102743000Y-55733000D01*
X102997000Y-55733000D01*
X102997000Y-55753000D01*
X103017000Y-55753000D01*
X103017000Y-56007000D01*
X102997000Y-56007000D01*
X102997000Y-57250997D01*
X103234742Y-57371046D01*
X103777576Y-57117966D01*
X104135499Y-56727418D01*
X104294519Y-56965409D01*
X104792509Y-57298155D01*
X105379928Y-57415000D01*
X105419206Y-57415000D01*
X104287103Y-58547103D01*
X103878486Y-59158640D01*
X103848665Y-59308559D01*
X103749041Y-59809407D01*
X103683923Y-59744176D01*
X103156691Y-59525250D01*
X102585813Y-59524752D01*
X102058200Y-59742757D01*
X101654176Y-60146077D01*
X101600138Y-60276215D01*
X101547243Y-60148200D01*
X101143923Y-59744176D01*
X100616691Y-59525250D01*
X100045813Y-59524752D01*
X99518200Y-59742757D01*
X99114176Y-60146077D01*
X98895250Y-60673309D01*
X98894752Y-61244187D01*
X99112757Y-61771800D01*
X99516077Y-62175824D01*
X100043309Y-62394750D01*
X100614187Y-62395248D01*
X101141800Y-62177243D01*
X101545824Y-61773923D01*
X101599862Y-61643785D01*
X101652757Y-61771800D01*
X102056077Y-62175824D01*
X102583309Y-62394750D01*
X102599443Y-62394764D01*
X90167377Y-74826831D01*
X90107104Y-74867104D01*
X89698487Y-75478642D01*
X89555000Y-76200000D01*
X89555000Y-85579207D01*
X80209209Y-94924999D01*
X77490001Y-94924999D01*
X76768643Y-95068486D01*
X76157105Y-95477103D01*
X73851104Y-97783104D01*
X73442487Y-98394641D01*
X73299000Y-99116000D01*
X68135000Y-99116000D01*
X68135000Y-52072325D01*
X68494587Y-52072325D01*
X68856916Y-52949229D01*
X69527242Y-53620726D01*
X70403513Y-53984585D01*
X71352325Y-53985413D01*
X72229229Y-53623084D01*
X72900726Y-52952758D01*
X73264585Y-52076487D01*
X73265413Y-51127675D01*
X72903084Y-50250771D01*
X72232758Y-49579274D01*
X71356487Y-49215415D01*
X70407675Y-49214587D01*
X69530771Y-49576916D01*
X68859274Y-50247242D01*
X68495415Y-51123513D01*
X68494587Y-52072325D01*
X68135000Y-52072325D01*
X68135000Y-49053750D01*
X84825000Y-49053750D01*
X84825000Y-49794310D01*
X84921673Y-50027699D01*
X85100302Y-50206327D01*
X85333691Y-50303000D01*
X86074250Y-50303000D01*
X86233000Y-50144250D01*
X86233000Y-48895000D01*
X84983750Y-48895000D01*
X84825000Y-49053750D01*
X68135000Y-49053750D01*
X68135000Y-47741690D01*
X84825000Y-47741690D01*
X84825000Y-48482250D01*
X84983750Y-48641000D01*
X86233000Y-48641000D01*
X86233000Y-47391750D01*
X86074250Y-47233000D01*
X85333691Y-47233000D01*
X85100302Y-47329673D01*
X84921673Y-47508301D01*
X84825000Y-47741690D01*
X68135000Y-47741690D01*
X68135000Y-46875000D01*
X226485000Y-46875000D01*
X226485000Y-145225000D01*
X226485000Y-145225000D01*
G37*
X226485000Y-145225000D02*
X68135000Y-145225000D01*
X68135000Y-140972325D01*
X68494587Y-140972325D01*
X68856916Y-141849229D01*
X69527242Y-142520726D01*
X70403513Y-142884585D01*
X71352325Y-142885413D01*
X72229229Y-142523084D01*
X72900726Y-141852758D01*
X73264585Y-140976487D01*
X73264588Y-140972325D01*
X221354587Y-140972325D01*
X221716916Y-141849229D01*
X222387242Y-142520726D01*
X223263513Y-142884585D01*
X224212325Y-142885413D01*
X225089229Y-142523084D01*
X225760726Y-141852758D01*
X226124585Y-140976487D01*
X226125413Y-140027675D01*
X225763084Y-139150771D01*
X225092758Y-138479274D01*
X224216487Y-138115415D01*
X223267675Y-138114587D01*
X222390771Y-138476916D01*
X221719274Y-139147242D01*
X221355415Y-140023513D01*
X221354587Y-140972325D01*
X73264588Y-140972325D01*
X73265413Y-140027675D01*
X72903084Y-139150771D01*
X72232758Y-138479274D01*
X71356487Y-138115415D01*
X70407675Y-138114587D01*
X69530771Y-138476916D01*
X68859274Y-139147242D01*
X68495415Y-140023513D01*
X68494587Y-140972325D01*
X68135000Y-140972325D01*
X68135000Y-135325000D01*
X77752143Y-135325000D01*
X77752143Y-139145000D01*
X84807857Y-139145000D01*
X84807857Y-137445750D01*
X112765000Y-137445750D01*
X112765000Y-138186310D01*
X112861673Y-138419699D01*
X113040302Y-138598327D01*
X113273691Y-138695000D01*
X114014250Y-138695000D01*
X114173000Y-138536250D01*
X114173000Y-137287000D01*
X112923750Y-137287000D01*
X112765000Y-137445750D01*
X84807857Y-137445750D01*
X84807857Y-136133690D01*
X112765000Y-136133690D01*
X112765000Y-136874250D01*
X112923750Y-137033000D01*
X114173000Y-137033000D01*
X114173000Y-135783750D01*
X114427000Y-135783750D01*
X114427000Y-137033000D01*
X114447000Y-137033000D01*
X114447000Y-137287000D01*
X114427000Y-137287000D01*
X114427000Y-138536250D01*
X114585750Y-138695000D01*
X115326309Y-138695000D01*
X115559698Y-138598327D01*
X115738327Y-138419699D01*
X115794119Y-138285006D01*
X115969357Y-138460551D01*
X116533330Y-138694733D01*
X117143991Y-138695265D01*
X117708371Y-138462068D01*
X118140551Y-138030643D01*
X118374733Y-137466670D01*
X118374751Y-137445750D01*
X125465000Y-137445750D01*
X125465000Y-138186310D01*
X125561673Y-138419699D01*
X125740302Y-138598327D01*
X125973691Y-138695000D01*
X126714250Y-138695000D01*
X126873000Y-138536250D01*
X126873000Y-137287000D01*
X125623750Y-137287000D01*
X125465000Y-137445750D01*
X118374751Y-137445750D01*
X118375265Y-136856009D01*
X118142068Y-136291629D01*
X117984405Y-136133690D01*
X125465000Y-136133690D01*
X125465000Y-136874250D01*
X125623750Y-137033000D01*
X126873000Y-137033000D01*
X126873000Y-135783750D01*
X127127000Y-135783750D01*
X127127000Y-137033000D01*
X127147000Y-137033000D01*
X127147000Y-137287000D01*
X127127000Y-137287000D01*
X127127000Y-138536250D01*
X127285750Y-138695000D01*
X128026309Y-138695000D01*
X128259698Y-138598327D01*
X128438327Y-138419699D01*
X128494119Y-138285006D01*
X128669357Y-138460551D01*
X129233330Y-138694733D01*
X129843991Y-138695265D01*
X130408371Y-138462068D01*
X130840551Y-138030643D01*
X131074733Y-137466670D01*
X131074751Y-137445750D01*
X138165000Y-137445750D01*
X138165000Y-138186310D01*
X138261673Y-138419699D01*
X138440302Y-138598327D01*
X138673691Y-138695000D01*
X139414250Y-138695000D01*
X139573000Y-138536250D01*
X139573000Y-137287000D01*
X138323750Y-137287000D01*
X138165000Y-137445750D01*
X131074751Y-137445750D01*
X131075265Y-136856009D01*
X130842068Y-136291629D01*
X130684405Y-136133690D01*
X138165000Y-136133690D01*
X138165000Y-136874250D01*
X138323750Y-137033000D01*
X139573000Y-137033000D01*
X139573000Y-135783750D01*
X139827000Y-135783750D01*
X139827000Y-137033000D01*
X139847000Y-137033000D01*
X139847000Y-137287000D01*
X139827000Y-137287000D01*
X139827000Y-138536250D01*
X139985750Y-138695000D01*
X140726309Y-138695000D01*
X140959698Y-138598327D01*
X141138327Y-138419699D01*
X141194119Y-138285006D01*
X141369357Y-138460551D01*
X141933330Y-138694733D01*
X142543991Y-138695265D01*
X143108371Y-138462068D01*
X143540551Y-138030643D01*
X143774733Y-137466670D01*
X143774751Y-137445750D01*
X150865000Y-137445750D01*
X150865000Y-138186310D01*
X150961673Y-138419699D01*
X151140302Y-138598327D01*
X151373691Y-138695000D01*
X152114250Y-138695000D01*
X152273000Y-138536250D01*
X152273000Y-137287000D01*
X151023750Y-137287000D01*
X150865000Y-137445750D01*
X143774751Y-137445750D01*
X143775265Y-136856009D01*
X143542068Y-136291629D01*
X143384405Y-136133690D01*
X150865000Y-136133690D01*
X150865000Y-136874250D01*
X151023750Y-137033000D01*
X152273000Y-137033000D01*
X152273000Y-135783750D01*
X152527000Y-135783750D01*
X152527000Y-137033000D01*
X152547000Y-137033000D01*
X152547000Y-137287000D01*
X152527000Y-137287000D01*
X152527000Y-138536250D01*
X152685750Y-138695000D01*
X153426309Y-138695000D01*
X153659698Y-138598327D01*
X153838327Y-138419699D01*
X153894119Y-138285006D01*
X154069357Y-138460551D01*
X154633330Y-138694733D01*
X155243991Y-138695265D01*
X155808371Y-138462068D01*
X156240551Y-138030643D01*
X156474733Y-137466670D01*
X156475265Y-136856009D01*
X156242068Y-136291629D01*
X155810643Y-135859449D01*
X155246670Y-135625267D01*
X154636009Y-135624735D01*
X154071629Y-135857932D01*
X153894159Y-136035092D01*
X153838327Y-135900301D01*
X153659698Y-135721673D01*
X153426309Y-135625000D01*
X152685750Y-135625000D01*
X152527000Y-135783750D01*
X152273000Y-135783750D01*
X152114250Y-135625000D01*
X151373691Y-135625000D01*
X151140302Y-135721673D01*
X150961673Y-135900301D01*
X150865000Y-136133690D01*
X143384405Y-136133690D01*
X143110643Y-135859449D01*
X142546670Y-135625267D01*
X141936009Y-135624735D01*
X141371629Y-135857932D01*
X141194159Y-136035092D01*
X141138327Y-135900301D01*
X140959698Y-135721673D01*
X140726309Y-135625000D01*
X139985750Y-135625000D01*
X139827000Y-135783750D01*
X139573000Y-135783750D01*
X139414250Y-135625000D01*
X138673691Y-135625000D01*
X138440302Y-135721673D01*
X138261673Y-135900301D01*
X138165000Y-136133690D01*
X130684405Y-136133690D01*
X130410643Y-135859449D01*
X129846670Y-135625267D01*
X129236009Y-135624735D01*
X128671629Y-135857932D01*
X128494159Y-136035092D01*
X128438327Y-135900301D01*
X128259698Y-135721673D01*
X128026309Y-135625000D01*
X127285750Y-135625000D01*
X127127000Y-135783750D01*
X126873000Y-135783750D01*
X126714250Y-135625000D01*
X125973691Y-135625000D01*
X125740302Y-135721673D01*
X125561673Y-135900301D01*
X125465000Y-136133690D01*
X117984405Y-136133690D01*
X117710643Y-135859449D01*
X117146670Y-135625267D01*
X116536009Y-135624735D01*
X115971629Y-135857932D01*
X115794159Y-136035092D01*
X115738327Y-135900301D01*
X115559698Y-135721673D01*
X115326309Y-135625000D01*
X114585750Y-135625000D01*
X114427000Y-135783750D01*
X114173000Y-135783750D01*
X114014250Y-135625000D01*
X113273691Y-135625000D01*
X113040302Y-135721673D01*
X112861673Y-135900301D01*
X112765000Y-136133690D01*
X84807857Y-136133690D01*
X84807857Y-135325000D01*
X77752143Y-135325000D01*
X68135000Y-135325000D01*
X68135000Y-133301750D01*
X214065000Y-133301750D01*
X214065000Y-134342309D01*
X214161673Y-134575698D01*
X214340301Y-134754327D01*
X214573690Y-134851000D01*
X215614250Y-134851000D01*
X215773000Y-134692250D01*
X215773000Y-133143000D01*
X216027000Y-133143000D01*
X216027000Y-134692250D01*
X216185750Y-134851000D01*
X217226310Y-134851000D01*
X217459699Y-134754327D01*
X217638327Y-134575698D01*
X217735000Y-134342309D01*
X217735000Y-133301750D01*
X217576250Y-133143000D01*
X216027000Y-133143000D01*
X215773000Y-133143000D01*
X214223750Y-133143000D01*
X214065000Y-133301750D01*
X68135000Y-133301750D01*
X68135000Y-131689691D01*
X214065000Y-131689691D01*
X214065000Y-132730250D01*
X214223750Y-132889000D01*
X215773000Y-132889000D01*
X215773000Y-131339750D01*
X216027000Y-131339750D01*
X216027000Y-132889000D01*
X217576250Y-132889000D01*
X217735000Y-132730250D01*
X217735000Y-131689691D01*
X217638327Y-131456302D01*
X217459699Y-131277673D01*
X217226310Y-131181000D01*
X216185750Y-131181000D01*
X216027000Y-131339750D01*
X215773000Y-131339750D01*
X215614250Y-131181000D01*
X214573690Y-131181000D01*
X214340301Y-131277673D01*
X214161673Y-131456302D01*
X214065000Y-131689691D01*
X68135000Y-131689691D01*
X68135000Y-129511887D01*
X115405000Y-129511887D01*
X115405000Y-129568113D01*
X115514233Y-130117264D01*
X115825302Y-130582811D01*
X116290849Y-130893880D01*
X116840000Y-131003113D01*
X117389151Y-130893880D01*
X117854698Y-130582811D01*
X118165767Y-130117264D01*
X118275000Y-129568113D01*
X118275000Y-129511887D01*
X128105000Y-129511887D01*
X128105000Y-129568113D01*
X128214233Y-130117264D01*
X128525302Y-130582811D01*
X128990849Y-130893880D01*
X129540000Y-131003113D01*
X130089151Y-130893880D01*
X130554698Y-130582811D01*
X130865767Y-130117264D01*
X130975000Y-129568113D01*
X130975000Y-129511887D01*
X140805000Y-129511887D01*
X140805000Y-129568113D01*
X140914233Y-130117264D01*
X141225302Y-130582811D01*
X141690849Y-130893880D01*
X142240000Y-131003113D01*
X142789151Y-130893880D01*
X143254698Y-130582811D01*
X143565767Y-130117264D01*
X143675000Y-129568113D01*
X143675000Y-129511887D01*
X153505000Y-129511887D01*
X153505000Y-129568113D01*
X153614233Y-130117264D01*
X153925302Y-130582811D01*
X154390849Y-130893880D01*
X154940000Y-131003113D01*
X155489151Y-130893880D01*
X155954698Y-130582811D01*
X156265767Y-130117264D01*
X156375000Y-129568113D01*
X156375000Y-129511887D01*
X156265767Y-128962736D01*
X155954698Y-128497189D01*
X155778420Y-128379403D01*
X214064682Y-128379403D01*
X214343455Y-129054086D01*
X214859199Y-129570730D01*
X215533395Y-129850681D01*
X216263403Y-129851318D01*
X216938086Y-129572545D01*
X217454730Y-129056801D01*
X217734681Y-128382605D01*
X217735318Y-127652597D01*
X217456545Y-126977914D01*
X216940801Y-126461270D01*
X216266605Y-126181319D01*
X215536597Y-126180682D01*
X214861914Y-126459455D01*
X214345270Y-126975199D01*
X214065319Y-127649395D01*
X214064682Y-128379403D01*
X155778420Y-128379403D01*
X155489151Y-128186120D01*
X154940000Y-128076887D01*
X154390849Y-128186120D01*
X153925302Y-128497189D01*
X153614233Y-128962736D01*
X153505000Y-129511887D01*
X143675000Y-129511887D01*
X143565767Y-128962736D01*
X143254698Y-128497189D01*
X142789151Y-128186120D01*
X142240000Y-128076887D01*
X141690849Y-128186120D01*
X141225302Y-128497189D01*
X140914233Y-128962736D01*
X140805000Y-129511887D01*
X130975000Y-129511887D01*
X130865767Y-128962736D01*
X130554698Y-128497189D01*
X130089151Y-128186120D01*
X129540000Y-128076887D01*
X128990849Y-128186120D01*
X128525302Y-128497189D01*
X128214233Y-128962736D01*
X128105000Y-129511887D01*
X118275000Y-129511887D01*
X118165767Y-128962736D01*
X117854698Y-128497189D01*
X117389151Y-128186120D01*
X116840000Y-128076887D01*
X116290849Y-128186120D01*
X115825302Y-128497189D01*
X115514233Y-128962736D01*
X115405000Y-129511887D01*
X68135000Y-129511887D01*
X68135000Y-99116000D01*
X73299000Y-99116000D01*
X73355000Y-99397531D01*
X73355000Y-126210469D01*
X73299000Y-126492000D01*
X73442487Y-127213359D01*
X73851104Y-127824896D01*
X74462641Y-128233513D01*
X75184000Y-128377000D01*
X75905359Y-128233513D01*
X76516896Y-127824896D01*
X76572896Y-127768896D01*
X76752737Y-127499745D01*
X77855861Y-127499745D01*
X77929995Y-127745864D01*
X78467223Y-127938965D01*
X79037454Y-127911778D01*
X79438005Y-127745864D01*
X79512139Y-127499745D01*
X78684000Y-126671605D01*
X77855861Y-127499745D01*
X76752737Y-127499745D01*
X76981513Y-127157358D01*
X77125000Y-126436000D01*
X77125000Y-126275223D01*
X77237035Y-126275223D01*
X77264222Y-126845454D01*
X77430136Y-127246005D01*
X77676255Y-127320139D01*
X78504395Y-126492000D01*
X78863605Y-126492000D01*
X79691745Y-127320139D01*
X79937864Y-127246005D01*
X80130965Y-126708777D01*
X80103778Y-126138546D01*
X79937864Y-125737995D01*
X79691745Y-125663861D01*
X78863605Y-126492000D01*
X78504395Y-126492000D01*
X77676255Y-125663861D01*
X77430136Y-125737995D01*
X77237035Y-126275223D01*
X77125000Y-126275223D01*
X77125000Y-125484255D01*
X77855861Y-125484255D01*
X78684000Y-126312395D01*
X79512139Y-125484255D01*
X79438005Y-125238136D01*
X78900777Y-125045035D01*
X78330546Y-125072222D01*
X77929995Y-125238136D01*
X77855861Y-125484255D01*
X77125000Y-125484255D01*
X77125000Y-124460000D01*
X193055000Y-124460000D01*
X193198487Y-125181359D01*
X193607104Y-125792896D01*
X194218641Y-126201513D01*
X194940000Y-126345000D01*
X195661359Y-126201513D01*
X196272896Y-125792896D01*
X196417089Y-125648703D01*
X204730902Y-125648703D01*
X204835687Y-125920745D01*
X205463526Y-126155619D01*
X206133456Y-126132349D01*
X206644313Y-125920745D01*
X206749098Y-125648703D01*
X205740000Y-124639605D01*
X204730902Y-125648703D01*
X196417089Y-125648703D01*
X198768792Y-123297000D01*
X204476884Y-123297000D01*
X204437138Y-123336746D01*
X204551295Y-123450903D01*
X204279255Y-123555687D01*
X204044381Y-124183526D01*
X204067651Y-124853456D01*
X204279255Y-125364313D01*
X204551297Y-125469098D01*
X205560395Y-124460000D01*
X205546253Y-124445858D01*
X205725858Y-124266253D01*
X205740000Y-124280395D01*
X205754143Y-124266253D01*
X205933748Y-124445858D01*
X205919605Y-124460000D01*
X206928703Y-125469098D01*
X207200745Y-125364313D01*
X207435619Y-124736474D01*
X207412349Y-124066544D01*
X207200745Y-123555687D01*
X206928705Y-123450903D01*
X207000205Y-123379403D01*
X214064682Y-123379403D01*
X214343455Y-124054086D01*
X214859199Y-124570730D01*
X215533395Y-124850681D01*
X216263403Y-124851318D01*
X216938086Y-124572545D01*
X217454730Y-124056801D01*
X217734681Y-123382605D01*
X217735318Y-122652597D01*
X217456545Y-121977914D01*
X216940801Y-121461270D01*
X216266605Y-121181319D01*
X215536597Y-121180682D01*
X214861914Y-121459455D01*
X214345270Y-121975199D01*
X214065319Y-122649395D01*
X214064682Y-123379403D01*
X207000205Y-123379403D01*
X207042862Y-123336746D01*
X207003116Y-123297000D01*
X209296000Y-123297000D01*
X210017359Y-123153513D01*
X210628896Y-122744896D01*
X213676896Y-119696896D01*
X214085513Y-119085358D01*
X214173534Y-118642846D01*
X214343455Y-119054086D01*
X214859199Y-119570730D01*
X215533395Y-119850681D01*
X216263403Y-119851318D01*
X216938086Y-119572545D01*
X217454730Y-119056801D01*
X217734681Y-118382605D01*
X217735318Y-117652597D01*
X217456545Y-116977914D01*
X216940801Y-116461270D01*
X216266605Y-116181319D01*
X215536597Y-116180682D01*
X214861914Y-116459455D01*
X214345270Y-116975199D01*
X214229000Y-117255208D01*
X214229000Y-113777083D01*
X214343455Y-114054086D01*
X214859199Y-114570730D01*
X215533395Y-114850681D01*
X216263403Y-114851318D01*
X216938086Y-114572545D01*
X217454730Y-114056801D01*
X217734681Y-113382605D01*
X217735318Y-112652597D01*
X217456545Y-111977914D01*
X216940801Y-111461270D01*
X216454467Y-111259326D01*
X217232896Y-110480897D01*
X217641512Y-109869359D01*
X217641513Y-109869358D01*
X217785000Y-109148000D01*
X217785000Y-103846377D01*
X217641513Y-103125019D01*
X217232896Y-102513481D01*
X216621358Y-102104864D01*
X215900000Y-101961377D01*
X215178642Y-102104864D01*
X214567104Y-102513481D01*
X214158487Y-103125019D01*
X214015000Y-103846377D01*
X214015000Y-108367207D01*
X211011104Y-111371104D01*
X210602487Y-111982641D01*
X210602487Y-111982642D01*
X210459000Y-112704000D01*
X210459000Y-117583208D01*
X208515208Y-119527000D01*
X197988000Y-119527000D01*
X197266642Y-119670487D01*
X196655104Y-120079104D01*
X193607104Y-123127104D01*
X193198487Y-123738641D01*
X193055000Y-124460000D01*
X77125000Y-124460000D01*
X77125000Y-122170520D01*
X87634781Y-122170520D01*
X87826960Y-122635629D01*
X88182499Y-122991790D01*
X88647272Y-123184780D01*
X89150520Y-123185219D01*
X89615629Y-122993040D01*
X89804492Y-122804506D01*
X93275099Y-122804506D01*
X93328313Y-123033034D01*
X93803860Y-123197700D01*
X94306222Y-123167846D01*
X94631687Y-123033034D01*
X94684901Y-122804506D01*
X93980000Y-122099605D01*
X93275099Y-122804506D01*
X89804492Y-122804506D01*
X89971790Y-122637501D01*
X90164780Y-122172728D01*
X90165154Y-121743860D01*
X92702300Y-121743860D01*
X92732154Y-122246222D01*
X92866966Y-122571687D01*
X93095494Y-122624901D01*
X93800395Y-121920000D01*
X94159605Y-121920000D01*
X94864506Y-122624901D01*
X95093034Y-122571687D01*
X95257700Y-122096140D01*
X95227846Y-121593778D01*
X95093034Y-121268313D01*
X94864506Y-121215099D01*
X94159605Y-121920000D01*
X93800395Y-121920000D01*
X93095494Y-121215099D01*
X92866966Y-121268313D01*
X92702300Y-121743860D01*
X90165154Y-121743860D01*
X90165219Y-121669480D01*
X89973040Y-121204371D01*
X89804458Y-121035494D01*
X93275099Y-121035494D01*
X93980000Y-121740395D01*
X94684901Y-121035494D01*
X94631687Y-120806966D01*
X94156140Y-120642300D01*
X93653778Y-120672154D01*
X93328313Y-120806966D01*
X93275099Y-121035494D01*
X89804458Y-121035494D01*
X89617501Y-120848210D01*
X89152728Y-120655220D01*
X88649480Y-120654781D01*
X88184371Y-120846960D01*
X87828210Y-121202499D01*
X87635220Y-121667272D01*
X87634781Y-122170520D01*
X77125000Y-122170520D01*
X77125000Y-119630520D01*
X90174781Y-119630520D01*
X90366960Y-120095629D01*
X90722499Y-120451790D01*
X91187272Y-120644780D01*
X91690520Y-120645219D01*
X92155629Y-120453040D01*
X92511790Y-120097501D01*
X92704780Y-119632728D01*
X92705219Y-119129480D01*
X92700371Y-119117745D01*
X102041861Y-119117745D01*
X102115995Y-119363864D01*
X102653223Y-119556965D01*
X103223454Y-119529778D01*
X103624005Y-119363864D01*
X103698139Y-119117745D01*
X102870000Y-118289605D01*
X102041861Y-119117745D01*
X92700371Y-119117745D01*
X92513040Y-118664371D01*
X92157501Y-118308210D01*
X91692728Y-118115220D01*
X91189480Y-118114781D01*
X90724371Y-118306960D01*
X90368210Y-118662499D01*
X90175220Y-119127272D01*
X90174781Y-119630520D01*
X77125000Y-119630520D01*
X77125000Y-118355745D01*
X77911861Y-118355745D01*
X77985995Y-118601864D01*
X78523223Y-118794965D01*
X79093454Y-118767778D01*
X79494005Y-118601864D01*
X79568139Y-118355745D01*
X78740000Y-117527605D01*
X77911861Y-118355745D01*
X77125000Y-118355745D01*
X77125000Y-117131223D01*
X77293035Y-117131223D01*
X77320222Y-117701454D01*
X77486136Y-118102005D01*
X77732255Y-118176139D01*
X78560395Y-117348000D01*
X78919605Y-117348000D01*
X79747745Y-118176139D01*
X79993864Y-118102005D01*
X80068908Y-117893223D01*
X101423035Y-117893223D01*
X101450222Y-118463454D01*
X101616136Y-118864005D01*
X101862255Y-118938139D01*
X102690395Y-118110000D01*
X103049605Y-118110000D01*
X103877745Y-118938139D01*
X104123864Y-118864005D01*
X104316965Y-118326777D01*
X104289778Y-117756546D01*
X104123864Y-117355995D01*
X103877745Y-117281861D01*
X103049605Y-118110000D01*
X102690395Y-118110000D01*
X101862255Y-117281861D01*
X101616136Y-117355995D01*
X101423035Y-117893223D01*
X80068908Y-117893223D01*
X80186965Y-117564777D01*
X80164914Y-117102255D01*
X102041861Y-117102255D01*
X102870000Y-117930395D01*
X103698139Y-117102255D01*
X103624005Y-116856136D01*
X103086777Y-116663035D01*
X102516546Y-116690222D01*
X102115995Y-116856136D01*
X102041861Y-117102255D01*
X80164914Y-117102255D01*
X80159778Y-116994546D01*
X79993864Y-116593995D01*
X79747745Y-116519861D01*
X78919605Y-117348000D01*
X78560395Y-117348000D01*
X77732255Y-116519861D01*
X77486136Y-116593995D01*
X77293035Y-117131223D01*
X77125000Y-117131223D01*
X77125000Y-116340255D01*
X77911861Y-116340255D01*
X78740000Y-117168395D01*
X79568139Y-116340255D01*
X79494005Y-116094136D01*
X78956777Y-115901035D01*
X78386546Y-115928222D01*
X77985995Y-116094136D01*
X77911861Y-116340255D01*
X77125000Y-116340255D01*
X77125000Y-115854187D01*
X84924752Y-115854187D01*
X85142757Y-116381800D01*
X85546077Y-116785824D01*
X86073309Y-117004750D01*
X86644187Y-117005248D01*
X87171800Y-116787243D01*
X87575824Y-116383923D01*
X87794750Y-115856691D01*
X87795000Y-115570000D01*
X95056887Y-115570000D01*
X95166120Y-116119151D01*
X95477189Y-116584698D01*
X95942736Y-116895767D01*
X96491887Y-117005000D01*
X96548113Y-117005000D01*
X97097264Y-116895767D01*
X97562811Y-116584698D01*
X97873880Y-116119151D01*
X97983113Y-115570000D01*
X97873880Y-115020849D01*
X97562811Y-114555302D01*
X97097264Y-114244233D01*
X96548113Y-114135000D01*
X96491887Y-114135000D01*
X95942736Y-114244233D01*
X95477189Y-114555302D01*
X95166120Y-115020849D01*
X95056887Y-115570000D01*
X87795000Y-115570000D01*
X87795248Y-115285813D01*
X87577243Y-114758200D01*
X87173923Y-114354176D01*
X86646691Y-114135250D01*
X86075813Y-114134752D01*
X85548200Y-114352757D01*
X85144176Y-114756077D01*
X84925250Y-115283309D01*
X84924752Y-115854187D01*
X77125000Y-115854187D01*
X77125000Y-109211745D01*
X77911861Y-109211745D01*
X77985995Y-109457864D01*
X78523223Y-109650965D01*
X79093454Y-109623778D01*
X79494005Y-109457864D01*
X79568139Y-109211745D01*
X78740000Y-108383605D01*
X77911861Y-109211745D01*
X77125000Y-109211745D01*
X77125000Y-107987223D01*
X77293035Y-107987223D01*
X77320222Y-108557454D01*
X77486136Y-108958005D01*
X77732255Y-109032139D01*
X78560395Y-108204000D01*
X78919605Y-108204000D01*
X79747745Y-109032139D01*
X79993864Y-108958005D01*
X80186965Y-108420777D01*
X80186928Y-108420000D01*
X85452560Y-108420000D01*
X85452560Y-110020000D01*
X85496838Y-110255317D01*
X85635910Y-110471441D01*
X85848110Y-110616431D01*
X86100000Y-110667440D01*
X87700000Y-110667440D01*
X87935317Y-110623162D01*
X88151441Y-110484090D01*
X88155977Y-110477452D01*
X88683223Y-110666965D01*
X89253454Y-110639778D01*
X89654005Y-110473864D01*
X89728139Y-110227745D01*
X88900000Y-109399605D01*
X88885858Y-109413748D01*
X88706253Y-109234143D01*
X88720395Y-109220000D01*
X89079605Y-109220000D01*
X89907745Y-110048139D01*
X90153864Y-109974005D01*
X90346965Y-109436777D01*
X90319778Y-108866546D01*
X90153864Y-108465995D01*
X90001165Y-108420000D01*
X91802560Y-108420000D01*
X91802560Y-110020000D01*
X91846838Y-110255317D01*
X91985910Y-110471441D01*
X92198110Y-110616431D01*
X92450000Y-110667440D01*
X94050000Y-110667440D01*
X94285317Y-110623162D01*
X94501441Y-110484090D01*
X94505977Y-110477452D01*
X95033223Y-110666965D01*
X95603454Y-110639778D01*
X96004005Y-110473864D01*
X96078139Y-110227745D01*
X95250000Y-109399605D01*
X95235858Y-109413748D01*
X95056253Y-109234143D01*
X95070395Y-109220000D01*
X95429605Y-109220000D01*
X96257745Y-110048139D01*
X96503864Y-109974005D01*
X96696965Y-109436777D01*
X96669778Y-108866546D01*
X96503864Y-108465995D01*
X96351165Y-108420000D01*
X98152560Y-108420000D01*
X98152560Y-110020000D01*
X98196838Y-110255317D01*
X98335910Y-110471441D01*
X98548110Y-110616431D01*
X98800000Y-110667440D01*
X100400000Y-110667440D01*
X100635317Y-110623162D01*
X100851441Y-110484090D01*
X100855977Y-110477452D01*
X101383223Y-110666965D01*
X101953454Y-110639778D01*
X102354005Y-110473864D01*
X102428139Y-110227745D01*
X101600000Y-109399605D01*
X101585858Y-109413748D01*
X101406253Y-109234143D01*
X101420395Y-109220000D01*
X101779605Y-109220000D01*
X102607745Y-110048139D01*
X102853864Y-109974005D01*
X103046965Y-109436777D01*
X103019778Y-108866546D01*
X102853864Y-108465995D01*
X102607745Y-108391861D01*
X101779605Y-109220000D01*
X101420395Y-109220000D01*
X101406253Y-109205858D01*
X101585858Y-109026252D01*
X101600000Y-109040395D01*
X102428139Y-108212255D01*
X102354005Y-107966136D01*
X101816777Y-107773035D01*
X101246546Y-107800222D01*
X100855053Y-107962384D01*
X100651890Y-107823569D01*
X100400000Y-107772560D01*
X98800000Y-107772560D01*
X98564683Y-107816838D01*
X98348559Y-107955910D01*
X98203569Y-108168110D01*
X98152560Y-108420000D01*
X96351165Y-108420000D01*
X96257745Y-108391861D01*
X95429605Y-109220000D01*
X95070395Y-109220000D01*
X95056253Y-109205858D01*
X95235858Y-109026252D01*
X95250000Y-109040395D01*
X96078139Y-108212255D01*
X96004005Y-107966136D01*
X95466777Y-107773035D01*
X94896546Y-107800222D01*
X94505053Y-107962384D01*
X94301890Y-107823569D01*
X94050000Y-107772560D01*
X92450000Y-107772560D01*
X92214683Y-107816838D01*
X91998559Y-107955910D01*
X91853569Y-108168110D01*
X91802560Y-108420000D01*
X90001165Y-108420000D01*
X89907745Y-108391861D01*
X89079605Y-109220000D01*
X88720395Y-109220000D01*
X88706253Y-109205858D01*
X88885858Y-109026252D01*
X88900000Y-109040395D01*
X89728139Y-108212255D01*
X89654005Y-107966136D01*
X89116777Y-107773035D01*
X88546546Y-107800222D01*
X88155053Y-107962384D01*
X87951890Y-107823569D01*
X87700000Y-107772560D01*
X86100000Y-107772560D01*
X85864683Y-107816838D01*
X85648559Y-107955910D01*
X85503569Y-108168110D01*
X85452560Y-108420000D01*
X80186928Y-108420000D01*
X80159778Y-107850546D01*
X79993864Y-107449995D01*
X79747745Y-107375861D01*
X78919605Y-108204000D01*
X78560395Y-108204000D01*
X77732255Y-107375861D01*
X77486136Y-107449995D01*
X77293035Y-107987223D01*
X77125000Y-107987223D01*
X77125000Y-107196255D01*
X77911861Y-107196255D01*
X78740000Y-108024395D01*
X79568139Y-107196255D01*
X79494005Y-106950136D01*
X78956777Y-106757035D01*
X78386546Y-106784222D01*
X77985995Y-106950136D01*
X77911861Y-107196255D01*
X77125000Y-107196255D01*
X77125000Y-104140000D01*
X84896887Y-104140000D01*
X85006120Y-104689151D01*
X85317189Y-105154698D01*
X85782736Y-105465767D01*
X86331887Y-105575000D01*
X86388113Y-105575000D01*
X86937264Y-105465767D01*
X87402811Y-105154698D01*
X87713880Y-104689151D01*
X87766584Y-104424187D01*
X95084752Y-104424187D01*
X95302757Y-104951800D01*
X95706077Y-105355824D01*
X96233309Y-105574750D01*
X96804187Y-105575248D01*
X97331800Y-105357243D01*
X97735824Y-104953923D01*
X97954750Y-104426691D01*
X97955248Y-103855813D01*
X97737243Y-103328200D01*
X97333923Y-102924176D01*
X96806691Y-102705250D01*
X96235813Y-102704752D01*
X95708200Y-102922757D01*
X95304176Y-103326077D01*
X95085250Y-103853309D01*
X95084752Y-104424187D01*
X87766584Y-104424187D01*
X87823113Y-104140000D01*
X87713880Y-103590849D01*
X87402811Y-103125302D01*
X86937264Y-102814233D01*
X86388113Y-102705000D01*
X86331887Y-102705000D01*
X85782736Y-102814233D01*
X85317189Y-103125302D01*
X85006120Y-103590849D01*
X84896887Y-104140000D01*
X77125000Y-104140000D01*
X77125000Y-100067745D01*
X77911861Y-100067745D01*
X77985995Y-100313864D01*
X78523223Y-100506965D01*
X79093454Y-100479778D01*
X79455049Y-100330000D01*
X84896887Y-100330000D01*
X85006120Y-100879151D01*
X85317189Y-101344698D01*
X85782736Y-101655767D01*
X86331887Y-101765000D01*
X86388113Y-101765000D01*
X86937264Y-101655767D01*
X87402811Y-101344698D01*
X87713880Y-100879151D01*
X87823113Y-100330000D01*
X87713880Y-99780849D01*
X87402811Y-99315302D01*
X86937264Y-99004233D01*
X86388113Y-98895000D01*
X86331887Y-98895000D01*
X85782736Y-99004233D01*
X85317189Y-99315302D01*
X85006120Y-99780849D01*
X84896887Y-100330000D01*
X79455049Y-100330000D01*
X79494005Y-100313864D01*
X79568139Y-100067745D01*
X78740000Y-99239605D01*
X77911861Y-100067745D01*
X77125000Y-100067745D01*
X77125000Y-99840792D01*
X77388207Y-99577585D01*
X77486136Y-99814005D01*
X77732255Y-99888139D01*
X78560395Y-99060000D01*
X78546252Y-99045858D01*
X78725858Y-98866253D01*
X78740000Y-98880395D01*
X78754143Y-98866253D01*
X78933748Y-99045858D01*
X78919605Y-99060000D01*
X79747745Y-99888139D01*
X79993864Y-99814005D01*
X80186965Y-99276777D01*
X80159778Y-98706546D01*
X80154995Y-98694999D01*
X80990001Y-98694999D01*
X81711360Y-98551512D01*
X82322897Y-98142895D01*
X92772896Y-87692897D01*
X93181513Y-87081359D01*
X93205319Y-86961678D01*
X93325000Y-86360000D01*
X93325000Y-80492226D01*
X94084579Y-80492226D01*
X94454504Y-81387514D01*
X95138883Y-82073088D01*
X96033524Y-82444576D01*
X97002226Y-82445421D01*
X97897514Y-82075496D01*
X98078325Y-81895000D01*
X101129208Y-81895000D01*
X101295000Y-82060792D01*
X101295000Y-97175000D01*
X99880000Y-97175000D01*
X99278322Y-97294681D01*
X99158641Y-97318487D01*
X98547104Y-97727104D01*
X97829208Y-98445000D01*
X97082398Y-98445000D01*
X96361040Y-98588487D01*
X95749502Y-98997104D01*
X95600162Y-99220606D01*
X95304176Y-99516077D01*
X95085250Y-100043309D01*
X95084752Y-100614187D01*
X95302757Y-101141800D01*
X95600831Y-101440394D01*
X95749502Y-101662896D01*
X96361040Y-102071513D01*
X97082398Y-102215000D01*
X98610000Y-102215000D01*
X99331359Y-102071513D01*
X99942896Y-101662896D01*
X100660792Y-100945000D01*
X102399208Y-100945000D01*
X105985000Y-104530793D01*
X105985000Y-118110000D01*
X106128487Y-118831358D01*
X106537104Y-119442896D01*
X107148642Y-119851513D01*
X107870000Y-119995000D01*
X108591358Y-119851513D01*
X108871710Y-119664187D01*
X115404752Y-119664187D01*
X115622757Y-120191800D01*
X116026077Y-120595824D01*
X116553309Y-120814750D01*
X117124187Y-120815248D01*
X117651800Y-120597243D01*
X118055824Y-120193923D01*
X118274750Y-119666691D01*
X118274752Y-119664187D01*
X128104752Y-119664187D01*
X128322757Y-120191800D01*
X128726077Y-120595824D01*
X129253309Y-120814750D01*
X129824187Y-120815248D01*
X129878149Y-120792951D01*
X132587600Y-123502402D01*
X132834162Y-123667149D01*
X133125001Y-123725001D01*
X181754999Y-123725001D01*
X182045838Y-123667149D01*
X182292400Y-123502402D01*
X186142745Y-119652057D01*
X186610000Y-119745000D01*
X187235687Y-119620543D01*
X187766120Y-119266120D01*
X188120543Y-118735687D01*
X188245000Y-118110000D01*
X188245000Y-112610000D01*
X193242560Y-112610000D01*
X193242560Y-114710000D01*
X193286838Y-114945317D01*
X193425910Y-115161441D01*
X193638110Y-115306431D01*
X193890000Y-115357440D01*
X195990000Y-115357440D01*
X196225317Y-115313162D01*
X196441441Y-115174090D01*
X196586431Y-114961890D01*
X196637440Y-114710000D01*
X196637440Y-112610000D01*
X196593162Y-112374683D01*
X196454090Y-112158559D01*
X196241890Y-112013569D01*
X195990000Y-111962560D01*
X193890000Y-111962560D01*
X193654683Y-112006838D01*
X193438559Y-112145910D01*
X193293569Y-112358110D01*
X193242560Y-112610000D01*
X188245000Y-112610000D01*
X188245000Y-103750005D01*
X188245001Y-103750000D01*
X188120543Y-103124313D01*
X187996426Y-102938559D01*
X187766120Y-102593880D01*
X187766117Y-102593878D01*
X185657544Y-100485304D01*
X185773454Y-100479778D01*
X186174005Y-100313864D01*
X186248139Y-100067745D01*
X185420000Y-99239605D01*
X185405858Y-99253748D01*
X185226252Y-99074142D01*
X185240395Y-99060000D01*
X185599605Y-99060000D01*
X186427745Y-99888139D01*
X186673864Y-99814005D01*
X186866965Y-99276777D01*
X186839778Y-98706546D01*
X186673864Y-98305995D01*
X186427745Y-98231861D01*
X185599605Y-99060000D01*
X185240395Y-99060000D01*
X184412255Y-98231861D01*
X184166136Y-98305995D01*
X183984253Y-98812013D01*
X183555000Y-98382760D01*
X183555000Y-98052255D01*
X184591861Y-98052255D01*
X185420000Y-98880395D01*
X186248139Y-98052255D01*
X186190230Y-97860000D01*
X193852560Y-97860000D01*
X193852560Y-100260000D01*
X193896838Y-100495317D01*
X194035910Y-100711441D01*
X194248110Y-100856431D01*
X194500000Y-100907440D01*
X196900000Y-100907440D01*
X197135317Y-100863162D01*
X197351441Y-100724090D01*
X197496431Y-100511890D01*
X197527761Y-100357175D01*
X202082430Y-100357175D01*
X202205565Y-100644788D01*
X202887734Y-100904707D01*
X203617443Y-100883786D01*
X204194435Y-100644788D01*
X204317570Y-100357175D01*
X203200000Y-99239605D01*
X202082430Y-100357175D01*
X197527761Y-100357175D01*
X197547440Y-100260000D01*
X197547440Y-98747734D01*
X201355293Y-98747734D01*
X201376214Y-99477443D01*
X201615212Y-100054435D01*
X201902825Y-100177570D01*
X203020395Y-99060000D01*
X201902825Y-97942430D01*
X201615212Y-98065565D01*
X201355293Y-98747734D01*
X197547440Y-98747734D01*
X197547440Y-97860000D01*
X197529156Y-97762825D01*
X202082430Y-97762825D01*
X203200000Y-98880395D01*
X204317570Y-97762825D01*
X204194435Y-97475212D01*
X203512266Y-97215293D01*
X202782557Y-97236214D01*
X202205565Y-97475212D01*
X202082430Y-97762825D01*
X197529156Y-97762825D01*
X197503162Y-97624683D01*
X197364090Y-97408559D01*
X197151890Y-97263569D01*
X196900000Y-97212560D01*
X194500000Y-97212560D01*
X194264683Y-97256838D01*
X194048559Y-97395910D01*
X193903569Y-97608110D01*
X193852560Y-97860000D01*
X186190230Y-97860000D01*
X186174005Y-97806136D01*
X185636777Y-97613035D01*
X185066546Y-97640222D01*
X184665995Y-97806136D01*
X184591861Y-98052255D01*
X183555000Y-98052255D01*
X183555000Y-91177745D01*
X184591861Y-91177745D01*
X184665995Y-91423864D01*
X185203223Y-91616965D01*
X185773454Y-91589778D01*
X186174005Y-91423864D01*
X186248139Y-91177745D01*
X185420000Y-90349605D01*
X184591861Y-91177745D01*
X183555000Y-91177745D01*
X183555000Y-89953223D01*
X183973035Y-89953223D01*
X184000222Y-90523454D01*
X184166136Y-90924005D01*
X184412255Y-90998139D01*
X185240395Y-90170000D01*
X185599605Y-90170000D01*
X186427745Y-90998139D01*
X186673864Y-90924005D01*
X186866965Y-90386777D01*
X186839778Y-89816546D01*
X186673864Y-89415995D01*
X186427745Y-89341861D01*
X185599605Y-90170000D01*
X185240395Y-90170000D01*
X184412255Y-89341861D01*
X184166136Y-89415995D01*
X183973035Y-89953223D01*
X183555000Y-89953223D01*
X183555000Y-89162255D01*
X184591861Y-89162255D01*
X185420000Y-89990395D01*
X186248139Y-89162255D01*
X186174005Y-88916136D01*
X185636777Y-88723035D01*
X185066546Y-88750222D01*
X184665995Y-88916136D01*
X184591861Y-89162255D01*
X183555000Y-89162255D01*
X183555000Y-82287745D01*
X184591861Y-82287745D01*
X184665995Y-82533864D01*
X185203223Y-82726965D01*
X185773454Y-82699778D01*
X186174005Y-82533864D01*
X186248139Y-82287745D01*
X185420000Y-81459605D01*
X184591861Y-82287745D01*
X183555000Y-82287745D01*
X183555000Y-81280000D01*
X183511881Y-81063223D01*
X183973035Y-81063223D01*
X184000222Y-81633454D01*
X184166136Y-82034005D01*
X184412255Y-82108139D01*
X185240395Y-81280000D01*
X185599605Y-81280000D01*
X186427745Y-82108139D01*
X186673864Y-82034005D01*
X186866965Y-81496777D01*
X186839778Y-80926546D01*
X186673864Y-80525995D01*
X186427745Y-80451861D01*
X185599605Y-81280000D01*
X185240395Y-81280000D01*
X184412255Y-80451861D01*
X184166136Y-80525995D01*
X183973035Y-81063223D01*
X183511881Y-81063223D01*
X183484694Y-80926546D01*
X183430543Y-80654312D01*
X183367440Y-80559872D01*
X183367440Y-80480000D01*
X183328351Y-80272255D01*
X184591861Y-80272255D01*
X185420000Y-81100395D01*
X186248139Y-80272255D01*
X186174005Y-80026136D01*
X185636777Y-79833035D01*
X185066546Y-79860222D01*
X184665995Y-80026136D01*
X184591861Y-80272255D01*
X183328351Y-80272255D01*
X183323162Y-80244683D01*
X183184090Y-80028559D01*
X182971890Y-79883569D01*
X182801253Y-79849014D01*
X181806120Y-78853880D01*
X181740449Y-78810000D01*
X193852560Y-78810000D01*
X193852560Y-81210000D01*
X193896838Y-81445317D01*
X194035910Y-81661441D01*
X194248110Y-81806431D01*
X194500000Y-81857440D01*
X196900000Y-81857440D01*
X197135317Y-81813162D01*
X197351441Y-81674090D01*
X197496431Y-81461890D01*
X197527761Y-81307175D01*
X202082430Y-81307175D01*
X202205565Y-81594788D01*
X202887734Y-81854707D01*
X203617443Y-81833786D01*
X204194435Y-81594788D01*
X204317570Y-81307175D01*
X203200000Y-80189605D01*
X202082430Y-81307175D01*
X197527761Y-81307175D01*
X197547440Y-81210000D01*
X197547440Y-79697734D01*
X201355293Y-79697734D01*
X201376214Y-80427443D01*
X201615212Y-81004435D01*
X201902825Y-81127570D01*
X203020395Y-80010000D01*
X203379605Y-80010000D01*
X204497175Y-81127570D01*
X204784788Y-81004435D01*
X204904999Y-80688936D01*
X204904999Y-98355780D01*
X204784788Y-98065565D01*
X204497175Y-97942430D01*
X203379605Y-99060000D01*
X204497175Y-100177570D01*
X204784788Y-100054435D01*
X204904999Y-99738936D01*
X204904999Y-111829209D01*
X204407104Y-112327104D01*
X203998487Y-112938641D01*
X203855000Y-113660000D01*
X203998487Y-114381359D01*
X204407104Y-114992896D01*
X205018641Y-115401513D01*
X205740000Y-115545000D01*
X206461359Y-115401513D01*
X207072896Y-114992896D01*
X208122895Y-113942897D01*
X208531512Y-113331359D01*
X208674999Y-112610001D01*
X208674999Y-74516000D01*
X214015000Y-74516000D01*
X214015000Y-83449623D01*
X214158487Y-84170981D01*
X214567104Y-84782519D01*
X215178642Y-85191136D01*
X215900000Y-85334623D01*
X216621358Y-85191136D01*
X217232896Y-84782519D01*
X217641513Y-84170981D01*
X217785000Y-83449623D01*
X217785000Y-74516000D01*
X217747440Y-74327173D01*
X217747440Y-73316000D01*
X217703162Y-73080683D01*
X217564090Y-72864559D01*
X217351890Y-72719569D01*
X217100000Y-72668560D01*
X216088827Y-72668560D01*
X215900000Y-72631000D01*
X215711173Y-72668560D01*
X214700000Y-72668560D01*
X214464683Y-72712838D01*
X214248559Y-72851910D01*
X214103569Y-73064110D01*
X214052560Y-73316000D01*
X214052560Y-74327173D01*
X214015000Y-74516000D01*
X208674999Y-74516000D01*
X208674999Y-65262793D01*
X209421792Y-64516000D01*
X214015000Y-64516000D01*
X214015000Y-69516000D01*
X214064781Y-69766265D01*
X214064682Y-69879403D01*
X214108268Y-69984889D01*
X214158487Y-70237358D01*
X214300249Y-70449520D01*
X214343455Y-70554086D01*
X214424092Y-70634864D01*
X214567104Y-70848896D01*
X214779268Y-70990660D01*
X214859199Y-71070730D01*
X214964607Y-71114499D01*
X215178642Y-71257513D01*
X215428907Y-71307294D01*
X215533395Y-71350681D01*
X215647530Y-71350781D01*
X215900000Y-71401000D01*
X216150265Y-71351219D01*
X216263403Y-71351318D01*
X216368889Y-71307732D01*
X216621358Y-71257513D01*
X216833520Y-71115751D01*
X216938086Y-71072545D01*
X217018864Y-70991908D01*
X217232896Y-70848896D01*
X217374660Y-70636732D01*
X217454730Y-70556801D01*
X217498499Y-70451393D01*
X217641513Y-70237358D01*
X217691294Y-69987093D01*
X217734681Y-69882605D01*
X217734781Y-69768470D01*
X217785000Y-69516000D01*
X217785000Y-64516000D01*
X217735219Y-64265735D01*
X217735318Y-64152597D01*
X217691732Y-64047111D01*
X217641513Y-63794642D01*
X217499751Y-63582480D01*
X217456545Y-63477914D01*
X217375908Y-63397136D01*
X217232896Y-63183104D01*
X217020732Y-63041340D01*
X216940801Y-62961270D01*
X216835393Y-62917501D01*
X216621358Y-62774487D01*
X216371093Y-62724706D01*
X216266605Y-62681319D01*
X216152470Y-62681219D01*
X215900000Y-62631000D01*
X215649735Y-62680781D01*
X215536597Y-62680682D01*
X215431111Y-62724268D01*
X215178642Y-62774487D01*
X214966480Y-62916249D01*
X214861914Y-62959455D01*
X214781136Y-63040092D01*
X214567104Y-63183104D01*
X214425340Y-63395268D01*
X214345270Y-63475199D01*
X214301501Y-63580607D01*
X214158487Y-63794642D01*
X214108706Y-64044907D01*
X214065319Y-64149395D01*
X214065219Y-64263530D01*
X214015000Y-64516000D01*
X209421792Y-64516000D01*
X212536792Y-61401000D01*
X215900000Y-61401000D01*
X216150265Y-61351219D01*
X216263403Y-61351318D01*
X216368889Y-61307732D01*
X216621358Y-61257513D01*
X216833520Y-61115751D01*
X216938086Y-61072545D01*
X217018864Y-60991908D01*
X217232896Y-60848896D01*
X217374660Y-60636732D01*
X217454730Y-60556801D01*
X217498499Y-60451393D01*
X217641513Y-60237358D01*
X217691294Y-59987093D01*
X217734681Y-59882605D01*
X217734781Y-59768470D01*
X217785000Y-59516000D01*
X217735219Y-59265735D01*
X217735318Y-59152597D01*
X217691732Y-59047111D01*
X217641513Y-58794642D01*
X217499751Y-58582480D01*
X217456545Y-58477914D01*
X217375908Y-58397136D01*
X217232896Y-58183104D01*
X217020732Y-58041340D01*
X216940801Y-57961270D01*
X216835393Y-57917501D01*
X216621358Y-57774487D01*
X216371093Y-57724706D01*
X216266605Y-57681319D01*
X216152470Y-57681219D01*
X215900000Y-57631000D01*
X212238188Y-57631000D01*
X211836000Y-57551000D01*
X211114641Y-57694487D01*
X210503104Y-58103104D01*
X205457103Y-63149105D01*
X205048486Y-63760642D01*
X204938854Y-64311800D01*
X204904999Y-64482001D01*
X204904999Y-79305780D01*
X204784788Y-79015565D01*
X204497175Y-78892430D01*
X203379605Y-80010000D01*
X203020395Y-80010000D01*
X201902825Y-78892430D01*
X201615212Y-79015565D01*
X201355293Y-79697734D01*
X197547440Y-79697734D01*
X197547440Y-78810000D01*
X197529156Y-78712825D01*
X202082430Y-78712825D01*
X203200000Y-79830395D01*
X204317570Y-78712825D01*
X204194435Y-78425212D01*
X203512266Y-78165293D01*
X202782557Y-78186214D01*
X202205565Y-78425212D01*
X202082430Y-78712825D01*
X197529156Y-78712825D01*
X197503162Y-78574683D01*
X197364090Y-78358559D01*
X197151890Y-78213569D01*
X196900000Y-78162560D01*
X194500000Y-78162560D01*
X194264683Y-78206838D01*
X194048559Y-78345910D01*
X193903569Y-78558110D01*
X193852560Y-78810000D01*
X181740449Y-78810000D01*
X181275688Y-78499457D01*
X180650000Y-78374999D01*
X180649995Y-78375000D01*
X177068459Y-78375000D01*
X176641117Y-77946912D01*
X175746476Y-77575424D01*
X174777774Y-77574579D01*
X173882486Y-77944504D01*
X173196912Y-78628883D01*
X172825424Y-79523524D01*
X172824579Y-80492226D01*
X173194504Y-81387514D01*
X173878883Y-82073088D01*
X174773524Y-82444576D01*
X175742226Y-82445421D01*
X176637514Y-82075496D01*
X177068762Y-81645000D01*
X179972760Y-81645000D01*
X180285000Y-81957239D01*
X180285000Y-97425000D01*
X175260000Y-97425000D01*
X174634313Y-97549457D01*
X174103880Y-97903880D01*
X173749457Y-98434313D01*
X173625000Y-99060000D01*
X173749457Y-99685687D01*
X174103880Y-100216120D01*
X174634313Y-100570543D01*
X175260000Y-100695000D01*
X181242760Y-100695000D01*
X184975000Y-104427239D01*
X184975000Y-118110000D01*
X185067943Y-118577255D01*
X181440197Y-122205001D01*
X173960005Y-122205001D01*
X173997700Y-122096140D01*
X173967846Y-121593778D01*
X173833034Y-121268313D01*
X173604506Y-121215099D01*
X172899605Y-121920000D01*
X172913748Y-121934143D01*
X172734143Y-122113748D01*
X172720000Y-122099605D01*
X172705858Y-122113748D01*
X172526253Y-121934143D01*
X172540395Y-121920000D01*
X171835494Y-121215099D01*
X171606966Y-121268313D01*
X171442300Y-121743860D01*
X171469704Y-122205001D01*
X168891379Y-122205001D01*
X168904780Y-122172728D01*
X168905219Y-121669480D01*
X168713040Y-121204371D01*
X168544458Y-121035494D01*
X172015099Y-121035494D01*
X172720000Y-121740395D01*
X173424901Y-121035494D01*
X173371687Y-120806966D01*
X172896140Y-120642300D01*
X172393778Y-120672154D01*
X172068313Y-120806966D01*
X172015099Y-121035494D01*
X168544458Y-121035494D01*
X168357501Y-120848210D01*
X167892728Y-120655220D01*
X167485022Y-120654864D01*
X166460678Y-119630520D01*
X168914781Y-119630520D01*
X169106960Y-120095629D01*
X169462499Y-120451790D01*
X169927272Y-120644780D01*
X170430520Y-120645219D01*
X170895629Y-120453040D01*
X171251790Y-120097501D01*
X171444780Y-119632728D01*
X171445219Y-119129480D01*
X171440371Y-119117745D01*
X180781861Y-119117745D01*
X180855995Y-119363864D01*
X181393223Y-119556965D01*
X181963454Y-119529778D01*
X182364005Y-119363864D01*
X182438139Y-119117745D01*
X181610000Y-118289605D01*
X180781861Y-119117745D01*
X171440371Y-119117745D01*
X171253040Y-118664371D01*
X171102750Y-118513819D01*
X171723346Y-117893223D01*
X180163035Y-117893223D01*
X180190222Y-118463454D01*
X180356136Y-118864005D01*
X180602255Y-118938139D01*
X181430395Y-118110000D01*
X181789605Y-118110000D01*
X182617745Y-118938139D01*
X182863864Y-118864005D01*
X183056965Y-118326777D01*
X183029778Y-117756546D01*
X182863864Y-117355995D01*
X182617745Y-117281861D01*
X181789605Y-118110000D01*
X181430395Y-118110000D01*
X180602255Y-117281861D01*
X180356136Y-117355995D01*
X180163035Y-117893223D01*
X171723346Y-117893223D01*
X172514314Y-117102255D01*
X180781861Y-117102255D01*
X181610000Y-117930395D01*
X182438139Y-117102255D01*
X182364005Y-116856136D01*
X181826777Y-116663035D01*
X181256546Y-116690222D01*
X180855995Y-116856136D01*
X180781861Y-117102255D01*
X172514314Y-117102255D01*
X173838312Y-115778257D01*
X173906120Y-116119151D01*
X174217189Y-116584698D01*
X174682736Y-116895767D01*
X175231887Y-117005000D01*
X175288113Y-117005000D01*
X175837264Y-116895767D01*
X176302811Y-116584698D01*
X176613880Y-116119151D01*
X176723113Y-115570000D01*
X176711779Y-115513023D01*
X181417401Y-110807401D01*
X181510920Y-110667440D01*
X181680000Y-110667440D01*
X181915317Y-110623162D01*
X182131441Y-110484090D01*
X182135977Y-110477452D01*
X182663223Y-110666965D01*
X183233454Y-110639778D01*
X183634005Y-110473864D01*
X183708139Y-110227745D01*
X182880000Y-109399605D01*
X182865858Y-109413748D01*
X182686253Y-109234143D01*
X182700395Y-109220000D01*
X183059605Y-109220000D01*
X183887745Y-110048139D01*
X184133864Y-109974005D01*
X184326965Y-109436777D01*
X184299778Y-108866546D01*
X184133864Y-108465995D01*
X183887745Y-108391861D01*
X183059605Y-109220000D01*
X182700395Y-109220000D01*
X182686253Y-109205858D01*
X182865858Y-109026252D01*
X182880000Y-109040395D01*
X183708139Y-108212255D01*
X183634005Y-107966136D01*
X183096777Y-107773035D01*
X182526546Y-107800222D01*
X182135053Y-107962384D01*
X181931890Y-107823569D01*
X181680000Y-107772560D01*
X180080000Y-107772560D01*
X179844683Y-107816838D01*
X179830000Y-107826286D01*
X179830000Y-106680000D01*
X179772148Y-106389161D01*
X179607401Y-106142599D01*
X177036274Y-103571472D01*
X176965080Y-103464922D01*
X176683630Y-103183472D01*
X176694750Y-103156691D01*
X176695248Y-102585813D01*
X176477243Y-102058200D01*
X176073923Y-101654176D01*
X175546691Y-101435250D01*
X174975813Y-101434752D01*
X174448200Y-101652757D01*
X174044176Y-102056077D01*
X173825250Y-102583309D01*
X173824752Y-103154187D01*
X174042757Y-103681800D01*
X174446077Y-104085824D01*
X174973309Y-104304750D01*
X175544187Y-104305248D01*
X175573131Y-104293289D01*
X175854922Y-104575080D01*
X175961472Y-104646274D01*
X178310000Y-106994802D01*
X178310000Y-111128788D01*
X175898788Y-113540000D01*
X174241767Y-113540000D01*
X173950928Y-113597852D01*
X173704366Y-113762599D01*
X169642599Y-117824366D01*
X169477852Y-118070928D01*
X169422609Y-118348649D01*
X169108210Y-118662499D01*
X168915220Y-119127272D01*
X168914781Y-119630520D01*
X166460678Y-119630520D01*
X165885000Y-119054842D01*
X165885000Y-116798317D01*
X165911800Y-116787243D01*
X166315824Y-116383923D01*
X166534750Y-115856691D01*
X166535248Y-115285813D01*
X166317243Y-114758200D01*
X165913923Y-114354176D01*
X165386691Y-114135250D01*
X164815813Y-114134752D01*
X164288200Y-114352757D01*
X163884176Y-114756077D01*
X163665250Y-115283309D01*
X163664752Y-115854187D01*
X163882757Y-116381800D01*
X164286077Y-116785824D01*
X164315000Y-116797834D01*
X164315000Y-119380000D01*
X164374755Y-119680407D01*
X164544921Y-119935079D01*
X166375134Y-121765292D01*
X166374781Y-122170520D01*
X166389028Y-122205001D01*
X133439803Y-122205001D01*
X130953256Y-119718454D01*
X130974750Y-119666691D01*
X130974752Y-119664187D01*
X140804752Y-119664187D01*
X141022757Y-120191800D01*
X141426077Y-120595824D01*
X141953309Y-120814750D01*
X142524187Y-120815248D01*
X143051800Y-120597243D01*
X143455824Y-120193923D01*
X143674750Y-119666691D01*
X143674752Y-119664187D01*
X153504752Y-119664187D01*
X153722757Y-120191800D01*
X154126077Y-120595824D01*
X154653309Y-120814750D01*
X155224187Y-120815248D01*
X155751800Y-120597243D01*
X156155824Y-120193923D01*
X156374750Y-119666691D01*
X156375248Y-119095813D01*
X156157243Y-118568200D01*
X155753923Y-118164176D01*
X155226691Y-117945250D01*
X154655813Y-117944752D01*
X154128200Y-118162757D01*
X153724176Y-118566077D01*
X153505250Y-119093309D01*
X153504752Y-119664187D01*
X143674752Y-119664187D01*
X143675248Y-119095813D01*
X143457243Y-118568200D01*
X143053923Y-118164176D01*
X142526691Y-117945250D01*
X141955813Y-117944752D01*
X141428200Y-118162757D01*
X141024176Y-118566077D01*
X140805250Y-119093309D01*
X140804752Y-119664187D01*
X130974752Y-119664187D01*
X130975248Y-119095813D01*
X130757243Y-118568200D01*
X130353923Y-118164176D01*
X129826691Y-117945250D01*
X129255813Y-117944752D01*
X128728200Y-118162757D01*
X128324176Y-118566077D01*
X128105250Y-119093309D01*
X128104752Y-119664187D01*
X118274752Y-119664187D01*
X118275248Y-119095813D01*
X118057243Y-118568200D01*
X117653923Y-118164176D01*
X117126691Y-117945250D01*
X116555813Y-117944752D01*
X116028200Y-118162757D01*
X115624176Y-118566077D01*
X115405250Y-119093309D01*
X115404752Y-119664187D01*
X108871710Y-119664187D01*
X109202896Y-119442896D01*
X109611513Y-118831358D01*
X109755000Y-118110000D01*
X109755000Y-113500000D01*
X119742560Y-113500000D01*
X119742560Y-115100000D01*
X119786838Y-115335317D01*
X119925910Y-115551441D01*
X120138110Y-115696431D01*
X120390000Y-115747440D01*
X121990000Y-115747440D01*
X122225317Y-115703162D01*
X122441441Y-115564090D01*
X122445977Y-115557452D01*
X122973223Y-115746965D01*
X123543454Y-115719778D01*
X123944005Y-115553864D01*
X124018139Y-115307745D01*
X123190000Y-114479605D01*
X123175858Y-114493748D01*
X122996253Y-114314143D01*
X123010395Y-114300000D01*
X123369605Y-114300000D01*
X124197745Y-115128139D01*
X124443864Y-115054005D01*
X124636965Y-114516777D01*
X124609778Y-113946546D01*
X124443864Y-113545995D01*
X124197745Y-113471861D01*
X123369605Y-114300000D01*
X123010395Y-114300000D01*
X122996253Y-114285858D01*
X123175858Y-114106252D01*
X123190000Y-114120395D01*
X124018139Y-113292255D01*
X123990351Y-113200000D01*
X129062560Y-113200000D01*
X129062560Y-115400000D01*
X129106838Y-115635317D01*
X129245910Y-115851441D01*
X129458110Y-115996431D01*
X129710000Y-116047440D01*
X131910000Y-116047440D01*
X132145317Y-116003162D01*
X132361441Y-115864090D01*
X132506431Y-115651890D01*
X132557440Y-115400000D01*
X132557440Y-114300000D01*
X136661009Y-114300000D01*
X136793078Y-114963956D01*
X137169179Y-115526830D01*
X137732053Y-115902931D01*
X138396009Y-116035000D01*
X138463991Y-116035000D01*
X139127947Y-115902931D01*
X139690821Y-115526830D01*
X140066922Y-114963956D01*
X140198991Y-114300000D01*
X140066922Y-113636044D01*
X139976021Y-113500000D01*
X143872560Y-113500000D01*
X143872560Y-115100000D01*
X143916838Y-115335317D01*
X144055910Y-115551441D01*
X144268110Y-115696431D01*
X144520000Y-115747440D01*
X146120000Y-115747440D01*
X146355317Y-115703162D01*
X146571441Y-115564090D01*
X146575977Y-115557452D01*
X147103223Y-115746965D01*
X147673454Y-115719778D01*
X148074005Y-115553864D01*
X148148139Y-115307745D01*
X147320000Y-114479605D01*
X147305858Y-114493748D01*
X147126253Y-114314143D01*
X147140395Y-114300000D01*
X147499605Y-114300000D01*
X148327745Y-115128139D01*
X148573864Y-115054005D01*
X148766965Y-114516777D01*
X148739778Y-113946546D01*
X148573864Y-113545995D01*
X148327745Y-113471861D01*
X147499605Y-114300000D01*
X147140395Y-114300000D01*
X147126253Y-114285858D01*
X147305858Y-114106252D01*
X147320000Y-114120395D01*
X148148139Y-113292255D01*
X148074005Y-113046136D01*
X147536777Y-112853035D01*
X146966546Y-112880222D01*
X146575053Y-113042384D01*
X146371890Y-112903569D01*
X146120000Y-112852560D01*
X144520000Y-112852560D01*
X144284683Y-112896838D01*
X144068559Y-113035910D01*
X143923569Y-113248110D01*
X143872560Y-113500000D01*
X139976021Y-113500000D01*
X139690821Y-113073170D01*
X139127947Y-112697069D01*
X138463991Y-112565000D01*
X138396009Y-112565000D01*
X137732053Y-112697069D01*
X137169179Y-113073170D01*
X136793078Y-113636044D01*
X136661009Y-114300000D01*
X132557440Y-114300000D01*
X132557440Y-113200000D01*
X132513162Y-112964683D01*
X132374090Y-112748559D01*
X132161890Y-112603569D01*
X131910000Y-112552560D01*
X129710000Y-112552560D01*
X129474683Y-112596838D01*
X129258559Y-112735910D01*
X129113569Y-112948110D01*
X129062560Y-113200000D01*
X123990351Y-113200000D01*
X123944005Y-113046136D01*
X123406777Y-112853035D01*
X122836546Y-112880222D01*
X122445053Y-113042384D01*
X122241890Y-112903569D01*
X121990000Y-112852560D01*
X120390000Y-112852560D01*
X120154683Y-112896838D01*
X119938559Y-113035910D01*
X119793569Y-113248110D01*
X119742560Y-113500000D01*
X109755000Y-113500000D01*
X109755000Y-108420000D01*
X164192560Y-108420000D01*
X164192560Y-110020000D01*
X164236838Y-110255317D01*
X164375910Y-110471441D01*
X164588110Y-110616431D01*
X164840000Y-110667440D01*
X166440000Y-110667440D01*
X166675317Y-110623162D01*
X166891441Y-110484090D01*
X166895977Y-110477452D01*
X167423223Y-110666965D01*
X167993454Y-110639778D01*
X168394005Y-110473864D01*
X168468139Y-110227745D01*
X167640000Y-109399605D01*
X167625858Y-109413748D01*
X167446253Y-109234143D01*
X167460395Y-109220000D01*
X167819605Y-109220000D01*
X168647745Y-110048139D01*
X168893864Y-109974005D01*
X169086965Y-109436777D01*
X169059778Y-108866546D01*
X168893864Y-108465995D01*
X168741165Y-108420000D01*
X171812560Y-108420000D01*
X171812560Y-110020000D01*
X171856838Y-110255317D01*
X171995910Y-110471441D01*
X172208110Y-110616431D01*
X172460000Y-110667440D01*
X174060000Y-110667440D01*
X174295317Y-110623162D01*
X174511441Y-110484090D01*
X174515977Y-110477452D01*
X175043223Y-110666965D01*
X175613454Y-110639778D01*
X176014005Y-110473864D01*
X176088139Y-110227745D01*
X175260000Y-109399605D01*
X175245858Y-109413748D01*
X175066253Y-109234143D01*
X175080395Y-109220000D01*
X175439605Y-109220000D01*
X176267745Y-110048139D01*
X176513864Y-109974005D01*
X176706965Y-109436777D01*
X176679778Y-108866546D01*
X176513864Y-108465995D01*
X176267745Y-108391861D01*
X175439605Y-109220000D01*
X175080395Y-109220000D01*
X175066253Y-109205858D01*
X175245858Y-109026252D01*
X175260000Y-109040395D01*
X176088139Y-108212255D01*
X176014005Y-107966136D01*
X175476777Y-107773035D01*
X174906546Y-107800222D01*
X174515053Y-107962384D01*
X174311890Y-107823569D01*
X174060000Y-107772560D01*
X172460000Y-107772560D01*
X172224683Y-107816838D01*
X172008559Y-107955910D01*
X171863569Y-108168110D01*
X171812560Y-108420000D01*
X168741165Y-108420000D01*
X168647745Y-108391861D01*
X167819605Y-109220000D01*
X167460395Y-109220000D01*
X167446253Y-109205858D01*
X167625858Y-109026252D01*
X167640000Y-109040395D01*
X168468139Y-108212255D01*
X168394005Y-107966136D01*
X167856777Y-107773035D01*
X167286546Y-107800222D01*
X166895053Y-107962384D01*
X166691890Y-107823569D01*
X166440000Y-107772560D01*
X164840000Y-107772560D01*
X164604683Y-107816838D01*
X164388559Y-107955910D01*
X164243569Y-108168110D01*
X164192560Y-108420000D01*
X109755000Y-108420000D01*
X109755000Y-103750000D01*
X109611513Y-103028642D01*
X109555461Y-102944754D01*
X109202897Y-102417104D01*
X107197585Y-100411793D01*
X107434005Y-100313864D01*
X107508139Y-100067745D01*
X106680000Y-99239605D01*
X106665858Y-99253748D01*
X106486252Y-99074142D01*
X106500395Y-99060000D01*
X106859605Y-99060000D01*
X107687745Y-99888139D01*
X107933864Y-99814005D01*
X108126965Y-99276777D01*
X108099778Y-98706546D01*
X107933864Y-98305995D01*
X107687745Y-98231861D01*
X106859605Y-99060000D01*
X106500395Y-99060000D01*
X105672255Y-98231861D01*
X105426136Y-98305995D01*
X105337733Y-98551941D01*
X105065000Y-98279208D01*
X105065000Y-98052255D01*
X105851861Y-98052255D01*
X106680000Y-98880395D01*
X107508139Y-98052255D01*
X107434005Y-97806136D01*
X106896777Y-97613035D01*
X106326546Y-97640222D01*
X105925995Y-97806136D01*
X105851861Y-98052255D01*
X105065000Y-98052255D01*
X105065000Y-91177745D01*
X105851861Y-91177745D01*
X105925995Y-91423864D01*
X106463223Y-91616965D01*
X107033454Y-91589778D01*
X107434005Y-91423864D01*
X107508139Y-91177745D01*
X106680000Y-90349605D01*
X105851861Y-91177745D01*
X105065000Y-91177745D01*
X105065000Y-89953223D01*
X105233035Y-89953223D01*
X105260222Y-90523454D01*
X105426136Y-90924005D01*
X105672255Y-90998139D01*
X106500395Y-90170000D01*
X106859605Y-90170000D01*
X107687745Y-90998139D01*
X107933864Y-90924005D01*
X108126965Y-90386777D01*
X108099778Y-89816546D01*
X107933864Y-89415995D01*
X107687745Y-89341861D01*
X106859605Y-90170000D01*
X106500395Y-90170000D01*
X105672255Y-89341861D01*
X105426136Y-89415995D01*
X105233035Y-89953223D01*
X105065000Y-89953223D01*
X105065000Y-89162255D01*
X105851861Y-89162255D01*
X106680000Y-89990395D01*
X107508139Y-89162255D01*
X107434005Y-88916136D01*
X106896777Y-88723035D01*
X106326546Y-88750222D01*
X105925995Y-88916136D01*
X105851861Y-89162255D01*
X105065000Y-89162255D01*
X105065000Y-82287745D01*
X105851861Y-82287745D01*
X105925995Y-82533864D01*
X106463223Y-82726965D01*
X107033454Y-82699778D01*
X107434005Y-82533864D01*
X107508139Y-82287745D01*
X106680000Y-81459605D01*
X105851861Y-82287745D01*
X105065000Y-82287745D01*
X105065000Y-81280000D01*
X105021881Y-81063223D01*
X105233035Y-81063223D01*
X105260222Y-81633454D01*
X105426136Y-82034005D01*
X105672255Y-82108139D01*
X106500395Y-81280000D01*
X106859605Y-81280000D01*
X107687745Y-82108139D01*
X107933864Y-82034005D01*
X108126965Y-81496777D01*
X108116630Y-81280000D01*
X124607000Y-81280000D01*
X124607000Y-95302000D01*
X124750487Y-96023359D01*
X125159104Y-96634896D01*
X130195000Y-101670793D01*
X130195000Y-104290000D01*
X130338487Y-105011358D01*
X130561845Y-105345637D01*
X130576838Y-105425317D01*
X130715910Y-105641441D01*
X130928110Y-105786431D01*
X131019570Y-105804952D01*
X131358642Y-106031513D01*
X132080000Y-106175000D01*
X132801358Y-106031513D01*
X133135637Y-105808155D01*
X133215317Y-105793162D01*
X133431441Y-105654090D01*
X133576431Y-105441890D01*
X133586766Y-105390854D01*
X133712424Y-105527966D01*
X134255258Y-105781046D01*
X134493000Y-105660997D01*
X134493000Y-104417000D01*
X134473000Y-104417000D01*
X134473000Y-104163000D01*
X134493000Y-104163000D01*
X134493000Y-102919003D01*
X134747000Y-102919003D01*
X134747000Y-104163000D01*
X134767000Y-104163000D01*
X134767000Y-104417000D01*
X134747000Y-104417000D01*
X134747000Y-105660997D01*
X134984742Y-105781046D01*
X135527576Y-105527966D01*
X135885499Y-105137418D01*
X136044519Y-105375409D01*
X136542509Y-105708155D01*
X137129928Y-105825000D01*
X137190072Y-105825000D01*
X137777491Y-105708155D01*
X138275481Y-105375409D01*
X138608227Y-104877419D01*
X138725072Y-104290000D01*
X138608227Y-103702581D01*
X138275481Y-103204591D01*
X137777491Y-102871845D01*
X137768216Y-102870000D01*
X163636887Y-102870000D01*
X163746120Y-103419151D01*
X164057189Y-103884698D01*
X164522736Y-104195767D01*
X165071887Y-104305000D01*
X165128113Y-104305000D01*
X165677264Y-104195767D01*
X166142811Y-103884698D01*
X166453880Y-103419151D01*
X166563113Y-102870000D01*
X166453880Y-102320849D01*
X166142811Y-101855302D01*
X165677264Y-101544233D01*
X165128113Y-101435000D01*
X165071887Y-101435000D01*
X164522736Y-101544233D01*
X164057189Y-101855302D01*
X163746120Y-102320849D01*
X163636887Y-102870000D01*
X137768216Y-102870000D01*
X137190072Y-102755000D01*
X137129928Y-102755000D01*
X136542509Y-102871845D01*
X136044519Y-103204591D01*
X135885499Y-103442582D01*
X135527576Y-103052034D01*
X134984742Y-102798954D01*
X134747000Y-102919003D01*
X134493000Y-102919003D01*
X134255258Y-102798954D01*
X133965000Y-102934278D01*
X133965000Y-100890000D01*
X133821513Y-100168642D01*
X133821513Y-100168641D01*
X133412896Y-99557103D01*
X132915793Y-99060000D01*
X163636887Y-99060000D01*
X163746120Y-99609151D01*
X164057189Y-100074698D01*
X164522736Y-100385767D01*
X165071887Y-100495000D01*
X165128113Y-100495000D01*
X165677264Y-100385767D01*
X166142811Y-100074698D01*
X166453880Y-99609151D01*
X166563113Y-99060000D01*
X166453880Y-98510849D01*
X166142811Y-98045302D01*
X165677264Y-97734233D01*
X165128113Y-97625000D01*
X165071887Y-97625000D01*
X164522736Y-97734233D01*
X164057189Y-98045302D01*
X163746120Y-98510849D01*
X163636887Y-99060000D01*
X132915793Y-99060000D01*
X128377000Y-94521208D01*
X128377000Y-87630000D01*
X132188275Y-87630000D01*
X132369822Y-88542700D01*
X132886825Y-89316450D01*
X133660575Y-89833453D01*
X134573275Y-90015000D01*
X134666725Y-90015000D01*
X135579425Y-89833453D01*
X136353175Y-89316450D01*
X136870178Y-88542700D01*
X137051725Y-87630000D01*
X136870178Y-86717300D01*
X136353175Y-85943550D01*
X135579425Y-85426547D01*
X134666725Y-85245000D01*
X134573275Y-85245000D01*
X133660575Y-85426547D01*
X132886825Y-85943550D01*
X132369822Y-86717300D01*
X132188275Y-87630000D01*
X128377000Y-87630000D01*
X128377000Y-82060792D01*
X131888896Y-78548896D01*
X132297513Y-77937358D01*
X132441000Y-77216000D01*
X132441000Y-61309039D01*
X149738096Y-61309039D01*
X149898959Y-61697423D01*
X150274866Y-62112389D01*
X150780959Y-62351914D01*
X151003000Y-62230629D01*
X151003000Y-61087000D01*
X151257000Y-61087000D01*
X151257000Y-62230629D01*
X151479041Y-62351914D01*
X151985134Y-62112389D01*
X152361041Y-61697423D01*
X152521904Y-61309039D01*
X152486275Y-61244187D01*
X159854752Y-61244187D01*
X160072757Y-61771800D01*
X160476077Y-62175824D01*
X161003309Y-62394750D01*
X161574187Y-62395248D01*
X162101800Y-62177243D01*
X162505824Y-61773923D01*
X162559862Y-61643785D01*
X162612757Y-61771800D01*
X163016077Y-62175824D01*
X163543309Y-62394750D01*
X164114187Y-62395248D01*
X164641800Y-62177243D01*
X165045824Y-61773923D01*
X165264750Y-61246691D01*
X165265248Y-60675813D01*
X165047243Y-60148200D01*
X164643923Y-59744176D01*
X164116691Y-59525250D01*
X163545813Y-59524752D01*
X163018200Y-59742757D01*
X162614176Y-60146077D01*
X162560138Y-60276215D01*
X162507243Y-60148200D01*
X162103923Y-59744176D01*
X161576691Y-59525250D01*
X161005813Y-59524752D01*
X160478200Y-59742757D01*
X160074176Y-60146077D01*
X159855250Y-60673309D01*
X159854752Y-61244187D01*
X152486275Y-61244187D01*
X152399915Y-61087000D01*
X151257000Y-61087000D01*
X151003000Y-61087000D01*
X149860085Y-61087000D01*
X149738096Y-61309039D01*
X132441000Y-61309039D01*
X132441000Y-60610961D01*
X149738096Y-60610961D01*
X149860085Y-60833000D01*
X151003000Y-60833000D01*
X151003000Y-59689371D01*
X151257000Y-59689371D01*
X151257000Y-60833000D01*
X152399915Y-60833000D01*
X152521904Y-60610961D01*
X152361041Y-60222577D01*
X151985134Y-59807611D01*
X151479041Y-59568086D01*
X151257000Y-59689371D01*
X151003000Y-59689371D01*
X150780959Y-59568086D01*
X150274866Y-59807611D01*
X149898959Y-60222577D01*
X149738096Y-60610961D01*
X132441000Y-60610961D01*
X132441000Y-58157745D01*
X150381861Y-58157745D01*
X150455995Y-58403864D01*
X150993223Y-58596965D01*
X151563454Y-58569778D01*
X151964005Y-58403864D01*
X152038139Y-58157745D01*
X151210000Y-57329605D01*
X150381861Y-58157745D01*
X132441000Y-58157745D01*
X132441000Y-56933223D01*
X149763035Y-56933223D01*
X149790222Y-57503454D01*
X149956136Y-57904005D01*
X150202255Y-57978139D01*
X151030395Y-57150000D01*
X151389605Y-57150000D01*
X152217745Y-57978139D01*
X152463864Y-57904005D01*
X152632735Y-57434187D01*
X154774752Y-57434187D01*
X154992757Y-57961800D01*
X155396077Y-58365824D01*
X155923309Y-58584750D01*
X156494187Y-58585248D01*
X157021800Y-58367243D01*
X157425824Y-57963923D01*
X157644750Y-57436691D01*
X157645248Y-56865813D01*
X157427243Y-56338200D01*
X157023923Y-55934176D01*
X156496691Y-55715250D01*
X155925813Y-55714752D01*
X155398200Y-55932757D01*
X154994176Y-56336077D01*
X154775250Y-56863309D01*
X154774752Y-57434187D01*
X152632735Y-57434187D01*
X152656965Y-57366777D01*
X152629778Y-56796546D01*
X152463864Y-56395995D01*
X152217745Y-56321861D01*
X151389605Y-57150000D01*
X151030395Y-57150000D01*
X150202255Y-56321861D01*
X149956136Y-56395995D01*
X149763035Y-56933223D01*
X132441000Y-56933223D01*
X132441000Y-56142255D01*
X150381861Y-56142255D01*
X151210000Y-56970395D01*
X152038139Y-56142255D01*
X151964005Y-55896136D01*
X151426777Y-55703035D01*
X150856546Y-55730222D01*
X150455995Y-55896136D01*
X150381861Y-56142255D01*
X132441000Y-56142255D01*
X132441000Y-53340000D01*
X136407009Y-53340000D01*
X136539078Y-54003956D01*
X136915179Y-54566830D01*
X137478053Y-54942931D01*
X138142009Y-55075000D01*
X138209991Y-55075000D01*
X138873947Y-54942931D01*
X139436821Y-54566830D01*
X139812922Y-54003956D01*
X139944991Y-53340000D01*
X139812922Y-52676044D01*
X139436821Y-52113170D01*
X138873947Y-51737069D01*
X138209991Y-51605000D01*
X138142009Y-51605000D01*
X137478053Y-51737069D01*
X136915179Y-52113170D01*
X136539078Y-52676044D01*
X136407009Y-53340000D01*
X132441000Y-53340000D01*
X132303440Y-52648439D01*
X132303440Y-52240000D01*
X132259162Y-52004683D01*
X132120090Y-51788559D01*
X131907890Y-51643569D01*
X131656000Y-51592560D01*
X131247561Y-51592560D01*
X130556000Y-51455000D01*
X129864439Y-51592560D01*
X129456000Y-51592560D01*
X129220683Y-51636838D01*
X129004559Y-51775910D01*
X128859569Y-51988110D01*
X128808560Y-52240000D01*
X128808560Y-52648439D01*
X128671000Y-53340000D01*
X128671000Y-76435208D01*
X125159104Y-79947104D01*
X124750487Y-80558641D01*
X124731457Y-80654312D01*
X124607000Y-81280000D01*
X108116630Y-81280000D01*
X108099778Y-80926546D01*
X107933864Y-80525995D01*
X107687745Y-80451861D01*
X106859605Y-81280000D01*
X106500395Y-81280000D01*
X105672255Y-80451861D01*
X105426136Y-80525995D01*
X105233035Y-81063223D01*
X105021881Y-81063223D01*
X104921513Y-80558642D01*
X104921513Y-80558641D01*
X104730156Y-80272255D01*
X105851861Y-80272255D01*
X106680000Y-81100395D01*
X107508139Y-80272255D01*
X107434005Y-80026136D01*
X106896777Y-79833035D01*
X106326546Y-79860222D01*
X105925995Y-80026136D01*
X105851861Y-80272255D01*
X104730156Y-80272255D01*
X104512896Y-79947104D01*
X103242896Y-78677104D01*
X102631359Y-78268487D01*
X101910000Y-78125000D01*
X98078895Y-78125000D01*
X97901117Y-77946912D01*
X97006476Y-77575424D01*
X96037774Y-77574579D01*
X95142486Y-77944504D01*
X94456912Y-78628883D01*
X94085424Y-79523524D01*
X94084579Y-80492226D01*
X93325000Y-80492226D01*
X93325000Y-77000792D01*
X106952896Y-63372897D01*
X107361512Y-62761359D01*
X107445793Y-62337648D01*
X107583309Y-62394750D01*
X108154187Y-62395248D01*
X108681800Y-62177243D01*
X109085824Y-61773923D01*
X109304750Y-61246691D01*
X109305248Y-60675813D01*
X109206772Y-60437482D01*
X109789739Y-60321523D01*
X110401276Y-59912906D01*
X111982907Y-58331276D01*
X112391523Y-57719738D01*
X112472988Y-57310185D01*
X112999928Y-57415000D01*
X113060072Y-57415000D01*
X113296980Y-57367876D01*
X113165197Y-57685244D01*
X113164803Y-58136775D01*
X113337233Y-58554086D01*
X113656235Y-58873645D01*
X114073244Y-59046803D01*
X114524775Y-59047197D01*
X114942086Y-58874767D01*
X115261645Y-58555765D01*
X115434803Y-58138756D01*
X115435197Y-57687225D01*
X115303264Y-57367925D01*
X115539928Y-57415000D01*
X115600072Y-57415000D01*
X115836980Y-57367876D01*
X115705197Y-57685244D01*
X115704803Y-58136775D01*
X115877233Y-58554086D01*
X116196235Y-58873645D01*
X116613244Y-59046803D01*
X117064775Y-59047197D01*
X117482086Y-58874767D01*
X117801645Y-58555765D01*
X117974803Y-58138756D01*
X117975197Y-57687225D01*
X117843264Y-57367925D01*
X118079928Y-57415000D01*
X118140072Y-57415000D01*
X118727491Y-57298155D01*
X119225481Y-56965409D01*
X119558227Y-56467419D01*
X119675072Y-55880000D01*
X119558227Y-55292581D01*
X119225481Y-54794591D01*
X118727491Y-54461845D01*
X118140072Y-54345000D01*
X118079928Y-54345000D01*
X117600000Y-54440464D01*
X117600000Y-52122934D01*
X117955481Y-51885409D01*
X118288227Y-51387419D01*
X118405072Y-50800000D01*
X118288227Y-50212581D01*
X117955481Y-49714591D01*
X117457491Y-49381845D01*
X116870072Y-49265000D01*
X116809928Y-49265000D01*
X116222509Y-49381845D01*
X115724519Y-49714591D01*
X115570000Y-49945845D01*
X115415481Y-49714591D01*
X114917491Y-49381845D01*
X114330072Y-49265000D01*
X114269928Y-49265000D01*
X113682509Y-49381845D01*
X113184519Y-49714591D01*
X113030000Y-49945845D01*
X112875481Y-49714591D01*
X112377491Y-49381845D01*
X111790072Y-49265000D01*
X111729928Y-49265000D01*
X111142509Y-49381845D01*
X110644519Y-49714591D01*
X110485499Y-49952582D01*
X110127576Y-49562034D01*
X109584742Y-49308954D01*
X109347000Y-49429003D01*
X109347000Y-50673000D01*
X109367000Y-50673000D01*
X109367000Y-50927000D01*
X109347000Y-50927000D01*
X109347000Y-52170997D01*
X109584742Y-52291046D01*
X110127576Y-52037966D01*
X110485499Y-51647418D01*
X110644519Y-51885409D01*
X111142509Y-52218155D01*
X111729928Y-52335000D01*
X111790072Y-52335000D01*
X112377491Y-52218155D01*
X112875481Y-51885409D01*
X113030000Y-51654155D01*
X113184519Y-51885409D01*
X113540000Y-52122934D01*
X113540000Y-54440464D01*
X113060072Y-54345000D01*
X112999928Y-54345000D01*
X112412509Y-54461845D01*
X112076122Y-54686611D01*
X111982906Y-54547104D01*
X111371368Y-54138487D01*
X110650010Y-53995000D01*
X109928652Y-54138487D01*
X109763690Y-54248711D01*
X109691513Y-53885850D01*
X109282897Y-53274312D01*
X108205687Y-52197103D01*
X107767343Y-51904210D01*
X107795481Y-51885409D01*
X107954501Y-51647418D01*
X108312424Y-52037966D01*
X108855258Y-52291046D01*
X109093000Y-52170997D01*
X109093000Y-50927000D01*
X109073000Y-50927000D01*
X109073000Y-50673000D01*
X109093000Y-50673000D01*
X109093000Y-49429003D01*
X108855258Y-49308954D01*
X108312424Y-49562034D01*
X107954501Y-49952582D01*
X107795481Y-49714591D01*
X107297491Y-49381845D01*
X106710072Y-49265000D01*
X106649928Y-49265000D01*
X106062509Y-49381845D01*
X105564519Y-49714591D01*
X105410000Y-49945845D01*
X105255481Y-49714591D01*
X104757491Y-49381845D01*
X104170072Y-49265000D01*
X104109928Y-49265000D01*
X103522509Y-49381845D01*
X103024519Y-49714591D01*
X102870000Y-49945845D01*
X102715481Y-49714591D01*
X102217491Y-49381845D01*
X101630072Y-49265000D01*
X101569928Y-49265000D01*
X100982509Y-49381845D01*
X100484519Y-49714591D01*
X100151773Y-50212581D01*
X100034928Y-50800000D01*
X100151773Y-51387419D01*
X100323882Y-51644999D01*
X93169999Y-51644999D01*
X91762936Y-50237936D01*
X91804742Y-50259046D01*
X92347576Y-50005966D01*
X92752240Y-49564417D01*
X92931036Y-49132740D01*
X92890947Y-49053750D01*
X145785000Y-49053750D01*
X145785000Y-49794310D01*
X145881673Y-50027699D01*
X146060302Y-50206327D01*
X146293691Y-50303000D01*
X147034250Y-50303000D01*
X147193000Y-50144250D01*
X147193000Y-48895000D01*
X145943750Y-48895000D01*
X145785000Y-49053750D01*
X92890947Y-49053750D01*
X92810378Y-48895000D01*
X91567000Y-48895000D01*
X91567000Y-48915000D01*
X91313000Y-48915000D01*
X91313000Y-48895000D01*
X91293000Y-48895000D01*
X91293000Y-48641000D01*
X91313000Y-48641000D01*
X91313000Y-47397003D01*
X91567000Y-47397003D01*
X91567000Y-48641000D01*
X92810378Y-48641000D01*
X92931036Y-48403260D01*
X92752240Y-47971583D01*
X92541552Y-47741690D01*
X145785000Y-47741690D01*
X145785000Y-48482250D01*
X145943750Y-48641000D01*
X147193000Y-48641000D01*
X147193000Y-47391750D01*
X147447000Y-47391750D01*
X147447000Y-48641000D01*
X147467000Y-48641000D01*
X147467000Y-48895000D01*
X147447000Y-48895000D01*
X147447000Y-50144250D01*
X147605750Y-50303000D01*
X148277156Y-50303000D01*
X148349457Y-50666480D01*
X148703880Y-51196912D01*
X151563087Y-54056118D01*
X151563089Y-54056121D01*
X151845766Y-54244999D01*
X152093521Y-54410544D01*
X152719209Y-54535001D01*
X159925515Y-54535001D01*
X159793569Y-54728110D01*
X159742560Y-54980000D01*
X159742560Y-56780000D01*
X159786838Y-57015317D01*
X159925910Y-57231441D01*
X160138110Y-57376431D01*
X160390000Y-57427440D01*
X162190000Y-57427440D01*
X162425317Y-57383162D01*
X162641441Y-57244090D01*
X162786431Y-57031890D01*
X162796766Y-56980854D01*
X162922424Y-57117966D01*
X163465258Y-57371046D01*
X163703000Y-57250997D01*
X163703000Y-56007000D01*
X163683000Y-56007000D01*
X163683000Y-55753000D01*
X163703000Y-55753000D01*
X163703000Y-55733000D01*
X163957000Y-55733000D01*
X163957000Y-55753000D01*
X163977000Y-55753000D01*
X163977000Y-56007000D01*
X163957000Y-56007000D01*
X163957000Y-57250997D01*
X164194742Y-57371046D01*
X164737576Y-57117966D01*
X165095499Y-56727418D01*
X165254519Y-56965409D01*
X165752509Y-57298155D01*
X166339928Y-57415000D01*
X166400072Y-57415000D01*
X166987491Y-57298155D01*
X167195000Y-57159502D01*
X167195000Y-63419995D01*
X167194999Y-63420000D01*
X167195000Y-63420005D01*
X167195000Y-74332760D01*
X163952653Y-77575107D01*
X163347774Y-77574579D01*
X162452486Y-77944504D01*
X161766912Y-78628883D01*
X161395424Y-79523524D01*
X161394579Y-80492226D01*
X161764504Y-81387514D01*
X162448883Y-82073088D01*
X163343524Y-82444576D01*
X164312226Y-82445421D01*
X165207514Y-82075496D01*
X165893088Y-81391117D01*
X166264576Y-80496476D01*
X166265108Y-79887132D01*
X170066120Y-76086120D01*
X170420543Y-75555688D01*
X170545001Y-74930000D01*
X170545000Y-74929995D01*
X170545000Y-63500005D01*
X170545001Y-63500000D01*
X170545000Y-63499995D01*
X170545000Y-57106048D01*
X170832509Y-57298155D01*
X171419928Y-57415000D01*
X171480072Y-57415000D01*
X172067491Y-57298155D01*
X172565481Y-56965409D01*
X172720000Y-56734155D01*
X172874519Y-56965409D01*
X173230000Y-57202934D01*
X173230000Y-64963198D01*
X172780146Y-65413052D01*
X172495225Y-65412803D01*
X172077914Y-65585233D01*
X171758355Y-65904235D01*
X171585197Y-66321244D01*
X171584803Y-66772775D01*
X171757233Y-67190086D01*
X172076235Y-67509645D01*
X172493244Y-67682803D01*
X172944775Y-67683197D01*
X173362086Y-67510767D01*
X173681645Y-67191765D01*
X173854803Y-66774756D01*
X173855053Y-66487749D01*
X174198791Y-66144011D01*
X174125197Y-66321244D01*
X174124803Y-66772775D01*
X174297233Y-67190086D01*
X174616235Y-67509645D01*
X175033244Y-67682803D01*
X175484775Y-67683197D01*
X175902086Y-67510767D01*
X176221645Y-67191765D01*
X176394803Y-66774756D01*
X176395197Y-66323225D01*
X176222767Y-65905914D01*
X176020000Y-65702793D01*
X176020000Y-58757059D01*
X176221645Y-58555765D01*
X176394803Y-58138756D01*
X176395197Y-57687225D01*
X176263264Y-57367925D01*
X176499928Y-57415000D01*
X176560072Y-57415000D01*
X176796980Y-57367876D01*
X176665197Y-57685244D01*
X176664803Y-58136775D01*
X176837233Y-58554086D01*
X177040000Y-58757207D01*
X177040000Y-65702941D01*
X176838355Y-65904235D01*
X176665197Y-66321244D01*
X176664803Y-66772775D01*
X176837233Y-67190086D01*
X177156235Y-67509645D01*
X177573244Y-67682803D01*
X178024775Y-67683197D01*
X178442086Y-67510767D01*
X178761645Y-67191765D01*
X178934803Y-66774756D01*
X178935197Y-66323225D01*
X178762767Y-65905914D01*
X178560000Y-65702793D01*
X178560000Y-58757059D01*
X178761645Y-58555765D01*
X178934803Y-58138756D01*
X178935197Y-57687225D01*
X178803264Y-57367925D01*
X179039928Y-57415000D01*
X179100072Y-57415000D01*
X179458835Y-57343637D01*
X180088000Y-57972802D01*
X180088000Y-65702941D01*
X179886355Y-65904235D01*
X179713197Y-66321244D01*
X179712803Y-66772775D01*
X179885233Y-67190086D01*
X180204235Y-67509645D01*
X180621244Y-67682803D01*
X181072775Y-67683197D01*
X181490086Y-67510767D01*
X181809645Y-67191765D01*
X181982803Y-66774756D01*
X181983197Y-66323225D01*
X181810767Y-65905914D01*
X181608000Y-65702793D01*
X181608000Y-63784187D01*
X184492752Y-63784187D01*
X184710757Y-64311800D01*
X185114077Y-64715824D01*
X185641309Y-64934750D01*
X186212187Y-64935248D01*
X186739800Y-64717243D01*
X187143824Y-64313923D01*
X187362750Y-63786691D01*
X187363248Y-63215813D01*
X187145243Y-62688200D01*
X186741923Y-62284176D01*
X186214691Y-62065250D01*
X185643813Y-62064752D01*
X185116200Y-62282757D01*
X184712176Y-62686077D01*
X184493250Y-63213309D01*
X184492752Y-63784187D01*
X181608000Y-63784187D01*
X181608000Y-59507745D01*
X185099861Y-59507745D01*
X185173995Y-59753864D01*
X185711223Y-59946965D01*
X186281454Y-59919778D01*
X186667191Y-59760000D01*
X193852560Y-59760000D01*
X193852560Y-62160000D01*
X193896838Y-62395317D01*
X194035910Y-62611441D01*
X194248110Y-62756431D01*
X194500000Y-62807440D01*
X196900000Y-62807440D01*
X197135317Y-62763162D01*
X197351441Y-62624090D01*
X197496431Y-62411890D01*
X197527761Y-62257175D01*
X202082430Y-62257175D01*
X202205565Y-62544788D01*
X202887734Y-62804707D01*
X203617443Y-62783786D01*
X204194435Y-62544788D01*
X204317570Y-62257175D01*
X203200000Y-61139605D01*
X202082430Y-62257175D01*
X197527761Y-62257175D01*
X197547440Y-62160000D01*
X197547440Y-60647734D01*
X201355293Y-60647734D01*
X201376214Y-61377443D01*
X201615212Y-61954435D01*
X201902825Y-62077570D01*
X203020395Y-60960000D01*
X203379605Y-60960000D01*
X204497175Y-62077570D01*
X204784788Y-61954435D01*
X205044707Y-61272266D01*
X205023786Y-60542557D01*
X204784788Y-59965565D01*
X204497175Y-59842430D01*
X203379605Y-60960000D01*
X203020395Y-60960000D01*
X201902825Y-59842430D01*
X201615212Y-59965565D01*
X201355293Y-60647734D01*
X197547440Y-60647734D01*
X197547440Y-59760000D01*
X197529156Y-59662825D01*
X202082430Y-59662825D01*
X203200000Y-60780395D01*
X204317570Y-59662825D01*
X204194435Y-59375212D01*
X203512266Y-59115293D01*
X202782557Y-59136214D01*
X202205565Y-59375212D01*
X202082430Y-59662825D01*
X197529156Y-59662825D01*
X197503162Y-59524683D01*
X197364090Y-59308559D01*
X197151890Y-59163569D01*
X196900000Y-59112560D01*
X194500000Y-59112560D01*
X194264683Y-59156838D01*
X194048559Y-59295910D01*
X193903569Y-59508110D01*
X193852560Y-59760000D01*
X186667191Y-59760000D01*
X186682005Y-59753864D01*
X186756139Y-59507745D01*
X185928000Y-58679605D01*
X185099861Y-59507745D01*
X181608000Y-59507745D01*
X181608000Y-58283223D01*
X184481035Y-58283223D01*
X184508222Y-58853454D01*
X184674136Y-59254005D01*
X184920255Y-59328139D01*
X185748395Y-58500000D01*
X186107605Y-58500000D01*
X186935745Y-59328139D01*
X187181864Y-59254005D01*
X187374965Y-58716777D01*
X187347778Y-58146546D01*
X187181864Y-57745995D01*
X186935745Y-57671861D01*
X186107605Y-58500000D01*
X185748395Y-58500000D01*
X184920255Y-57671861D01*
X184674136Y-57745995D01*
X184481035Y-58283223D01*
X181608000Y-58283223D01*
X181608000Y-57658000D01*
X181575031Y-57492255D01*
X185099861Y-57492255D01*
X185928000Y-58320395D01*
X186756139Y-57492255D01*
X186682005Y-57246136D01*
X186144777Y-57053035D01*
X185574546Y-57080222D01*
X185173995Y-57246136D01*
X185099861Y-57492255D01*
X181575031Y-57492255D01*
X181550148Y-57367161D01*
X181385401Y-57120599D01*
X180553731Y-56288929D01*
X180635072Y-55880000D01*
X180518227Y-55292581D01*
X180185481Y-54794591D01*
X179687491Y-54461845D01*
X179100072Y-54345000D01*
X179039928Y-54345000D01*
X178452509Y-54461845D01*
X177954519Y-54794591D01*
X177800000Y-55025845D01*
X177645481Y-54794591D01*
X177147491Y-54461845D01*
X176560072Y-54345000D01*
X176499928Y-54345000D01*
X175912509Y-54461845D01*
X175414519Y-54794591D01*
X175260000Y-55025845D01*
X175105481Y-54794591D01*
X174607491Y-54461845D01*
X174020072Y-54345000D01*
X173959928Y-54345000D01*
X173372509Y-54461845D01*
X172874519Y-54794591D01*
X172720000Y-55025845D01*
X172565481Y-54794591D01*
X172067491Y-54461845D01*
X171480072Y-54345000D01*
X171419928Y-54345000D01*
X170832509Y-54461845D01*
X170545000Y-54653952D01*
X170545000Y-54607208D01*
X170525466Y-54509003D01*
X170420543Y-53981520D01*
X170278581Y-53769059D01*
X170066120Y-53451088D01*
X170066117Y-53451086D01*
X168602596Y-51987564D01*
X168755481Y-51885409D01*
X168914501Y-51647418D01*
X169272424Y-52037966D01*
X169815258Y-52291046D01*
X170053000Y-52170997D01*
X170053000Y-50927000D01*
X170033000Y-50927000D01*
X170033000Y-50673000D01*
X170053000Y-50673000D01*
X170053000Y-49429003D01*
X170307000Y-49429003D01*
X170307000Y-50673000D01*
X170327000Y-50673000D01*
X170327000Y-50927000D01*
X170307000Y-50927000D01*
X170307000Y-52170997D01*
X170544742Y-52291046D01*
X171087576Y-52037966D01*
X171445499Y-51647418D01*
X171604519Y-51885409D01*
X172102509Y-52218155D01*
X172689928Y-52335000D01*
X172750072Y-52335000D01*
X173337491Y-52218155D01*
X173835481Y-51885409D01*
X173990000Y-51654155D01*
X174144519Y-51885409D01*
X174642509Y-52218155D01*
X175229928Y-52335000D01*
X175290072Y-52335000D01*
X175877491Y-52218155D01*
X176375481Y-51885409D01*
X176530000Y-51654155D01*
X176684519Y-51885409D01*
X177182509Y-52218155D01*
X177769928Y-52335000D01*
X177830072Y-52335000D01*
X178417491Y-52218155D01*
X178635741Y-52072325D01*
X221354587Y-52072325D01*
X221716916Y-52949229D01*
X222387242Y-53620726D01*
X223263513Y-53984585D01*
X224212325Y-53985413D01*
X225089229Y-53623084D01*
X225760726Y-52952758D01*
X226124585Y-52076487D01*
X226125413Y-51127675D01*
X225763084Y-50250771D01*
X225092758Y-49579274D01*
X224216487Y-49215415D01*
X223267675Y-49214587D01*
X222390771Y-49576916D01*
X221719274Y-50247242D01*
X221355415Y-51123513D01*
X221354587Y-52072325D01*
X178635741Y-52072325D01*
X178915481Y-51885409D01*
X179248227Y-51387419D01*
X179365072Y-50800000D01*
X179248227Y-50212581D01*
X178915481Y-49714591D01*
X178417491Y-49381845D01*
X177830072Y-49265000D01*
X177769928Y-49265000D01*
X177182509Y-49381845D01*
X176684519Y-49714591D01*
X176530000Y-49945845D01*
X176375481Y-49714591D01*
X175877491Y-49381845D01*
X175290072Y-49265000D01*
X175229928Y-49265000D01*
X174642509Y-49381845D01*
X174144519Y-49714591D01*
X173990000Y-49945845D01*
X173835481Y-49714591D01*
X173337491Y-49381845D01*
X172750072Y-49265000D01*
X172689928Y-49265000D01*
X172102509Y-49381845D01*
X171604519Y-49714591D01*
X171445499Y-49952582D01*
X171087576Y-49562034D01*
X170544742Y-49308954D01*
X170307000Y-49429003D01*
X170053000Y-49429003D01*
X169815258Y-49308954D01*
X169272424Y-49562034D01*
X168914501Y-49952582D01*
X168755481Y-49714591D01*
X168257491Y-49381845D01*
X167670072Y-49265000D01*
X167609928Y-49265000D01*
X167022509Y-49381845D01*
X166524519Y-49714591D01*
X166370000Y-49945845D01*
X166215481Y-49714591D01*
X165717491Y-49381845D01*
X165130072Y-49265000D01*
X165069928Y-49265000D01*
X164482509Y-49381845D01*
X163984519Y-49714591D01*
X163830000Y-49945845D01*
X163675481Y-49714591D01*
X163177491Y-49381845D01*
X162590072Y-49265000D01*
X162529928Y-49265000D01*
X161942509Y-49381845D01*
X161444519Y-49714591D01*
X161111773Y-50212581D01*
X160994928Y-50800000D01*
X161087423Y-51265001D01*
X153396448Y-51265001D01*
X152434448Y-50303000D01*
X152527002Y-50303000D01*
X152527002Y-50138998D01*
X152764742Y-50259046D01*
X153307576Y-50005966D01*
X153712240Y-49564417D01*
X153891036Y-49132740D01*
X153770378Y-48895000D01*
X152527000Y-48895000D01*
X152527000Y-48915000D01*
X152273000Y-48915000D01*
X152273000Y-48895000D01*
X152253000Y-48895000D01*
X152253000Y-48641000D01*
X152273000Y-48641000D01*
X152273000Y-47397003D01*
X152527000Y-47397003D01*
X152527000Y-48641000D01*
X153770378Y-48641000D01*
X153891036Y-48403260D01*
X153712240Y-47971583D01*
X153307576Y-47530034D01*
X152764742Y-47276954D01*
X152527000Y-47397003D01*
X152273000Y-47397003D01*
X152035258Y-47276954D01*
X151492424Y-47530034D01*
X151185329Y-47865120D01*
X151016120Y-47611880D01*
X150485687Y-47257457D01*
X149860000Y-47133000D01*
X149234313Y-47257457D01*
X148780128Y-47560933D01*
X148758327Y-47508301D01*
X148579698Y-47329673D01*
X148346309Y-47233000D01*
X147605750Y-47233000D01*
X147447000Y-47391750D01*
X147193000Y-47391750D01*
X147034250Y-47233000D01*
X146293691Y-47233000D01*
X146060302Y-47329673D01*
X145881673Y-47508301D01*
X145785000Y-47741690D01*
X92541552Y-47741690D01*
X92347576Y-47530034D01*
X91804742Y-47276954D01*
X91567000Y-47397003D01*
X91313000Y-47397003D01*
X91075258Y-47276954D01*
X90532424Y-47530034D01*
X90225329Y-47865120D01*
X90056120Y-47611880D01*
X89525687Y-47257457D01*
X88900000Y-47133000D01*
X88274313Y-47257457D01*
X87820128Y-47560933D01*
X87798327Y-47508301D01*
X87619698Y-47329673D01*
X87386309Y-47233000D01*
X86645750Y-47233000D01*
X86487000Y-47391750D01*
X86487000Y-48641000D01*
X86507000Y-48641000D01*
X86507000Y-48895000D01*
X86487000Y-48895000D01*
X86487000Y-50144250D01*
X86607480Y-50264730D01*
X81507103Y-55365107D01*
X81098486Y-55976644D01*
X80959293Y-56676417D01*
X80954999Y-56698003D01*
X80954999Y-77759999D01*
X81098486Y-78481358D01*
X81507103Y-79092895D01*
X82654799Y-80240591D01*
X82654579Y-80492226D01*
X83024504Y-81387514D01*
X83708883Y-82073088D01*
X84603524Y-82444576D01*
X85572226Y-82445421D01*
X86467514Y-82075496D01*
X87153088Y-81391117D01*
X87524576Y-80496476D01*
X87525421Y-79527774D01*
X87155496Y-78632486D01*
X86471117Y-77946912D01*
X85576476Y-77575424D01*
X85320993Y-77575201D01*
X84724999Y-76979207D01*
X84724999Y-61309039D01*
X88778096Y-61309039D01*
X88938959Y-61697423D01*
X89314866Y-62112389D01*
X89820959Y-62351914D01*
X90043000Y-62230629D01*
X90043000Y-61087000D01*
X90297000Y-61087000D01*
X90297000Y-62230629D01*
X90519041Y-62351914D01*
X91025134Y-62112389D01*
X91401041Y-61697423D01*
X91561904Y-61309039D01*
X91439915Y-61087000D01*
X90297000Y-61087000D01*
X90043000Y-61087000D01*
X88900085Y-61087000D01*
X88778096Y-61309039D01*
X84724999Y-61309039D01*
X84724999Y-60610961D01*
X88778096Y-60610961D01*
X88900085Y-60833000D01*
X90043000Y-60833000D01*
X90043000Y-59689371D01*
X90297000Y-59689371D01*
X90297000Y-60833000D01*
X91439915Y-60833000D01*
X91561904Y-60610961D01*
X91401041Y-60222577D01*
X91025134Y-59807611D01*
X90519041Y-59568086D01*
X90297000Y-59689371D01*
X90043000Y-59689371D01*
X89820959Y-59568086D01*
X89314866Y-59807611D01*
X88938959Y-60222577D01*
X88778096Y-60610961D01*
X84724999Y-60610961D01*
X84724999Y-58157745D01*
X89421861Y-58157745D01*
X89495995Y-58403864D01*
X90033223Y-58596965D01*
X90603454Y-58569778D01*
X91004005Y-58403864D01*
X91078139Y-58157745D01*
X90250000Y-57329605D01*
X89421861Y-58157745D01*
X84724999Y-58157745D01*
X84724999Y-57478795D01*
X85270571Y-56933223D01*
X88803035Y-56933223D01*
X88830222Y-57503454D01*
X88996136Y-57904005D01*
X89242255Y-57978139D01*
X90070395Y-57150000D01*
X90429605Y-57150000D01*
X91257745Y-57978139D01*
X91503864Y-57904005D01*
X91672735Y-57434187D01*
X93814752Y-57434187D01*
X94032757Y-57961800D01*
X94436077Y-58365824D01*
X94963309Y-58584750D01*
X95534187Y-58585248D01*
X96061800Y-58367243D01*
X96465824Y-57963923D01*
X96684750Y-57436691D01*
X96685248Y-56865813D01*
X96467243Y-56338200D01*
X96063923Y-55934176D01*
X95536691Y-55715250D01*
X94965813Y-55714752D01*
X94438200Y-55932757D01*
X94034176Y-56336077D01*
X93815250Y-56863309D01*
X93814752Y-57434187D01*
X91672735Y-57434187D01*
X91696965Y-57366777D01*
X91669778Y-56796546D01*
X91503864Y-56395995D01*
X91257745Y-56321861D01*
X90429605Y-57150000D01*
X90070395Y-57150000D01*
X89242255Y-56321861D01*
X88996136Y-56395995D01*
X88803035Y-56933223D01*
X85270571Y-56933223D01*
X86061539Y-56142255D01*
X89421861Y-56142255D01*
X90250000Y-56970395D01*
X91078139Y-56142255D01*
X91004005Y-55896136D01*
X90466777Y-55703035D01*
X89896546Y-55730222D01*
X89495995Y-55896136D01*
X89421861Y-56142255D01*
X86061539Y-56142255D01*
X89198605Y-53005189D01*
X91056311Y-54862895D01*
X91667849Y-55271512D01*
X92389207Y-55414999D01*
X98782560Y-55414999D01*
X98782560Y-56780000D01*
X98826838Y-57015317D01*
X98965910Y-57231441D01*
X99178110Y-57376431D01*
X99430000Y-57427440D01*
X101230000Y-57427440D01*
X101465317Y-57383162D01*
X101681441Y-57244090D01*
X101826431Y-57031890D01*
X101836766Y-56980854D01*
X101962424Y-57117966D01*
X102505258Y-57371046D01*
X102743000Y-57250997D01*
X102743000Y-56007000D01*
X102723000Y-56007000D01*
X102723000Y-55753000D01*
X102743000Y-55753000D01*
X102743000Y-55733000D01*
X102997000Y-55733000D01*
X102997000Y-55753000D01*
X103017000Y-55753000D01*
X103017000Y-56007000D01*
X102997000Y-56007000D01*
X102997000Y-57250997D01*
X103234742Y-57371046D01*
X103777576Y-57117966D01*
X104135499Y-56727418D01*
X104294519Y-56965409D01*
X104792509Y-57298155D01*
X105379928Y-57415000D01*
X105419206Y-57415000D01*
X104287103Y-58547103D01*
X103878486Y-59158640D01*
X103848665Y-59308559D01*
X103749041Y-59809407D01*
X103683923Y-59744176D01*
X103156691Y-59525250D01*
X102585813Y-59524752D01*
X102058200Y-59742757D01*
X101654176Y-60146077D01*
X101600138Y-60276215D01*
X101547243Y-60148200D01*
X101143923Y-59744176D01*
X100616691Y-59525250D01*
X100045813Y-59524752D01*
X99518200Y-59742757D01*
X99114176Y-60146077D01*
X98895250Y-60673309D01*
X98894752Y-61244187D01*
X99112757Y-61771800D01*
X99516077Y-62175824D01*
X100043309Y-62394750D01*
X100614187Y-62395248D01*
X101141800Y-62177243D01*
X101545824Y-61773923D01*
X101599862Y-61643785D01*
X101652757Y-61771800D01*
X102056077Y-62175824D01*
X102583309Y-62394750D01*
X102599443Y-62394764D01*
X90167377Y-74826831D01*
X90107104Y-74867104D01*
X89698487Y-75478642D01*
X89555000Y-76200000D01*
X89555000Y-85579207D01*
X80209209Y-94924999D01*
X77490001Y-94924999D01*
X76768643Y-95068486D01*
X76157105Y-95477103D01*
X73851104Y-97783104D01*
X73442487Y-98394641D01*
X73299000Y-99116000D01*
X68135000Y-99116000D01*
X68135000Y-52072325D01*
X68494587Y-52072325D01*
X68856916Y-52949229D01*
X69527242Y-53620726D01*
X70403513Y-53984585D01*
X71352325Y-53985413D01*
X72229229Y-53623084D01*
X72900726Y-52952758D01*
X73264585Y-52076487D01*
X73265413Y-51127675D01*
X72903084Y-50250771D01*
X72232758Y-49579274D01*
X71356487Y-49215415D01*
X70407675Y-49214587D01*
X69530771Y-49576916D01*
X68859274Y-50247242D01*
X68495415Y-51123513D01*
X68494587Y-52072325D01*
X68135000Y-52072325D01*
X68135000Y-49053750D01*
X84825000Y-49053750D01*
X84825000Y-49794310D01*
X84921673Y-50027699D01*
X85100302Y-50206327D01*
X85333691Y-50303000D01*
X86074250Y-50303000D01*
X86233000Y-50144250D01*
X86233000Y-48895000D01*
X84983750Y-48895000D01*
X84825000Y-49053750D01*
X68135000Y-49053750D01*
X68135000Y-47741690D01*
X84825000Y-47741690D01*
X84825000Y-48482250D01*
X84983750Y-48641000D01*
X86233000Y-48641000D01*
X86233000Y-47391750D01*
X86074250Y-47233000D01*
X85333691Y-47233000D01*
X85100302Y-47329673D01*
X84921673Y-47508301D01*
X84825000Y-47741690D01*
X68135000Y-47741690D01*
X68135000Y-46875000D01*
X226485000Y-46875000D01*
X226485000Y-145225000D01*
M02*
