G04 #@! TF.FileFunction,Soldermask,Top*
%FSLAX46Y46*%
G04 Gerber Fmt 4.6, Leading zero omitted, Abs format (unit mm)*
G04 Created by KiCad (PCBNEW 4.0.7) date 10/02/17 10:26:58*
%MOMM*%
%LPD*%
G01*
G04 APERTURE LIST*
%ADD10C,0.100000*%
%ADD11O,2.500000X4.000000*%
%ADD12C,3.500000*%
%ADD13R,2.400000X2.400000*%
%ADD14C,2.400000*%
%ADD15C,1.600000*%
%ADD16R,1.600000X1.600000*%
%ADD17C,2.100000*%
%ADD18R,2.100000X2.100000*%
%ADD19R,2.200000X2.200000*%
%ADD20O,2.200000X2.200000*%
%ADD21C,3.600000*%
%ADD22O,1.600000X1.600000*%
%ADD23R,1.800000X1.800000*%
%ADD24O,1.800000X1.800000*%
%ADD25O,3.500000X3.500000*%
%ADD26C,1.800000*%
%ADD27C,1.260000*%
G04 APERTURE END LIST*
D10*
D11*
X215900000Y-82648000D03*
X215900000Y-104648000D03*
D12*
X70880000Y-51600000D03*
X223740000Y-51600000D03*
X223740000Y-140500000D03*
X70880000Y-140500000D03*
D13*
X195700000Y-99060000D03*
D14*
X203200000Y-99060000D03*
D13*
X195700000Y-80010000D03*
D14*
X203200000Y-80010000D03*
D13*
X195700000Y-60960000D03*
D14*
X203200000Y-60960000D03*
D15*
X185928000Y-63500000D03*
X185928000Y-58500000D03*
X156210000Y-57150000D03*
X151210000Y-57150000D03*
X168830000Y-60960000D03*
X163830000Y-60960000D03*
D16*
X180880000Y-109220000D03*
D15*
X182880000Y-109220000D03*
D16*
X173260000Y-109220000D03*
D15*
X175260000Y-109220000D03*
D16*
X165640000Y-109220000D03*
D15*
X167640000Y-109220000D03*
D16*
X181920000Y-99060000D03*
D15*
X185420000Y-99060000D03*
D16*
X181920000Y-90170000D03*
D15*
X185420000Y-90170000D03*
D16*
X181920000Y-81280000D03*
D15*
X185420000Y-81280000D03*
X186610000Y-118110000D03*
X181610000Y-118110000D03*
X95250000Y-57150000D03*
X90250000Y-57150000D03*
X107870000Y-60960000D03*
X102870000Y-60960000D03*
D16*
X99600000Y-109220000D03*
D15*
X101600000Y-109220000D03*
D16*
X93250000Y-109220000D03*
D15*
X95250000Y-109220000D03*
D16*
X86900000Y-109220000D03*
D15*
X88900000Y-109220000D03*
D16*
X103180000Y-81280000D03*
D15*
X106680000Y-81280000D03*
D16*
X103180000Y-90170000D03*
D15*
X106680000Y-90170000D03*
D16*
X103180000Y-99060000D03*
D15*
X106680000Y-99060000D03*
X107870000Y-118110000D03*
X102870000Y-118110000D03*
D16*
X121190000Y-114300000D03*
D15*
X123190000Y-114300000D03*
D16*
X145320000Y-114300000D03*
D15*
X147320000Y-114300000D03*
D17*
X205740000Y-124460000D03*
X205740000Y-113660000D03*
D18*
X194940000Y-113660000D03*
D17*
X194940000Y-124460000D03*
D19*
X130810000Y-114300000D03*
D20*
X138430000Y-114300000D03*
D21*
X175260000Y-80010000D03*
X163830000Y-80010000D03*
X96520000Y-80010000D03*
X85090000Y-80010000D03*
D15*
X116840000Y-119380000D03*
D22*
X116840000Y-129540000D03*
D15*
X161290000Y-60960000D03*
D22*
X151130000Y-60960000D03*
D15*
X175260000Y-99060000D03*
D22*
X165100000Y-99060000D03*
D15*
X175260000Y-102870000D03*
D22*
X165100000Y-102870000D03*
D15*
X165100000Y-115570000D03*
D22*
X175260000Y-115570000D03*
D15*
X129540000Y-119380000D03*
D22*
X129540000Y-129540000D03*
D15*
X100330000Y-60960000D03*
D22*
X90170000Y-60960000D03*
D15*
X96520000Y-100330000D03*
D22*
X86360000Y-100330000D03*
D15*
X96520000Y-104140000D03*
D22*
X86360000Y-104140000D03*
D15*
X86360000Y-115570000D03*
D22*
X96520000Y-115570000D03*
D15*
X154940000Y-119380000D03*
D22*
X154940000Y-129540000D03*
D15*
X142240000Y-119380000D03*
D22*
X142240000Y-129540000D03*
D23*
X147320000Y-48768000D03*
D24*
X149860000Y-48768000D03*
X152400000Y-48768000D03*
D23*
X161290000Y-55880000D03*
D24*
X162560000Y-50800000D03*
X163830000Y-55880000D03*
X165100000Y-50800000D03*
X166370000Y-55880000D03*
X167640000Y-50800000D03*
X168910000Y-55880000D03*
X170180000Y-50800000D03*
X171450000Y-55880000D03*
X172720000Y-50800000D03*
X173990000Y-55880000D03*
X175260000Y-50800000D03*
X176530000Y-55880000D03*
X177800000Y-50800000D03*
X179070000Y-55880000D03*
D23*
X86360000Y-48768000D03*
D24*
X88900000Y-48768000D03*
X91440000Y-48768000D03*
D23*
X100330000Y-55880000D03*
D24*
X101600000Y-50800000D03*
X102870000Y-55880000D03*
X104140000Y-50800000D03*
X105410000Y-55880000D03*
X106680000Y-50800000D03*
X107950000Y-55880000D03*
X109220000Y-50800000D03*
X110490000Y-55880000D03*
X111760000Y-50800000D03*
X113030000Y-55880000D03*
X114300000Y-50800000D03*
X115570000Y-55880000D03*
X116840000Y-50800000D03*
X118110000Y-55880000D03*
D25*
X134620000Y-87630000D03*
D23*
X132080000Y-104290000D03*
D24*
X134620000Y-104290000D03*
X137160000Y-104290000D03*
D23*
X114300000Y-137160000D03*
D26*
X116840000Y-137160000D03*
D23*
X127000000Y-137160000D03*
D26*
X129540000Y-137160000D03*
D23*
X152400000Y-137160000D03*
D26*
X154940000Y-137160000D03*
D23*
X139700000Y-137160000D03*
D26*
X142240000Y-137160000D03*
D13*
X215900000Y-74516000D03*
D14*
X215900000Y-69516000D03*
X215900000Y-64516000D03*
X215900000Y-59516000D03*
D13*
X215900000Y-133016000D03*
D14*
X215900000Y-128016000D03*
X215900000Y-123016000D03*
X215900000Y-118016000D03*
X215900000Y-113016000D03*
D16*
X75240000Y-99060000D03*
D15*
X78740000Y-99060000D03*
D16*
X75240000Y-108204000D03*
D15*
X78740000Y-108204000D03*
D16*
X75240000Y-117348000D03*
D15*
X78740000Y-117348000D03*
D16*
X75184000Y-126492000D03*
D15*
X78684000Y-126492000D03*
D19*
X130556000Y-53340000D03*
D20*
X138176000Y-53340000D03*
D27*
X172720000Y-121920000D03*
X170180000Y-119380000D03*
X167640000Y-121920000D03*
X93980000Y-121920000D03*
X91440000Y-119380000D03*
X88900000Y-121920000D03*
M02*
