G04 #@! TF.FileFunction,Soldermask,Bot*
%FSLAX46Y46*%
G04 Gerber Fmt 4.6, Leading zero omitted, Abs format (unit mm)*
G04 Created by KiCad (PCBNEW 4.0.7) date 10/02/17 10:04:21*
%MOMM*%
%LPD*%
G01*
G04 APERTURE LIST*
%ADD10C,0.100000*%
%ADD11C,1.600000*%
%ADD12C,3.500000*%
%ADD13R,1.700000X1.700000*%
%ADD14O,1.700000X1.700000*%
%ADD15R,2.400000X1.600000*%
%ADD16O,2.400000X1.600000*%
%ADD17R,1.600000X1.600000*%
%ADD18O,1.600000X1.600000*%
%ADD19R,1.800000X1.800000*%
%ADD20O,1.800000X1.800000*%
%ADD21R,2.400000X2.400000*%
%ADD22C,2.400000*%
%ADD23C,1.260000*%
%ADD24C,3.250000*%
%ADD25O,2.400000X2.400000*%
%ADD26C,2.000000*%
%ADD27C,1.500000*%
%ADD28C,6.400000*%
%ADD29C,1.800000*%
%ADD30C,3.200000*%
G04 APERTURE END LIST*
D10*
D11*
X105410000Y-66040000D03*
X100410000Y-66040000D03*
D12*
X70880000Y-51600000D03*
X223740000Y-51600000D03*
X223740000Y-140500000D03*
X70880000Y-140500000D03*
D13*
X171450000Y-125095000D03*
D14*
X168910000Y-125095000D03*
D15*
X187960000Y-110490000D03*
D16*
X195580000Y-125730000D03*
X187960000Y-113030000D03*
X195580000Y-123190000D03*
X187960000Y-115570000D03*
X195580000Y-120650000D03*
X187960000Y-118110000D03*
X195580000Y-118110000D03*
X187960000Y-120650000D03*
X195580000Y-115570000D03*
X187960000Y-123190000D03*
X195580000Y-113030000D03*
X187960000Y-125730000D03*
X195580000Y-110490000D03*
D11*
X206375000Y-106045000D03*
X201375000Y-106045000D03*
X169545000Y-117475000D03*
X164545000Y-117475000D03*
D17*
X175165000Y-131445000D03*
D11*
X177165000Y-131445000D03*
X182165000Y-92710000D03*
X177165000Y-92710000D03*
X212170000Y-59055000D03*
X217170000Y-59055000D03*
X187960000Y-50880000D03*
X182960000Y-50880000D03*
X187960000Y-55880000D03*
X182960000Y-55880000D03*
X189310000Y-106045000D03*
X194310000Y-106045000D03*
X169545000Y-106045000D03*
X164545000Y-106045000D03*
X212170000Y-74930000D03*
X217170000Y-74930000D03*
X144700000Y-73025000D03*
X139700000Y-73025000D03*
X156845000Y-117475000D03*
X151845000Y-117475000D03*
X182245000Y-116840000D03*
X177245000Y-116840000D03*
X150575000Y-55880000D03*
X155575000Y-55880000D03*
X157400000Y-106045000D03*
X152400000Y-106045000D03*
X150575000Y-50800000D03*
X155575000Y-50800000D03*
X155495000Y-60325000D03*
X150495000Y-60325000D03*
X90170000Y-86915000D03*
X90170000Y-81915000D03*
X217170000Y-92710000D03*
X212170000Y-92710000D03*
X116285000Y-81280000D03*
X121285000Y-81280000D03*
X88940000Y-107950000D03*
X91440000Y-107950000D03*
X91400000Y-91440000D03*
X88900000Y-91440000D03*
X73025000Y-106600000D03*
X73025000Y-101600000D03*
D17*
X183515000Y-89535000D03*
D18*
X175895000Y-89535000D03*
D17*
X183515000Y-113665000D03*
D18*
X175895000Y-113665000D03*
D19*
X193430000Y-55880000D03*
D20*
X195130000Y-50800000D03*
X196830000Y-55880000D03*
X198530000Y-50800000D03*
X200230000Y-55880000D03*
X201930000Y-50800000D03*
X203630000Y-55880000D03*
X205330000Y-50800000D03*
X207030000Y-55880000D03*
X208730000Y-50800000D03*
X210430000Y-55880000D03*
D19*
X160800000Y-55880000D03*
D20*
X162500000Y-50800000D03*
X164200000Y-55880000D03*
X165900000Y-50800000D03*
X167600000Y-55880000D03*
X169300000Y-50800000D03*
X171000000Y-55880000D03*
X172700000Y-50800000D03*
X174400000Y-55880000D03*
X176100000Y-50800000D03*
X177800000Y-55880000D03*
D15*
X115570000Y-99060000D03*
D16*
X123190000Y-106680000D03*
X115570000Y-101600000D03*
X123190000Y-104140000D03*
X115570000Y-104140000D03*
X123190000Y-101600000D03*
X115570000Y-106680000D03*
X123190000Y-99060000D03*
D15*
X115570000Y-111125000D03*
D16*
X123190000Y-118745000D03*
X115570000Y-113665000D03*
X123190000Y-116205000D03*
X115570000Y-116205000D03*
X123190000Y-113665000D03*
X115570000Y-118745000D03*
X123190000Y-111125000D03*
D13*
X127635000Y-90805000D03*
D14*
X127635000Y-93345000D03*
X127635000Y-95885000D03*
X127635000Y-98425000D03*
X127635000Y-100965000D03*
X127635000Y-103505000D03*
D21*
X215900000Y-133016000D03*
D22*
X215900000Y-128016000D03*
X215900000Y-123016000D03*
X215900000Y-118016000D03*
X215900000Y-113016000D03*
D21*
X215900000Y-69770000D03*
D22*
X215900000Y-64770000D03*
D21*
X215900000Y-87550000D03*
D22*
X215900000Y-82550000D03*
D23*
X199386000Y-129286000D03*
X200656000Y-131826000D03*
X201926000Y-129286000D03*
X203196000Y-131826000D03*
X204466000Y-129286000D03*
X205736000Y-131826000D03*
D24*
X207641000Y-138176000D03*
X197481000Y-138176000D03*
D23*
X183642000Y-129286000D03*
X184912000Y-131826000D03*
X186182000Y-129286000D03*
X187452000Y-131826000D03*
X188722000Y-129286000D03*
X189992000Y-131826000D03*
D24*
X191897000Y-138176000D03*
X181737000Y-138176000D03*
D23*
X155702000Y-129286000D03*
X156972000Y-131826000D03*
X158242000Y-129286000D03*
X159512000Y-131826000D03*
X160782000Y-129286000D03*
X162052000Y-131826000D03*
D24*
X163957000Y-138176000D03*
X153797000Y-138176000D03*
D23*
X140208000Y-129286000D03*
X141478000Y-131826000D03*
X142748000Y-129286000D03*
X144018000Y-131826000D03*
X145288000Y-129286000D03*
X146558000Y-131826000D03*
D24*
X148463000Y-138176000D03*
X138303000Y-138176000D03*
D13*
X152400000Y-125095000D03*
D14*
X149860000Y-125095000D03*
D13*
X132715000Y-126365000D03*
D14*
X130175000Y-126365000D03*
X132715000Y-123825000D03*
X130175000Y-123825000D03*
X132715000Y-121285000D03*
X130175000Y-121285000D03*
X132715000Y-118745000D03*
X130175000Y-118745000D03*
X132715000Y-116205000D03*
X130175000Y-116205000D03*
X132715000Y-113665000D03*
X130175000Y-113665000D03*
X132715000Y-111125000D03*
X130175000Y-111125000D03*
X132715000Y-108585000D03*
X130175000Y-108585000D03*
X132715000Y-106045000D03*
X130175000Y-106045000D03*
X132715000Y-103505000D03*
X130175000Y-103505000D03*
X132715000Y-100965000D03*
X130175000Y-100965000D03*
X132715000Y-98425000D03*
X130175000Y-98425000D03*
X132715000Y-95885000D03*
X130175000Y-95885000D03*
X132715000Y-93345000D03*
X130175000Y-93345000D03*
X132715000Y-90805000D03*
X130175000Y-90805000D03*
X132715000Y-88265000D03*
X130175000Y-88265000D03*
X132715000Y-85725000D03*
X130175000Y-85725000D03*
X132715000Y-83185000D03*
X130175000Y-83185000D03*
X132715000Y-80645000D03*
X130175000Y-80645000D03*
X132715000Y-78105000D03*
X130175000Y-78105000D03*
X132715000Y-75565000D03*
X130175000Y-75565000D03*
X132715000Y-73025000D03*
X130175000Y-73025000D03*
X132715000Y-70485000D03*
X130175000Y-70485000D03*
D13*
X84455000Y-126365000D03*
D14*
X81915000Y-126365000D03*
X84455000Y-123825000D03*
X81915000Y-123825000D03*
X84455000Y-121285000D03*
X81915000Y-121285000D03*
X84455000Y-118745000D03*
X81915000Y-118745000D03*
X84455000Y-116205000D03*
X81915000Y-116205000D03*
X84455000Y-113665000D03*
X81915000Y-113665000D03*
X84455000Y-111125000D03*
X81915000Y-111125000D03*
X84455000Y-108585000D03*
X81915000Y-108585000D03*
X84455000Y-106045000D03*
X81915000Y-106045000D03*
X84455000Y-103505000D03*
X81915000Y-103505000D03*
X84455000Y-100965000D03*
X81915000Y-100965000D03*
X84455000Y-98425000D03*
X81915000Y-98425000D03*
X84455000Y-95885000D03*
X81915000Y-95885000D03*
X84455000Y-93345000D03*
X81915000Y-93345000D03*
X84455000Y-90805000D03*
X81915000Y-90805000D03*
X84455000Y-88265000D03*
X81915000Y-88265000D03*
X84455000Y-85725000D03*
X81915000Y-85725000D03*
X84455000Y-83185000D03*
X81915000Y-83185000D03*
X84455000Y-80645000D03*
X81915000Y-80645000D03*
X84455000Y-78105000D03*
X81915000Y-78105000D03*
X84455000Y-75565000D03*
X81915000Y-75565000D03*
X84455000Y-73025000D03*
X81915000Y-73025000D03*
X84455000Y-70485000D03*
X81915000Y-70485000D03*
D11*
X172085000Y-121285000D03*
D18*
X161925000Y-121285000D03*
D11*
X172085000Y-113665000D03*
D18*
X161925000Y-113665000D03*
D11*
X168275000Y-140970000D03*
D18*
X178435000Y-140970000D03*
D11*
X174625000Y-102870000D03*
D18*
X184785000Y-102870000D03*
D11*
X172085000Y-110490000D03*
D18*
X161925000Y-110490000D03*
D11*
X174625000Y-96520000D03*
D18*
X184785000Y-96520000D03*
D11*
X184785000Y-99695000D03*
D18*
X174625000Y-99695000D03*
D11*
X174625000Y-86360000D03*
D18*
X184785000Y-86360000D03*
D22*
X208280000Y-68580000D03*
D25*
X187960000Y-68580000D03*
D22*
X208280000Y-62230000D03*
D25*
X187960000Y-62230000D03*
D22*
X187960000Y-74930000D03*
D25*
X208280000Y-74930000D03*
D11*
X159385000Y-121285000D03*
D18*
X149225000Y-121285000D03*
D11*
X159385000Y-113665000D03*
D18*
X149225000Y-113665000D03*
D11*
X178435000Y-137160000D03*
D18*
X168275000Y-137160000D03*
D11*
X149225000Y-106045000D03*
D18*
X139065000Y-106045000D03*
D11*
X159385000Y-110490000D03*
D18*
X149225000Y-110490000D03*
D11*
X174625000Y-120650000D03*
D18*
X184785000Y-120650000D03*
D11*
X174625000Y-110490000D03*
D18*
X184785000Y-110490000D03*
D22*
X181610000Y-62230000D03*
D25*
X161290000Y-62230000D03*
D22*
X181610000Y-68580000D03*
D25*
X161290000Y-68580000D03*
D22*
X161290000Y-74930000D03*
D25*
X181610000Y-74930000D03*
D11*
X135890000Y-110490000D03*
D18*
X146050000Y-110490000D03*
D11*
X135890000Y-117475000D03*
D18*
X146050000Y-117475000D03*
D11*
X135890000Y-113665000D03*
D18*
X146050000Y-113665000D03*
D11*
X135890000Y-120650000D03*
D18*
X146050000Y-120650000D03*
D11*
X76835000Y-109220000D03*
D18*
X76835000Y-99060000D03*
D26*
X71605000Y-116840000D03*
X71605000Y-112340000D03*
X78105000Y-116840000D03*
X78105000Y-112340000D03*
D15*
X163195000Y-83820000D03*
D16*
X170815000Y-101600000D03*
X163195000Y-86360000D03*
X170815000Y-99060000D03*
X163195000Y-88900000D03*
X170815000Y-96520000D03*
X163195000Y-91440000D03*
X170815000Y-93980000D03*
X163195000Y-93980000D03*
X170815000Y-91440000D03*
X163195000Y-96520000D03*
X170815000Y-88900000D03*
X163195000Y-99060000D03*
X170815000Y-86360000D03*
X163195000Y-101600000D03*
X170815000Y-83820000D03*
D15*
X187960000Y-86360000D03*
D16*
X195580000Y-101600000D03*
X187960000Y-88900000D03*
X195580000Y-99060000D03*
X187960000Y-91440000D03*
X195580000Y-96520000D03*
X187960000Y-93980000D03*
X195580000Y-93980000D03*
X187960000Y-96520000D03*
X195580000Y-91440000D03*
X187960000Y-99060000D03*
X195580000Y-88900000D03*
X187960000Y-101600000D03*
X195580000Y-86360000D03*
D15*
X200152000Y-110490000D03*
D16*
X207772000Y-125730000D03*
X200152000Y-113030000D03*
X207772000Y-123190000D03*
X200152000Y-115570000D03*
X207772000Y-120650000D03*
X200152000Y-118110000D03*
X207772000Y-118110000D03*
X200152000Y-120650000D03*
X207772000Y-115570000D03*
X200152000Y-123190000D03*
X207772000Y-113030000D03*
X200152000Y-125730000D03*
X207772000Y-110490000D03*
D15*
X138430000Y-83820000D03*
D16*
X146050000Y-99060000D03*
X138430000Y-86360000D03*
X146050000Y-96520000D03*
X138430000Y-88900000D03*
X146050000Y-93980000D03*
X138430000Y-91440000D03*
X146050000Y-91440000D03*
X138430000Y-93980000D03*
X146050000Y-88900000D03*
X138430000Y-96520000D03*
X146050000Y-86360000D03*
X138430000Y-99060000D03*
X146050000Y-83820000D03*
D15*
X200152000Y-86360000D03*
D16*
X207772000Y-101600000D03*
X200152000Y-88900000D03*
X207772000Y-99060000D03*
X200152000Y-91440000D03*
X207772000Y-96520000D03*
X200152000Y-93980000D03*
X207772000Y-93980000D03*
X200152000Y-96520000D03*
X207772000Y-91440000D03*
X200152000Y-99060000D03*
X207772000Y-88900000D03*
X200152000Y-101600000D03*
X207772000Y-86360000D03*
D15*
X115570000Y-86995000D03*
D16*
X123190000Y-94615000D03*
X115570000Y-89535000D03*
X123190000Y-92075000D03*
X115570000Y-92075000D03*
X123190000Y-89535000D03*
X115570000Y-94615000D03*
X123190000Y-86995000D03*
D27*
X90170000Y-102055000D03*
X90170000Y-97155000D03*
D28*
X131440000Y-131445000D03*
X83185000Y-131445000D03*
X128524000Y-65405000D03*
X86487000Y-65405000D03*
D15*
X151130000Y-83820000D03*
D16*
X158750000Y-101600000D03*
X151130000Y-86360000D03*
X158750000Y-99060000D03*
X151130000Y-88900000D03*
X158750000Y-96520000D03*
X151130000Y-91440000D03*
X158750000Y-93980000D03*
X151130000Y-93980000D03*
X158750000Y-91440000D03*
X151130000Y-96520000D03*
X158750000Y-88900000D03*
X151130000Y-99060000D03*
X158750000Y-86360000D03*
X151130000Y-101600000D03*
X158750000Y-83820000D03*
D11*
X184785000Y-123825000D03*
D18*
X174625000Y-123825000D03*
D19*
X220980000Y-74295000D03*
D29*
X220980000Y-76835000D03*
D19*
X220980000Y-92075000D03*
D29*
X220980000Y-94615000D03*
D11*
X212090000Y-96520000D03*
D18*
X212090000Y-106680000D03*
D11*
X215265000Y-96520000D03*
D18*
X215265000Y-106680000D03*
D30*
X97155000Y-127000000D03*
X114300000Y-127000000D03*
D15*
X95250000Y-70485000D03*
D16*
X110490000Y-118745000D03*
X95250000Y-73025000D03*
X110490000Y-116205000D03*
X95250000Y-75565000D03*
X110490000Y-113665000D03*
X95250000Y-78105000D03*
X110490000Y-111125000D03*
X95250000Y-80645000D03*
X110490000Y-108585000D03*
X95250000Y-83185000D03*
X110490000Y-106045000D03*
X95250000Y-85725000D03*
X110490000Y-103505000D03*
X95250000Y-88265000D03*
X110490000Y-100965000D03*
X95250000Y-90805000D03*
X110490000Y-98425000D03*
X95250000Y-93345000D03*
X110490000Y-95885000D03*
X95250000Y-95885000D03*
X110490000Y-93345000D03*
X95250000Y-98425000D03*
X110490000Y-90805000D03*
X95250000Y-100965000D03*
X110490000Y-88265000D03*
X95250000Y-103505000D03*
X110490000Y-85725000D03*
X95250000Y-106045000D03*
X110490000Y-83185000D03*
X95250000Y-108585000D03*
X110490000Y-80645000D03*
X95250000Y-111125000D03*
X110490000Y-78105000D03*
X95250000Y-113665000D03*
X110490000Y-75565000D03*
X95250000Y-116205000D03*
X110490000Y-73025000D03*
X95250000Y-118745000D03*
X110490000Y-70485000D03*
D17*
X168815000Y-131445000D03*
D11*
X170815000Y-131445000D03*
D19*
X154940000Y-74295000D03*
D29*
X154940000Y-76835000D03*
D19*
X149860000Y-74295000D03*
D29*
X149860000Y-76835000D03*
D11*
X145415000Y-67945000D03*
D18*
X155575000Y-67945000D03*
D11*
X145415000Y-64770000D03*
D18*
X155575000Y-64770000D03*
D13*
X76835000Y-90805000D03*
D14*
X74295000Y-90805000D03*
X76835000Y-88265000D03*
X74295000Y-88265000D03*
X76835000Y-85725000D03*
X74295000Y-85725000D03*
X76835000Y-83185000D03*
X74295000Y-83185000D03*
X76835000Y-80645000D03*
X74295000Y-80645000D03*
D26*
X71605000Y-125095000D03*
X71605000Y-120595000D03*
X78105000Y-125095000D03*
X78105000Y-120595000D03*
X71605000Y-133405000D03*
X71605000Y-128905000D03*
X78105000Y-133405000D03*
X78105000Y-128905000D03*
M02*
