G04 #@! TF.FileFunction,Legend,Bot*
%FSLAX46Y46*%
G04 Gerber Fmt 4.6, Leading zero omitted, Abs format (unit mm)*
G04 Created by KiCad (PCBNEW 4.0.7) date 10/02/17 10:04:21*
%MOMM*%
%LPD*%
G01*
G04 APERTURE LIST*
%ADD10C,0.100000*%
%ADD11C,0.120000*%
%ADD12C,0.150000*%
G04 APERTURE END LIST*
D10*
D11*
X134045000Y-125095000D02*
X134045000Y-69155000D01*
X134045000Y-69155000D02*
X128845000Y-69155000D01*
X128845000Y-69155000D02*
X128845000Y-127695000D01*
X128845000Y-127695000D02*
X131445000Y-127695000D01*
X131445000Y-127695000D02*
X131445000Y-125095000D01*
X131445000Y-125095000D02*
X134045000Y-125095000D01*
X134045000Y-126365000D02*
X134045000Y-127695000D01*
X134045000Y-127695000D02*
X132775000Y-127695000D01*
X85785000Y-125095000D02*
X85785000Y-69155000D01*
X85785000Y-69155000D02*
X80585000Y-69155000D01*
X80585000Y-69155000D02*
X80585000Y-127695000D01*
X80585000Y-127695000D02*
X83185000Y-127695000D01*
X83185000Y-127695000D02*
X83185000Y-125095000D01*
X83185000Y-125095000D02*
X85785000Y-125095000D01*
X85785000Y-126365000D02*
X85785000Y-127695000D01*
X85785000Y-127695000D02*
X84515000Y-127695000D01*
D12*
X132183095Y-129147381D02*
X132183095Y-128147381D01*
X131802142Y-128147381D01*
X131706904Y-128195000D01*
X131659285Y-128242619D01*
X131611666Y-128337857D01*
X131611666Y-128480714D01*
X131659285Y-128575952D01*
X131706904Y-128623571D01*
X131802142Y-128671190D01*
X132183095Y-128671190D01*
X130659285Y-129147381D02*
X131230714Y-129147381D01*
X130945000Y-129147381D02*
X130945000Y-128147381D01*
X131040238Y-128290238D01*
X131135476Y-128385476D01*
X131230714Y-128433095D01*
X83923095Y-129147381D02*
X83923095Y-128147381D01*
X83542142Y-128147381D01*
X83446904Y-128195000D01*
X83399285Y-128242619D01*
X83351666Y-128337857D01*
X83351666Y-128480714D01*
X83399285Y-128575952D01*
X83446904Y-128623571D01*
X83542142Y-128671190D01*
X83923095Y-128671190D01*
X82970714Y-128242619D02*
X82923095Y-128195000D01*
X82827857Y-128147381D01*
X82589761Y-128147381D01*
X82494523Y-128195000D01*
X82446904Y-128242619D01*
X82399285Y-128337857D01*
X82399285Y-128433095D01*
X82446904Y-128575952D01*
X83018333Y-129147381D01*
X82399285Y-129147381D01*
M02*
