G04 #@! TF.FileFunction,Copper,L1,Top,Signal*
%FSLAX46Y46*%
G04 Gerber Fmt 4.6, Leading zero omitted, Abs format (unit mm)*
G04 Created by KiCad (PCBNEW 4.0.7) date 10/02/17 10:04:21*
%MOMM*%
%LPD*%
G01*
G04 APERTURE LIST*
%ADD10C,0.100000*%
%ADD11C,0.300000*%
%ADD12C,1.600000*%
%ADD13R,1.700000X1.700000*%
%ADD14O,1.700000X1.700000*%
%ADD15R,2.400000X1.600000*%
%ADD16O,2.400000X1.600000*%
%ADD17R,1.600000X1.600000*%
%ADD18O,1.600000X1.600000*%
%ADD19R,1.800000X1.800000*%
%ADD20O,1.800000X1.800000*%
%ADD21R,2.400000X2.400000*%
%ADD22C,2.400000*%
%ADD23C,1.260000*%
%ADD24C,3.250000*%
%ADD25O,2.400000X2.400000*%
%ADD26C,2.000000*%
%ADD27C,1.500000*%
%ADD28C,6.400000*%
%ADD29C,1.800000*%
%ADD30C,1.000000*%
%ADD31C,0.250000*%
%ADD32C,2.500000*%
%ADD33C,0.350000*%
%ADD34C,3.000000*%
%ADD35C,1.000000*%
G04 APERTURE END LIST*
D10*
D11*
X102096429Y-133242857D02*
X101596429Y-133242857D01*
X101596429Y-134028571D02*
X101596429Y-132528571D01*
X102310715Y-132528571D01*
X103739286Y-134028571D02*
X103239286Y-133314286D01*
X102882143Y-134028571D02*
X102882143Y-132528571D01*
X103453571Y-132528571D01*
X103596429Y-132600000D01*
X103667857Y-132671429D01*
X103739286Y-132814286D01*
X103739286Y-133028571D01*
X103667857Y-133171429D01*
X103596429Y-133242857D01*
X103453571Y-133314286D01*
X102882143Y-133314286D01*
X104667857Y-132528571D02*
X104953571Y-132528571D01*
X105096429Y-132600000D01*
X105239286Y-132742857D01*
X105310714Y-133028571D01*
X105310714Y-133528571D01*
X105239286Y-133814286D01*
X105096429Y-133957143D01*
X104953571Y-134028571D01*
X104667857Y-134028571D01*
X104525000Y-133957143D01*
X104382143Y-133814286D01*
X104310714Y-133528571D01*
X104310714Y-133028571D01*
X104382143Y-132742857D01*
X104525000Y-132600000D01*
X104667857Y-132528571D01*
X105953572Y-134028571D02*
X105953572Y-132528571D01*
X106810715Y-134028571D01*
X106810715Y-132528571D01*
X107310715Y-132528571D02*
X108167858Y-132528571D01*
X107739287Y-134028571D02*
X107739287Y-132528571D01*
D12*
X105410000Y-66040000D03*
X100410000Y-66040000D03*
D13*
X171450000Y-125095000D03*
D14*
X168910000Y-125095000D03*
D15*
X187960000Y-110490000D03*
D16*
X195580000Y-125730000D03*
X187960000Y-113030000D03*
X195580000Y-123190000D03*
X187960000Y-115570000D03*
X195580000Y-120650000D03*
X187960000Y-118110000D03*
X195580000Y-118110000D03*
X187960000Y-120650000D03*
X195580000Y-115570000D03*
X187960000Y-123190000D03*
X195580000Y-113030000D03*
X187960000Y-125730000D03*
X195580000Y-110490000D03*
D12*
X206375000Y-106045000D03*
X201375000Y-106045000D03*
X169545000Y-117475000D03*
X164545000Y-117475000D03*
D17*
X175165000Y-131445000D03*
D12*
X177165000Y-131445000D03*
X182165000Y-92710000D03*
X177165000Y-92710000D03*
X212170000Y-59055000D03*
X217170000Y-59055000D03*
X187960000Y-50880000D03*
X182960000Y-50880000D03*
X187960000Y-55880000D03*
X182960000Y-55880000D03*
X189310000Y-106045000D03*
X194310000Y-106045000D03*
X169545000Y-106045000D03*
X164545000Y-106045000D03*
X212170000Y-74930000D03*
X217170000Y-74930000D03*
X144700000Y-73025000D03*
X139700000Y-73025000D03*
X156845000Y-117475000D03*
X151845000Y-117475000D03*
X182245000Y-116840000D03*
X177245000Y-116840000D03*
X150575000Y-55880000D03*
X155575000Y-55880000D03*
X157400000Y-106045000D03*
X152400000Y-106045000D03*
X150575000Y-50800000D03*
X155575000Y-50800000D03*
X155495000Y-60325000D03*
X150495000Y-60325000D03*
X90170000Y-86915000D03*
X90170000Y-81915000D03*
X217170000Y-92710000D03*
X212170000Y-92710000D03*
X116285000Y-81280000D03*
X121285000Y-81280000D03*
X88940000Y-107950000D03*
X91440000Y-107950000D03*
X91400000Y-91440000D03*
X88900000Y-91440000D03*
X73025000Y-106600000D03*
X73025000Y-101600000D03*
D17*
X183515000Y-89535000D03*
D18*
X175895000Y-89535000D03*
D17*
X183515000Y-113665000D03*
D18*
X175895000Y-113665000D03*
D19*
X193430000Y-55880000D03*
D20*
X195130000Y-50800000D03*
X196830000Y-55880000D03*
X198530000Y-50800000D03*
X200230000Y-55880000D03*
X201930000Y-50800000D03*
X203630000Y-55880000D03*
X205330000Y-50800000D03*
X207030000Y-55880000D03*
X208730000Y-50800000D03*
X210430000Y-55880000D03*
D19*
X160800000Y-55880000D03*
D20*
X162500000Y-50800000D03*
X164200000Y-55880000D03*
X165900000Y-50800000D03*
X167600000Y-55880000D03*
X169300000Y-50800000D03*
X171000000Y-55880000D03*
X172700000Y-50800000D03*
X174400000Y-55880000D03*
X176100000Y-50800000D03*
X177800000Y-55880000D03*
D15*
X115570000Y-99060000D03*
D16*
X123190000Y-106680000D03*
X115570000Y-101600000D03*
X123190000Y-104140000D03*
X115570000Y-104140000D03*
X123190000Y-101600000D03*
X115570000Y-106680000D03*
X123190000Y-99060000D03*
D15*
X115570000Y-111125000D03*
D16*
X123190000Y-118745000D03*
X115570000Y-113665000D03*
X123190000Y-116205000D03*
X115570000Y-116205000D03*
X123190000Y-113665000D03*
X115570000Y-118745000D03*
X123190000Y-111125000D03*
D13*
X127635000Y-90805000D03*
D14*
X127635000Y-93345000D03*
X127635000Y-95885000D03*
X127635000Y-98425000D03*
X127635000Y-100965000D03*
X127635000Y-103505000D03*
D21*
X215900000Y-133016000D03*
D22*
X215900000Y-128016000D03*
X215900000Y-123016000D03*
X215900000Y-118016000D03*
X215900000Y-113016000D03*
D21*
X215900000Y-69770000D03*
D22*
X215900000Y-64770000D03*
D21*
X215900000Y-87550000D03*
D22*
X215900000Y-82550000D03*
D23*
X199386000Y-129286000D03*
X200656000Y-131826000D03*
X201926000Y-129286000D03*
X203196000Y-131826000D03*
X204466000Y-129286000D03*
X205736000Y-131826000D03*
D24*
X207641000Y-138176000D03*
X197481000Y-138176000D03*
D23*
X183642000Y-129286000D03*
X184912000Y-131826000D03*
X186182000Y-129286000D03*
X187452000Y-131826000D03*
X188722000Y-129286000D03*
X189992000Y-131826000D03*
D24*
X191897000Y-138176000D03*
X181737000Y-138176000D03*
D23*
X155702000Y-129286000D03*
X156972000Y-131826000D03*
X158242000Y-129286000D03*
X159512000Y-131826000D03*
X160782000Y-129286000D03*
X162052000Y-131826000D03*
D24*
X163957000Y-138176000D03*
X153797000Y-138176000D03*
D23*
X140208000Y-129286000D03*
X141478000Y-131826000D03*
X142748000Y-129286000D03*
X144018000Y-131826000D03*
X145288000Y-129286000D03*
X146558000Y-131826000D03*
D24*
X148463000Y-138176000D03*
X138303000Y-138176000D03*
D13*
X152400000Y-125095000D03*
D14*
X149860000Y-125095000D03*
D13*
X132715000Y-126365000D03*
D14*
X130175000Y-126365000D03*
X132715000Y-123825000D03*
X130175000Y-123825000D03*
X132715000Y-121285000D03*
X130175000Y-121285000D03*
X132715000Y-118745000D03*
X130175000Y-118745000D03*
X132715000Y-116205000D03*
X130175000Y-116205000D03*
X132715000Y-113665000D03*
X130175000Y-113665000D03*
X132715000Y-111125000D03*
X130175000Y-111125000D03*
X132715000Y-108585000D03*
X130175000Y-108585000D03*
X132715000Y-106045000D03*
X130175000Y-106045000D03*
X132715000Y-103505000D03*
X130175000Y-103505000D03*
X132715000Y-100965000D03*
X130175000Y-100965000D03*
X132715000Y-98425000D03*
X130175000Y-98425000D03*
X132715000Y-95885000D03*
X130175000Y-95885000D03*
X132715000Y-93345000D03*
X130175000Y-93345000D03*
X132715000Y-90805000D03*
X130175000Y-90805000D03*
X132715000Y-88265000D03*
X130175000Y-88265000D03*
X132715000Y-85725000D03*
X130175000Y-85725000D03*
X132715000Y-83185000D03*
X130175000Y-83185000D03*
X132715000Y-80645000D03*
X130175000Y-80645000D03*
X132715000Y-78105000D03*
X130175000Y-78105000D03*
X132715000Y-75565000D03*
X130175000Y-75565000D03*
X132715000Y-73025000D03*
X130175000Y-73025000D03*
X132715000Y-70485000D03*
X130175000Y-70485000D03*
D13*
X84455000Y-126365000D03*
D14*
X81915000Y-126365000D03*
X84455000Y-123825000D03*
X81915000Y-123825000D03*
X84455000Y-121285000D03*
X81915000Y-121285000D03*
X84455000Y-118745000D03*
X81915000Y-118745000D03*
X84455000Y-116205000D03*
X81915000Y-116205000D03*
X84455000Y-113665000D03*
X81915000Y-113665000D03*
X84455000Y-111125000D03*
X81915000Y-111125000D03*
X84455000Y-108585000D03*
X81915000Y-108585000D03*
X84455000Y-106045000D03*
X81915000Y-106045000D03*
X84455000Y-103505000D03*
X81915000Y-103505000D03*
X84455000Y-100965000D03*
X81915000Y-100965000D03*
X84455000Y-98425000D03*
X81915000Y-98425000D03*
X84455000Y-95885000D03*
X81915000Y-95885000D03*
X84455000Y-93345000D03*
X81915000Y-93345000D03*
X84455000Y-90805000D03*
X81915000Y-90805000D03*
X84455000Y-88265000D03*
X81915000Y-88265000D03*
X84455000Y-85725000D03*
X81915000Y-85725000D03*
X84455000Y-83185000D03*
X81915000Y-83185000D03*
X84455000Y-80645000D03*
X81915000Y-80645000D03*
X84455000Y-78105000D03*
X81915000Y-78105000D03*
X84455000Y-75565000D03*
X81915000Y-75565000D03*
X84455000Y-73025000D03*
X81915000Y-73025000D03*
X84455000Y-70485000D03*
X81915000Y-70485000D03*
D12*
X172085000Y-121285000D03*
D18*
X161925000Y-121285000D03*
D12*
X172085000Y-113665000D03*
D18*
X161925000Y-113665000D03*
D12*
X168275000Y-140970000D03*
D18*
X178435000Y-140970000D03*
D12*
X174625000Y-102870000D03*
D18*
X184785000Y-102870000D03*
D12*
X172085000Y-110490000D03*
D18*
X161925000Y-110490000D03*
D12*
X174625000Y-96520000D03*
D18*
X184785000Y-96520000D03*
D12*
X184785000Y-99695000D03*
D18*
X174625000Y-99695000D03*
D12*
X174625000Y-86360000D03*
D18*
X184785000Y-86360000D03*
D22*
X208280000Y-68580000D03*
D25*
X187960000Y-68580000D03*
D22*
X208280000Y-62230000D03*
D25*
X187960000Y-62230000D03*
D22*
X187960000Y-74930000D03*
D25*
X208280000Y-74930000D03*
D12*
X159385000Y-121285000D03*
D18*
X149225000Y-121285000D03*
D12*
X159385000Y-113665000D03*
D18*
X149225000Y-113665000D03*
D12*
X178435000Y-137160000D03*
D18*
X168275000Y-137160000D03*
D12*
X149225000Y-106045000D03*
D18*
X139065000Y-106045000D03*
D12*
X159385000Y-110490000D03*
D18*
X149225000Y-110490000D03*
D12*
X174625000Y-120650000D03*
D18*
X184785000Y-120650000D03*
D12*
X174625000Y-110490000D03*
D18*
X184785000Y-110490000D03*
D22*
X181610000Y-62230000D03*
D25*
X161290000Y-62230000D03*
D22*
X181610000Y-68580000D03*
D25*
X161290000Y-68580000D03*
D22*
X161290000Y-74930000D03*
D25*
X181610000Y-74930000D03*
D12*
X135890000Y-110490000D03*
D18*
X146050000Y-110490000D03*
D12*
X135890000Y-117475000D03*
D18*
X146050000Y-117475000D03*
D12*
X135890000Y-113665000D03*
D18*
X146050000Y-113665000D03*
D12*
X135890000Y-120650000D03*
D18*
X146050000Y-120650000D03*
D12*
X76835000Y-109220000D03*
D18*
X76835000Y-99060000D03*
D26*
X71605000Y-116840000D03*
X71605000Y-112340000D03*
X78105000Y-116840000D03*
X78105000Y-112340000D03*
D15*
X163195000Y-83820000D03*
D16*
X170815000Y-101600000D03*
X163195000Y-86360000D03*
X170815000Y-99060000D03*
X163195000Y-88900000D03*
X170815000Y-96520000D03*
X163195000Y-91440000D03*
X170815000Y-93980000D03*
X163195000Y-93980000D03*
X170815000Y-91440000D03*
X163195000Y-96520000D03*
X170815000Y-88900000D03*
X163195000Y-99060000D03*
X170815000Y-86360000D03*
X163195000Y-101600000D03*
X170815000Y-83820000D03*
D15*
X187960000Y-86360000D03*
D16*
X195580000Y-101600000D03*
X187960000Y-88900000D03*
X195580000Y-99060000D03*
X187960000Y-91440000D03*
X195580000Y-96520000D03*
X187960000Y-93980000D03*
X195580000Y-93980000D03*
X187960000Y-96520000D03*
X195580000Y-91440000D03*
X187960000Y-99060000D03*
X195580000Y-88900000D03*
X187960000Y-101600000D03*
X195580000Y-86360000D03*
D15*
X200152000Y-110490000D03*
D16*
X207772000Y-125730000D03*
X200152000Y-113030000D03*
X207772000Y-123190000D03*
X200152000Y-115570000D03*
X207772000Y-120650000D03*
X200152000Y-118110000D03*
X207772000Y-118110000D03*
X200152000Y-120650000D03*
X207772000Y-115570000D03*
X200152000Y-123190000D03*
X207772000Y-113030000D03*
X200152000Y-125730000D03*
X207772000Y-110490000D03*
D15*
X138430000Y-83820000D03*
D16*
X146050000Y-99060000D03*
X138430000Y-86360000D03*
X146050000Y-96520000D03*
X138430000Y-88900000D03*
X146050000Y-93980000D03*
X138430000Y-91440000D03*
X146050000Y-91440000D03*
X138430000Y-93980000D03*
X146050000Y-88900000D03*
X138430000Y-96520000D03*
X146050000Y-86360000D03*
X138430000Y-99060000D03*
X146050000Y-83820000D03*
D15*
X200152000Y-86360000D03*
D16*
X207772000Y-101600000D03*
X200152000Y-88900000D03*
X207772000Y-99060000D03*
X200152000Y-91440000D03*
X207772000Y-96520000D03*
X200152000Y-93980000D03*
X207772000Y-93980000D03*
X200152000Y-96520000D03*
X207772000Y-91440000D03*
X200152000Y-99060000D03*
X207772000Y-88900000D03*
X200152000Y-101600000D03*
X207772000Y-86360000D03*
D15*
X115570000Y-86995000D03*
D16*
X123190000Y-94615000D03*
X115570000Y-89535000D03*
X123190000Y-92075000D03*
X115570000Y-92075000D03*
X123190000Y-89535000D03*
X115570000Y-94615000D03*
X123190000Y-86995000D03*
D27*
X90170000Y-102055000D03*
X90170000Y-97155000D03*
D28*
X131440000Y-131445000D03*
X83185000Y-131445000D03*
X128524000Y-65405000D03*
X86487000Y-65405000D03*
D15*
X151130000Y-83820000D03*
D16*
X158750000Y-101600000D03*
X151130000Y-86360000D03*
X158750000Y-99060000D03*
X151130000Y-88900000D03*
X158750000Y-96520000D03*
X151130000Y-91440000D03*
X158750000Y-93980000D03*
X151130000Y-93980000D03*
X158750000Y-91440000D03*
X151130000Y-96520000D03*
X158750000Y-88900000D03*
X151130000Y-99060000D03*
X158750000Y-86360000D03*
X151130000Y-101600000D03*
X158750000Y-83820000D03*
D12*
X184785000Y-123825000D03*
D18*
X174625000Y-123825000D03*
D19*
X220980000Y-74295000D03*
D29*
X220980000Y-76835000D03*
D19*
X220980000Y-92075000D03*
D29*
X220980000Y-94615000D03*
D12*
X212090000Y-96520000D03*
D18*
X212090000Y-106680000D03*
D12*
X215265000Y-96520000D03*
D18*
X215265000Y-106680000D03*
D15*
X95250000Y-70485000D03*
D16*
X110490000Y-118745000D03*
X95250000Y-73025000D03*
X110490000Y-116205000D03*
X95250000Y-75565000D03*
X110490000Y-113665000D03*
X95250000Y-78105000D03*
X110490000Y-111125000D03*
X95250000Y-80645000D03*
X110490000Y-108585000D03*
X95250000Y-83185000D03*
X110490000Y-106045000D03*
X95250000Y-85725000D03*
X110490000Y-103505000D03*
X95250000Y-88265000D03*
X110490000Y-100965000D03*
X95250000Y-90805000D03*
X110490000Y-98425000D03*
X95250000Y-93345000D03*
X110490000Y-95885000D03*
X95250000Y-95885000D03*
X110490000Y-93345000D03*
X95250000Y-98425000D03*
X110490000Y-90805000D03*
X95250000Y-100965000D03*
X110490000Y-88265000D03*
X95250000Y-103505000D03*
X110490000Y-85725000D03*
X95250000Y-106045000D03*
X110490000Y-83185000D03*
X95250000Y-108585000D03*
X110490000Y-80645000D03*
X95250000Y-111125000D03*
X110490000Y-78105000D03*
X95250000Y-113665000D03*
X110490000Y-75565000D03*
X95250000Y-116205000D03*
X110490000Y-73025000D03*
X95250000Y-118745000D03*
X110490000Y-70485000D03*
D17*
X168815000Y-131445000D03*
D12*
X170815000Y-131445000D03*
D19*
X154940000Y-74295000D03*
D29*
X154940000Y-76835000D03*
D19*
X149860000Y-74295000D03*
D29*
X149860000Y-76835000D03*
D12*
X145415000Y-67945000D03*
D18*
X155575000Y-67945000D03*
D12*
X145415000Y-64770000D03*
D18*
X155575000Y-64770000D03*
D13*
X76835000Y-90805000D03*
D14*
X74295000Y-90805000D03*
X76835000Y-88265000D03*
X74295000Y-88265000D03*
X76835000Y-85725000D03*
X74295000Y-85725000D03*
X76835000Y-83185000D03*
X74295000Y-83185000D03*
X76835000Y-80645000D03*
X74295000Y-80645000D03*
D26*
X71605000Y-125095000D03*
X71605000Y-120595000D03*
X78105000Y-125095000D03*
X78105000Y-120595000D03*
X71605000Y-133405000D03*
X71605000Y-128905000D03*
X78105000Y-133405000D03*
X78105000Y-128905000D03*
D30*
X166000871Y-86625871D03*
X96964990Y-92075000D03*
X117475000Y-94615000D03*
X177410018Y-102480018D03*
X174625000Y-106045000D03*
X80010000Y-106045000D03*
X78112443Y-89400658D03*
X86949989Y-92079745D03*
X80010000Y-92075000D03*
X139747587Y-76835000D03*
X156210000Y-87630000D03*
X172625001Y-136525000D03*
X196649963Y-52699979D03*
X155575000Y-86360000D03*
X148780010Y-123983186D03*
X160020000Y-53975000D03*
X205052054Y-93980000D03*
X197485000Y-68580000D03*
X183515000Y-53340000D03*
X185420000Y-92710000D03*
X190760035Y-96520000D03*
X177800000Y-73025000D03*
X127000000Y-116205000D03*
X128270000Y-107315000D03*
X127825010Y-115125010D03*
X144099983Y-113665000D03*
X146685000Y-102235000D03*
X141605000Y-121475010D03*
X121847892Y-123535160D03*
X120650000Y-89535000D03*
X186055000Y-139700000D03*
X125889378Y-128047271D03*
X187325000Y-139700000D03*
X168275000Y-91440000D03*
X167005000Y-95250000D03*
X155949969Y-91397550D03*
X163195000Y-111760000D03*
X153670000Y-97155000D03*
X131445000Y-114840001D03*
X161290000Y-80650021D03*
X131445000Y-81915000D03*
X201984873Y-87575127D03*
X201549988Y-95400168D03*
X179070000Y-88900000D03*
X179070000Y-83185000D03*
X176585016Y-108025041D03*
X189230000Y-108585000D03*
X173355000Y-82550000D03*
X90474374Y-121925021D03*
X153670000Y-88265000D03*
X210185000Y-90170000D03*
X169545000Y-85090000D03*
X193675000Y-85725000D03*
X157480000Y-85090000D03*
X190500000Y-97790000D03*
X198755000Y-95250000D03*
X161175031Y-107200031D03*
X202950013Y-107950000D03*
X154305000Y-93980000D03*
X154305000Y-90170000D03*
X203402042Y-94355737D03*
X203852035Y-99246778D03*
X205433571Y-117544829D03*
X201295000Y-103505000D03*
X205105000Y-103505000D03*
X202952031Y-88898517D03*
X159385000Y-108585000D03*
X210185000Y-111760000D03*
X137216277Y-126308723D03*
X138040011Y-132373260D03*
X134221846Y-137965886D03*
X127635000Y-120650000D03*
X111704991Y-102235000D03*
X113665000Y-106680000D03*
X118935010Y-112395000D03*
X119380000Y-102870000D03*
X118110000Y-113665000D03*
X118110000Y-104140000D03*
X113640644Y-95885000D03*
X112815634Y-107527706D03*
X97790000Y-99695000D03*
X105410000Y-85725000D03*
X105410000Y-117475000D03*
X88900000Y-117475000D03*
X106680000Y-88265000D03*
X106680000Y-114935000D03*
X87630000Y-114935000D03*
X68580000Y-118745000D03*
X68580000Y-62865000D03*
X86995000Y-120015000D03*
X107950000Y-118745000D03*
X107950000Y-78105000D03*
X69850000Y-57150000D03*
X97790000Y-97155000D03*
X97790000Y-78740000D03*
X69698167Y-61054989D03*
X73811046Y-60604978D03*
D31*
X166266742Y-86360000D02*
X166000871Y-86625871D01*
X170815000Y-86360000D02*
X166266742Y-86360000D01*
X169545000Y-117475000D02*
X165735000Y-113665000D01*
X165735000Y-113665000D02*
X161925000Y-113665000D01*
X98234990Y-93345000D02*
X97464989Y-92574999D01*
X110490000Y-93345000D02*
X98234990Y-93345000D01*
X97464989Y-92574999D02*
X96964990Y-92075000D01*
X117475000Y-94615000D02*
X117974999Y-94115001D01*
X122690001Y-94115001D02*
X123190000Y-94615000D01*
X117974999Y-94115001D02*
X122690001Y-94115001D01*
X134620000Y-125095000D02*
X134620000Y-125560000D01*
X134620000Y-125560000D02*
X133815000Y-126365000D01*
X133815000Y-126365000D02*
X132715000Y-126365000D01*
X138430000Y-125095000D02*
X134620000Y-125095000D01*
X139700000Y-126365000D02*
X138430000Y-125095000D01*
X139827000Y-126365000D02*
X139700000Y-126365000D01*
X75144999Y-79795001D02*
X74295000Y-80645000D01*
X78010001Y-76929999D02*
X75144999Y-79795001D01*
X85184999Y-76929999D02*
X78010001Y-76929999D01*
X90170000Y-81915000D02*
X85184999Y-76929999D01*
X74295000Y-90805000D02*
X74295000Y-100330000D01*
X74295000Y-100330000D02*
X73025000Y-101600000D01*
X74295000Y-80645000D02*
X73119999Y-81820001D01*
X73119999Y-81820001D02*
X73119999Y-89629999D01*
X73119999Y-89629999D02*
X73445001Y-89955001D01*
X73445001Y-89955001D02*
X74295000Y-90805000D01*
X142748000Y-129286000D02*
X139827000Y-126365000D01*
X145288000Y-129286000D02*
X144397046Y-129286000D01*
X144397046Y-129286000D02*
X142748000Y-129286000D01*
X158242000Y-129286000D02*
X157286999Y-128330999D01*
X157286999Y-128330999D02*
X146243001Y-128330999D01*
X146243001Y-128330999D02*
X145917999Y-128656001D01*
X145917999Y-128656001D02*
X145288000Y-129286000D01*
X160782000Y-129286000D02*
X158242000Y-129286000D01*
X184785000Y-102870000D02*
X177800000Y-102870000D01*
X177800000Y-102870000D02*
X177410018Y-102480018D01*
X163745001Y-118274999D02*
X164545000Y-117475000D01*
X162969988Y-119050012D02*
X163745001Y-118274999D01*
X153420012Y-119050012D02*
X162969988Y-119050012D01*
X151845000Y-117475000D02*
X153420012Y-119050012D01*
X195441370Y-106045000D02*
X201375000Y-106045000D01*
X194310000Y-106045000D02*
X195441370Y-106045000D01*
X175895000Y-89535000D02*
X171450000Y-89535000D01*
X171450000Y-89535000D02*
X170815000Y-88900000D01*
X200152000Y-125730000D02*
X195580000Y-125730000D01*
X174625000Y-106045000D02*
X173499999Y-104919999D01*
X173499999Y-104919999D02*
X169454999Y-104919999D01*
X169454999Y-104919999D02*
X163595000Y-99060000D01*
X163595000Y-99060000D02*
X163195000Y-99060000D01*
X105410000Y-66040000D02*
X120650000Y-66040000D01*
X120650000Y-66040000D02*
X126459999Y-71849999D01*
X126459999Y-71849999D02*
X143524999Y-71849999D01*
X143524999Y-71849999D02*
X143900001Y-72225001D01*
X143900001Y-72225001D02*
X144700000Y-73025000D01*
X80010000Y-92075000D02*
X80010000Y-106045000D01*
X119615000Y-96935000D02*
X121740000Y-99060000D01*
X111940000Y-96935000D02*
X119615000Y-96935000D01*
X121740000Y-99060000D02*
X123190000Y-99060000D01*
X110890000Y-95885000D02*
X111940000Y-96935000D01*
X110490000Y-95885000D02*
X110890000Y-95885000D01*
X80010000Y-92075000D02*
X86945244Y-92075000D01*
X86945244Y-92075000D02*
X86949989Y-92079745D01*
X96700000Y-93345000D02*
X95250000Y-93345000D01*
X97150011Y-93795011D02*
X96700000Y-93345000D01*
X99966421Y-93795011D02*
X97150011Y-93795011D01*
X102056410Y-95885000D02*
X99966421Y-93795011D01*
X110490000Y-95885000D02*
X102056410Y-95885000D01*
X158585001Y-122084999D02*
X159385000Y-121285000D01*
X136896003Y-122975001D02*
X148992817Y-122975001D01*
X132715000Y-123825000D02*
X134175001Y-122364999D01*
X156845000Y-123825000D02*
X158585001Y-122084999D01*
X148992817Y-122975001D02*
X149842816Y-123825000D01*
X149842816Y-123825000D02*
X156845000Y-123825000D01*
X136286001Y-122364999D02*
X136896003Y-122975001D01*
X134175001Y-122364999D02*
X136286001Y-122364999D01*
X139652588Y-76929999D02*
X120635001Y-76929999D01*
X120635001Y-76929999D02*
X117084999Y-80480001D01*
X139747587Y-76835000D02*
X139652588Y-76929999D01*
X117084999Y-80480001D02*
X116285000Y-81280000D01*
X95250000Y-93345000D02*
X94850000Y-93345000D01*
X94850000Y-93345000D02*
X93724990Y-92219990D01*
X93724990Y-92219990D02*
X93724990Y-90469990D01*
X93724990Y-90469990D02*
X90969999Y-87714999D01*
X90969999Y-87714999D02*
X90170000Y-86915000D01*
X135890000Y-120650000D02*
X132715000Y-123825000D01*
X151130000Y-88900000D02*
X146050000Y-83820000D01*
X156067873Y-87630000D02*
X156774979Y-87630000D01*
X152990002Y-87439998D02*
X155877871Y-87439998D01*
X155877871Y-87439998D02*
X156067873Y-87630000D01*
X151530000Y-88900000D02*
X152990002Y-87439998D01*
X151130000Y-88900000D02*
X151530000Y-88900000D01*
X160184999Y-120485001D02*
X159385000Y-121285000D01*
X161169977Y-119500023D02*
X160184999Y-120485001D01*
X170300023Y-119500023D02*
X161169977Y-119500023D01*
X172085000Y-121285000D02*
X170300023Y-119500023D01*
X178435000Y-137160000D02*
X173260001Y-137160000D01*
X173260001Y-137160000D02*
X172625001Y-136525000D01*
X156774979Y-87630000D02*
X162975000Y-87630000D01*
X162975000Y-87630000D02*
X163195000Y-87850000D01*
X163195000Y-87850000D02*
X163195000Y-88900000D01*
X130175000Y-123825000D02*
X132715000Y-123825000D01*
X187960000Y-115570000D02*
X187560000Y-115570000D01*
X187560000Y-115570000D02*
X182480000Y-120650000D01*
X182480000Y-120650000D02*
X175756370Y-120650000D01*
X175756370Y-120650000D02*
X174625000Y-120650000D01*
X174625000Y-96520000D02*
X170815000Y-96520000D01*
X206375000Y-106045000D02*
X205249999Y-104919999D01*
X205249999Y-104919999D02*
X190435001Y-104919999D01*
X190435001Y-104919999D02*
X190109999Y-105245001D01*
X190109999Y-105245001D02*
X189310000Y-106045000D01*
X190154978Y-53074978D02*
X196274964Y-53074978D01*
X196274964Y-53074978D02*
X196649963Y-52699979D01*
X187960000Y-50880000D02*
X190154978Y-53074978D01*
D32*
X199261012Y-71280010D02*
X195661031Y-74879991D01*
X196830000Y-57152792D02*
X196830000Y-55880000D01*
X196830000Y-66348998D02*
X196830000Y-57152792D01*
X195661031Y-74879991D02*
X189400401Y-74879991D01*
X215900000Y-64770000D02*
X214700001Y-65969999D01*
X214700001Y-65969999D02*
X214700001Y-65978389D01*
X195534999Y-67643999D02*
X196830000Y-66348998D01*
X214700001Y-65978389D02*
X209398380Y-71280010D01*
X189400401Y-74879991D02*
X195534999Y-68745393D01*
X209398380Y-71280010D02*
X199261012Y-71280010D01*
X195534999Y-68745393D02*
X195534999Y-67643999D01*
X189400401Y-74879991D02*
X188010009Y-74879991D01*
D31*
X183759999Y-50080001D02*
X182960000Y-50880000D01*
X184414999Y-49425001D02*
X183759999Y-50080001D01*
X191527601Y-49425001D02*
X184414999Y-49425001D01*
X194477609Y-52375009D02*
X191527601Y-49425001D01*
X195782391Y-52375009D02*
X194477609Y-52375009D01*
X196457401Y-51699999D02*
X195782391Y-52375009D01*
X197630001Y-51699999D02*
X196457401Y-51699999D01*
X198530000Y-50800000D02*
X197630001Y-51699999D01*
X205330000Y-50800000D02*
X202605011Y-53524989D01*
X202605011Y-53524989D02*
X190315011Y-53524989D01*
X190315011Y-53524989D02*
X188759999Y-55080001D01*
X188759999Y-55080001D02*
X187960000Y-55880000D01*
X192280000Y-55880000D02*
X193430000Y-55880000D01*
X190559991Y-57600009D02*
X192280000Y-55880000D01*
X184680009Y-57600009D02*
X190559991Y-57600009D01*
X182960000Y-55880000D02*
X184680009Y-57600009D01*
D32*
X185309999Y-73761611D02*
X186891629Y-72179981D01*
X188282021Y-72179981D02*
X192834989Y-67627013D01*
X186891629Y-72179981D02*
X188282021Y-72179981D01*
X192834989Y-67627013D02*
X192834989Y-59875011D01*
X214519999Y-77580001D02*
X186687999Y-77580001D01*
X186687999Y-77580001D02*
X185309999Y-76202001D01*
X217170000Y-74930000D02*
X214519999Y-77580001D01*
X193430000Y-59280000D02*
X193430000Y-55880000D01*
X185309999Y-76202001D02*
X185309999Y-73761611D01*
X192834989Y-59875011D02*
X193430000Y-59280000D01*
X217170000Y-74930000D02*
X217170000Y-71040000D01*
X217170000Y-71040000D02*
X215900000Y-69770000D01*
D33*
X208280000Y-74930000D02*
X212170000Y-74930000D01*
D31*
X149225000Y-113665000D02*
X150024999Y-114464999D01*
X150024999Y-114464999D02*
X153834999Y-114464999D01*
X153834999Y-114464999D02*
X156045001Y-116675001D01*
X156045001Y-116675001D02*
X156845000Y-117475000D01*
X155575000Y-86360000D02*
X158750000Y-86360000D01*
X148280011Y-124483185D02*
X148780010Y-123983186D01*
X162885000Y-126365000D02*
X149390998Y-126365000D01*
X168815000Y-131445000D02*
X167965000Y-131445000D01*
X149390998Y-126365000D02*
X148280011Y-125254013D01*
X167965000Y-131445000D02*
X162885000Y-126365000D01*
X148280011Y-125254013D02*
X148280011Y-124483185D01*
X160602402Y-52699987D02*
X161242415Y-53340000D01*
X152784997Y-49674999D02*
X155809985Y-52699987D01*
X149449999Y-54754999D02*
X149449999Y-50259999D01*
X149449999Y-50259999D02*
X150034999Y-49674999D01*
X150575000Y-55880000D02*
X149449999Y-54754999D01*
X171860000Y-53340000D02*
X173500001Y-54980001D01*
X161242415Y-53340000D02*
X171860000Y-53340000D01*
X173500001Y-54980001D02*
X174400000Y-55880000D01*
X155809985Y-52699987D02*
X160602402Y-52699987D01*
X150034999Y-49674999D02*
X152784997Y-49674999D01*
X162246005Y-54980001D02*
X163300001Y-54980001D01*
X160416002Y-53149998D02*
X162246005Y-54980001D01*
X163300001Y-54980001D02*
X164200000Y-55880000D01*
X152924998Y-53149998D02*
X160416002Y-53149998D01*
X150575000Y-50800000D02*
X152924998Y-53149998D01*
D32*
X214700001Y-81350001D02*
X215900000Y-82550000D01*
X214180023Y-80830023D02*
X214700001Y-81350001D01*
X162987056Y-74930000D02*
X176860791Y-74930000D01*
X180465778Y-78534987D02*
X181124384Y-78534988D01*
X181124384Y-78534988D02*
X183419418Y-80830022D01*
X183419418Y-80830022D02*
X214180023Y-80830023D01*
X176860791Y-74930000D02*
X180465778Y-78534987D01*
X161290000Y-74930000D02*
X162987056Y-74930000D01*
X162987056Y-74930000D02*
X166640011Y-71277045D01*
X166640011Y-71277045D02*
X166640011Y-58320011D01*
X166640011Y-58320011D02*
X165099999Y-56779999D01*
X165099999Y-56779999D02*
X164200000Y-55880000D01*
D31*
X164324991Y-52375009D02*
X161847609Y-52375009D01*
X156706370Y-50800000D02*
X155575000Y-50800000D01*
X165900000Y-50800000D02*
X164324991Y-52375009D01*
X161847609Y-52375009D02*
X160272600Y-50800000D01*
X160272600Y-50800000D02*
X156706370Y-50800000D01*
X155495000Y-60325000D02*
X155495000Y-58500000D01*
X155495000Y-58500000D02*
X160020000Y-53975000D01*
D32*
X158589990Y-58090010D02*
X158589990Y-61595000D01*
D31*
X150495000Y-60325000D02*
X151765000Y-61595000D01*
D32*
X158589990Y-61595000D02*
X158589990Y-76048382D01*
D31*
X151765000Y-61595000D02*
X158589990Y-61595000D01*
D32*
X212200000Y-83640031D02*
X212200000Y-87550000D01*
X179347398Y-81234998D02*
X180006002Y-81234998D01*
X175912390Y-77799989D02*
X179347398Y-81234998D01*
X160341597Y-77799989D02*
X175912390Y-77799989D01*
X160800000Y-55880000D02*
X158589990Y-58090010D01*
X158589990Y-76048382D02*
X160341597Y-77799989D01*
X180006002Y-81234998D02*
X182301037Y-83530033D01*
X182301037Y-83530033D02*
X212090002Y-83530033D01*
X212090002Y-83530033D02*
X212200000Y-83640031D01*
D33*
X212170000Y-92710000D02*
X212170000Y-87580000D01*
X212170000Y-87580000D02*
X212200000Y-87550000D01*
D32*
X212200000Y-87550000D02*
X215900000Y-87550000D01*
D33*
X214853125Y-79205013D02*
X217969999Y-82321888D01*
X181739886Y-74930000D02*
X186014898Y-79205012D01*
X217969999Y-82321888D02*
X217969999Y-91910001D01*
X186014898Y-79205012D02*
X214853125Y-79205013D01*
X217969999Y-91910001D02*
X217170000Y-92710000D01*
X181610000Y-74930000D02*
X181739886Y-74930000D01*
D31*
X76835000Y-99060000D02*
X74930000Y-97155000D01*
X74930000Y-97155000D02*
X75470001Y-96614999D01*
X75470001Y-96614999D02*
X75470001Y-90076412D01*
X75470001Y-90076412D02*
X75114989Y-89721400D01*
X75659999Y-87890997D02*
X75144999Y-87375997D01*
X75114989Y-89721400D02*
X75114989Y-89348600D01*
X75114989Y-89348600D02*
X75659999Y-88803590D01*
X75659999Y-88803590D02*
X75659999Y-87890997D01*
X75144999Y-87375997D02*
X75144999Y-86574999D01*
X75144999Y-86574999D02*
X74295000Y-85725000D01*
X73025000Y-106600000D02*
X71605000Y-108020000D01*
X71605000Y-108020000D02*
X71605000Y-112340000D01*
X76365998Y-79375000D02*
X84924002Y-79375000D01*
X84924002Y-79375000D02*
X93724990Y-88175988D01*
X93724990Y-88175988D02*
X93724990Y-89679990D01*
X93724990Y-89679990D02*
X94850000Y-90805000D01*
X94850000Y-90805000D02*
X95250000Y-90805000D01*
X74295000Y-85725000D02*
X75470001Y-84549999D01*
X75470001Y-84549999D02*
X75470001Y-80270997D01*
X75470001Y-80270997D02*
X76365998Y-79375000D01*
X76835000Y-99060000D02*
X76835000Y-102790000D01*
X76835000Y-102790000D02*
X73025000Y-106600000D01*
D32*
X223520000Y-59690000D02*
X223520000Y-110396000D01*
X223520000Y-110396000D02*
X215900000Y-118016000D01*
X211929990Y-48099990D02*
X223520000Y-59690000D01*
X195130000Y-50800000D02*
X197830010Y-48099990D01*
X197830010Y-48099990D02*
X211929990Y-48099990D01*
X162500000Y-50800000D02*
X165450009Y-47849991D01*
X194230001Y-49900001D02*
X195130000Y-50800000D01*
X165450009Y-47849991D02*
X192179991Y-47849991D01*
X192179991Y-47849991D02*
X194230001Y-49900001D01*
D31*
X207772000Y-93980000D02*
X205052054Y-93980000D01*
D32*
X208280000Y-62230000D02*
X212325002Y-62230000D01*
X212325002Y-62230000D02*
X214630000Y-59925002D01*
X214630000Y-59925002D02*
X214630000Y-54618390D01*
X214630000Y-54618390D02*
X210811610Y-50800000D01*
X210811610Y-50800000D02*
X208730000Y-50800000D01*
D31*
X197485000Y-68580000D02*
X208280000Y-68580000D01*
D32*
X208280000Y-62230000D02*
X208280000Y-68580000D01*
D31*
X188595000Y-57150000D02*
X187325000Y-57150000D01*
X187325000Y-57150000D02*
X183515000Y-53340000D01*
X191770000Y-53975000D02*
X188595000Y-57150000D01*
X191770000Y-53975000D02*
X208525000Y-53975000D01*
X208525000Y-53975000D02*
X210430000Y-55880000D01*
X190103999Y-92519999D02*
X191531001Y-92519999D01*
X197432000Y-92710000D02*
X198702000Y-91440000D01*
X189913998Y-92710000D02*
X190103999Y-92519999D01*
X198702000Y-91440000D02*
X200152000Y-91440000D01*
X185420000Y-92710000D02*
X189913998Y-92710000D01*
X191531001Y-92519999D02*
X191721002Y-92710000D01*
X191721002Y-92710000D02*
X197432000Y-92710000D01*
X190760035Y-96520000D02*
X191885045Y-97645010D01*
X191885045Y-97645010D02*
X199787010Y-97645010D01*
X199787010Y-97645010D02*
X200152000Y-98010000D01*
X200152000Y-98010000D02*
X200152000Y-99060000D01*
D34*
X181610000Y-62230000D02*
X181610000Y-68580000D01*
X176100000Y-50800000D02*
X176999999Y-51699999D01*
X176999999Y-51699999D02*
X177468001Y-51699999D01*
X177468001Y-51699999D02*
X180400001Y-54631999D01*
X180400001Y-54631999D02*
X180400001Y-61020001D01*
X180400001Y-61020001D02*
X180410001Y-61030001D01*
X180410001Y-61030001D02*
X181610000Y-62230000D01*
D31*
X177800000Y-73025000D02*
X177800000Y-55880000D01*
X124278997Y-109760001D02*
X134954997Y-109760001D01*
X134954997Y-109760001D02*
X135349999Y-109364999D01*
X115570000Y-101600000D02*
X115170000Y-101600000D01*
X115170000Y-101600000D02*
X114044990Y-102725010D01*
X114044990Y-104605994D02*
X114993986Y-105554990D01*
X114044990Y-102725010D02*
X114044990Y-104605994D01*
X144924999Y-109364999D02*
X145250001Y-109690001D01*
X114993986Y-105554990D02*
X120073986Y-105554990D01*
X120073986Y-105554990D02*
X124278997Y-109760001D01*
X135349999Y-109364999D02*
X144924999Y-109364999D01*
X145250001Y-109690001D02*
X146050000Y-110490000D01*
X127000000Y-116205000D02*
X123190000Y-116205000D01*
X123590000Y-116205000D02*
X123190000Y-116205000D01*
X132715000Y-106045000D02*
X131445000Y-107315000D01*
X131445000Y-107315000D02*
X128270000Y-107315000D01*
X127117904Y-115125010D02*
X127825010Y-115125010D01*
X126927894Y-114935000D02*
X127117904Y-115125010D01*
X117020000Y-116205000D02*
X118290000Y-114935000D01*
X115570000Y-116205000D02*
X117020000Y-116205000D01*
X118290000Y-114935000D02*
X126927894Y-114935000D01*
X144099983Y-113665000D02*
X146050000Y-113665000D01*
X123190000Y-101600000D02*
X124640000Y-101600000D01*
X124640000Y-101600000D02*
X125275000Y-102235000D01*
X125275000Y-102235000D02*
X146685000Y-102235000D01*
X139654989Y-119524999D02*
X141105001Y-120975011D01*
X135081745Y-119524999D02*
X139654989Y-119524999D01*
X109913986Y-114790010D02*
X108964990Y-115739006D01*
X134686743Y-119920001D02*
X135081745Y-119524999D01*
X114120000Y-113665000D02*
X113445001Y-114339999D01*
X127310988Y-117619990D02*
X129610999Y-119920001D01*
X109913986Y-117619990D02*
X127310988Y-117619990D01*
X108964990Y-115739006D02*
X108964990Y-116670994D01*
X111355994Y-114790010D02*
X109913986Y-114790010D01*
X141105001Y-120975011D02*
X141605000Y-121475010D01*
X111806005Y-114339999D02*
X111355994Y-114790010D01*
X113445001Y-114339999D02*
X111806005Y-114339999D01*
X108964990Y-116670994D02*
X109913986Y-117619990D01*
X129610999Y-119920001D02*
X134686743Y-119920001D01*
X115570000Y-113665000D02*
X114120000Y-113665000D01*
X127635000Y-113665000D02*
X128999999Y-115029999D01*
X128999999Y-115029999D02*
X128999999Y-116769001D01*
X128999999Y-116769001D02*
X129800997Y-117569999D01*
X129800997Y-117569999D02*
X134319997Y-117569999D01*
X123190000Y-113665000D02*
X127635000Y-113665000D01*
X144474988Y-119074988D02*
X145250001Y-119850001D01*
X135824986Y-119074988D02*
X144474988Y-119074988D01*
X145250001Y-119850001D02*
X146050000Y-120650000D01*
X134319997Y-117569999D02*
X135824986Y-119074988D01*
D35*
X134276871Y-134380131D02*
X146685000Y-134380131D01*
X146685000Y-134380131D02*
X183781135Y-134380131D01*
D31*
X146558000Y-131826000D02*
X146558000Y-134253131D01*
X146558000Y-134253131D02*
X146685000Y-134380131D01*
D35*
X213999999Y-135258003D02*
X213999999Y-129916001D01*
X183781135Y-134380131D02*
X191871005Y-142470001D01*
X133312001Y-135345001D02*
X134276871Y-134380131D01*
X129314498Y-127798500D02*
X127539999Y-129572999D01*
X127539999Y-133317001D02*
X129567999Y-135345001D01*
X128624999Y-122835001D02*
X128624999Y-127109001D01*
X130175000Y-121285000D02*
X128624999Y-122835001D01*
X129567999Y-135345001D02*
X133312001Y-135345001D01*
X206788001Y-142470001D02*
X213999999Y-135258003D01*
X191871005Y-142470001D02*
X206788001Y-142470001D01*
X128624999Y-127109001D02*
X129314498Y-127798500D01*
X213999999Y-129916001D02*
X214700001Y-129215999D01*
X127539999Y-129572999D02*
X127539999Y-133317001D01*
X214700001Y-129215999D02*
X215900000Y-128016000D01*
D31*
X146558000Y-131826000D02*
X145602999Y-130870999D01*
X140837999Y-129915999D02*
X140208000Y-129286000D01*
X145602999Y-130870999D02*
X141792999Y-130870999D01*
X141792999Y-130870999D02*
X140837999Y-129915999D01*
X155702000Y-129286000D02*
X149098000Y-129286000D01*
X149098000Y-129286000D02*
X146558000Y-131826000D01*
X162052000Y-131826000D02*
X161096999Y-130870999D01*
X161096999Y-130870999D02*
X157286999Y-130870999D01*
X157286999Y-130870999D02*
X156331999Y-129915999D01*
X156331999Y-129915999D02*
X155702000Y-129286000D01*
X204466000Y-129286000D02*
X203510999Y-128330999D01*
X203510999Y-128330999D02*
X189677001Y-128330999D01*
X189677001Y-128330999D02*
X189351999Y-128656001D01*
X189351999Y-128656001D02*
X188722000Y-129286000D01*
X215900000Y-123016000D02*
X209630000Y-129286000D01*
X209630000Y-129286000D02*
X204466000Y-129286000D01*
X76835000Y-90805000D02*
X77935000Y-90805000D01*
X77935000Y-90805000D02*
X77960001Y-90830001D01*
X77960001Y-90830001D02*
X77960001Y-98519999D01*
X77960001Y-108909003D02*
X77960001Y-105101824D01*
X108914999Y-112300001D02*
X81350999Y-112300001D01*
X110090000Y-111125000D02*
X108914999Y-112300001D01*
X77960001Y-99600001D02*
X77960001Y-98519999D01*
X110490000Y-111125000D02*
X110090000Y-111125000D01*
X77375001Y-104516824D02*
X77375001Y-100185001D01*
X81350999Y-112300001D02*
X77960001Y-108909003D01*
X77960001Y-105101824D02*
X77375001Y-104516824D01*
X77375001Y-100185001D02*
X77960001Y-99600001D01*
X108574006Y-106510994D02*
X109040000Y-106045000D01*
X96775010Y-106510994D02*
X108574006Y-106510994D01*
X95971004Y-107315000D02*
X96775010Y-106510994D01*
X92470002Y-107315000D02*
X95971004Y-107315000D01*
X76270999Y-84549999D02*
X77399001Y-84549999D01*
X91980001Y-106824999D02*
X92470002Y-107315000D01*
X85414003Y-106824999D02*
X91980001Y-106824999D01*
X75659999Y-85160999D02*
X76270999Y-84549999D01*
X79184998Y-106441002D02*
X79963997Y-107220001D01*
X109040000Y-106045000D02*
X110490000Y-106045000D01*
X79963997Y-107220001D02*
X85019001Y-107220001D01*
X79184998Y-91678998D02*
X79184998Y-106441002D01*
X79387455Y-86538453D02*
X79387455Y-91476541D01*
X79387455Y-91476541D02*
X79184998Y-91678998D01*
X75659999Y-87089999D02*
X75659999Y-85160999D01*
X77399001Y-84549999D02*
X79387455Y-86538453D01*
X76835000Y-88265000D02*
X75659999Y-87089999D01*
X85019001Y-107220001D02*
X85414003Y-106824999D01*
X125995025Y-129162628D02*
X126714380Y-128443273D01*
X122554998Y-123535160D02*
X121847892Y-123535160D01*
X126714380Y-128443273D02*
X126714380Y-127694542D01*
X125995025Y-133616436D02*
X125995025Y-129162628D01*
X128998612Y-136620023D02*
X125995025Y-133616436D01*
X129676280Y-136620023D02*
X128998612Y-136620023D01*
X135151258Y-142095001D02*
X129676280Y-136620023D01*
X183659999Y-142095001D02*
X135151258Y-142095001D01*
X186055000Y-139700000D02*
X183659999Y-142095001D01*
X126714380Y-127694542D02*
X122554998Y-123535160D01*
X120650000Y-89535000D02*
X123190000Y-89535000D01*
X201296001Y-129915999D02*
X201926000Y-129286000D01*
X198176455Y-130241001D02*
X200970999Y-130241001D01*
X197726444Y-130691012D02*
X198176455Y-130241001D01*
X186182000Y-129286000D02*
X187587012Y-130691012D01*
X200970999Y-130241001D02*
X201296001Y-129915999D01*
X187587012Y-130691012D02*
X197726444Y-130691012D01*
X128812212Y-137070034D02*
X125545014Y-133802836D01*
X134339008Y-142545012D02*
X128864030Y-137070034D01*
X187325000Y-139700000D02*
X184479988Y-142545012D01*
X184479988Y-142545012D02*
X134339008Y-142545012D01*
X128864030Y-137070034D02*
X128812212Y-137070034D01*
X125545014Y-133802836D02*
X125545014Y-128391635D01*
X125545014Y-128391635D02*
X125889378Y-128047271D01*
X203196000Y-131826000D02*
X202240999Y-132781001D01*
X202240999Y-132781001D02*
X188407001Y-132781001D01*
X188407001Y-132781001D02*
X188081999Y-132455999D01*
X188081999Y-132455999D02*
X187452000Y-131826000D01*
X168275000Y-91440000D02*
X170815000Y-91440000D01*
X160655000Y-95250000D02*
X167005000Y-95250000D01*
X138430000Y-93980000D02*
X139880000Y-93980000D01*
X139880000Y-93980000D02*
X141150000Y-95250000D01*
X141150000Y-95250000D02*
X160655000Y-95250000D01*
X155992419Y-91440000D02*
X155949969Y-91397550D01*
X158750000Y-91440000D02*
X155992419Y-91440000D01*
X162695001Y-112259999D02*
X163195000Y-111760000D01*
X131350001Y-112489999D02*
X162465001Y-112489999D01*
X130175000Y-113665000D02*
X131350001Y-112489999D01*
X162465001Y-112489999D02*
X162695001Y-112259999D01*
X146050000Y-96520000D02*
X144600000Y-96520000D01*
X144600000Y-96520000D02*
X143185010Y-97934990D01*
X133917081Y-98425000D02*
X132715000Y-98425000D01*
X143185010Y-97934990D02*
X134407091Y-97934990D01*
X134407091Y-97934990D02*
X133917081Y-98425000D01*
X131350001Y-98799003D02*
X132340997Y-99789999D01*
X131350001Y-97886409D02*
X131350001Y-98799003D01*
X131865001Y-97371409D02*
X131350001Y-97886409D01*
X132340997Y-99789999D02*
X133279001Y-99789999D01*
X153670000Y-98511004D02*
X153670000Y-97862106D01*
X133674012Y-100185010D02*
X151995994Y-100185010D01*
X153670000Y-97862106D02*
X153670000Y-97155000D01*
X151995994Y-100185010D02*
X153670000Y-98511004D01*
X133279001Y-99789999D02*
X133674012Y-100185010D01*
X131865001Y-96734999D02*
X131865001Y-97371409D01*
X132715000Y-95885000D02*
X131865001Y-96734999D01*
X138430000Y-86360000D02*
X137160000Y-86360000D01*
X137160000Y-86360000D02*
X133564999Y-89955001D01*
X133564999Y-89955001D02*
X132715000Y-90805000D01*
X133279001Y-114840001D02*
X131445000Y-114840001D01*
X170085001Y-118600001D02*
X169004999Y-118600001D01*
X153274998Y-115570000D02*
X134009000Y-115570000D01*
X187094006Y-114444990D02*
X185968996Y-115570000D01*
X157385001Y-118600001D02*
X156304999Y-118600001D01*
X160415002Y-115570000D02*
X157385001Y-118600001D01*
X165974998Y-115570000D02*
X160415002Y-115570000D01*
X197576990Y-114444990D02*
X187094006Y-114444990D01*
X198702000Y-115570000D02*
X197576990Y-114444990D01*
X200152000Y-115570000D02*
X198702000Y-115570000D01*
X185968996Y-115570000D02*
X173115002Y-115570000D01*
X173115002Y-115570000D02*
X170085001Y-118600001D01*
X134009000Y-115570000D02*
X133279001Y-114840001D01*
X156304999Y-118600001D02*
X153274998Y-115570000D01*
X169004999Y-118600001D02*
X165974998Y-115570000D01*
X160790001Y-81150020D02*
X161290000Y-80650021D01*
X160025021Y-81915000D02*
X160790001Y-81150020D01*
X131445000Y-81915000D02*
X160025021Y-81915000D01*
X164810127Y-87575127D02*
X165969873Y-87575127D01*
X163595000Y-86360000D02*
X164810127Y-87575127D01*
X165969873Y-87575127D02*
X189859125Y-87575127D01*
X163195000Y-86360000D02*
X163595000Y-86360000D01*
X186586129Y-87575127D02*
X189859125Y-87575127D01*
X201277767Y-87575127D02*
X201984873Y-87575127D01*
X189994253Y-87439999D02*
X191005747Y-87439999D01*
X191140875Y-87575127D02*
X201277767Y-87575127D01*
X189859125Y-87575127D02*
X189994253Y-87439999D01*
X191005747Y-87439999D02*
X191140875Y-87575127D01*
X202655786Y-96520000D02*
X201739990Y-95604204D01*
X201739990Y-95604204D02*
X201549988Y-95414202D01*
X207772000Y-96520000D02*
X202655786Y-96520000D01*
X201549988Y-95414202D02*
X201549988Y-95400168D01*
X175260000Y-79375000D02*
X178570001Y-82685001D01*
X158419210Y-78105000D02*
X159689210Y-79375000D01*
X132715000Y-78105000D02*
X158419210Y-78105000D01*
X159689210Y-79375000D02*
X175260000Y-79375000D01*
X178570001Y-82685001D02*
X179070000Y-83185000D01*
X179070000Y-88900000D02*
X179569999Y-88400001D01*
X179569999Y-88400001D02*
X186010001Y-88400001D01*
X186010001Y-88400001D02*
X186510000Y-88900000D01*
X186510000Y-88900000D02*
X187960000Y-88900000D01*
X159502810Y-79825011D02*
X170630011Y-79825011D01*
X141461003Y-79280001D02*
X158957800Y-79280001D01*
X139938999Y-79565001D02*
X141176003Y-79565001D01*
X139653999Y-79280001D02*
X139938999Y-79565001D01*
X141176003Y-79565001D02*
X141461003Y-79280001D01*
X170630011Y-79825011D02*
X172855001Y-82050001D01*
X130175000Y-78105000D02*
X131350001Y-79280001D01*
X172855001Y-82050001D02*
X173355000Y-82550000D01*
X158957800Y-79280001D02*
X159502810Y-79825011D01*
X131350001Y-79280001D02*
X139653999Y-79280001D01*
X189230000Y-108585000D02*
X188670041Y-108025041D01*
X177292122Y-108025041D02*
X176585016Y-108025041D01*
X188670041Y-108025041D02*
X177292122Y-108025041D01*
X91181480Y-121925021D02*
X90474374Y-121925021D01*
X133355013Y-143515013D02*
X125095003Y-135255003D01*
X118750019Y-121925021D02*
X91181480Y-121925021D01*
X125095003Y-128270005D02*
X118750019Y-121925021D01*
X207772000Y-118110000D02*
X213251002Y-118110000D01*
X213251002Y-118110000D02*
X217425001Y-122283999D01*
X217425001Y-122283999D02*
X217425001Y-134476001D01*
X208385989Y-143515013D02*
X133355013Y-143515013D01*
X217425001Y-134476001D02*
X208385989Y-143515013D01*
X125095003Y-135255003D02*
X125095003Y-128270005D01*
X141411003Y-82694999D02*
X140731001Y-83375001D01*
X134944003Y-82694999D02*
X133279001Y-84360001D01*
X150730000Y-86360000D02*
X147064999Y-82694999D01*
X151130000Y-86360000D02*
X150730000Y-86360000D01*
X139955001Y-82759999D02*
X139890001Y-82694999D01*
X85304999Y-71334999D02*
X84455000Y-70485000D01*
X147064999Y-82694999D02*
X141411003Y-82694999D01*
X140731001Y-83375001D02*
X139955001Y-83375001D01*
X139890001Y-82694999D02*
X134944003Y-82694999D01*
X100965000Y-84360001D02*
X95835009Y-79230010D01*
X133279001Y-84360001D02*
X100965000Y-84360001D01*
X93200010Y-79230010D02*
X85304999Y-71334999D01*
X139955001Y-83375001D02*
X139955001Y-82759999D01*
X95835009Y-79230010D02*
X93200010Y-79230010D01*
X171391014Y-90025010D02*
X155430010Y-90025010D01*
X184575001Y-90660001D02*
X172026005Y-90660001D01*
X198702000Y-88900000D02*
X197576990Y-90025010D01*
X172026005Y-90660001D02*
X171391014Y-90025010D01*
X200152000Y-88900000D02*
X198702000Y-88900000D01*
X197576990Y-90025010D02*
X185209992Y-90025010D01*
X185209992Y-90025010D02*
X184575001Y-90660001D01*
X155430010Y-90025010D02*
X153670000Y-88265000D01*
X200152000Y-88900000D02*
X200552000Y-88900000D01*
X201822000Y-90170000D02*
X209477894Y-90170000D01*
X200552000Y-88900000D02*
X201822000Y-90170000D01*
X209477894Y-90170000D02*
X210185000Y-90170000D01*
X81915000Y-70485000D02*
X83279999Y-71849999D01*
X83279999Y-71849999D02*
X85019001Y-71849999D01*
X106680000Y-92169999D02*
X113673995Y-92169999D01*
X85019001Y-71849999D02*
X85630001Y-72460999D01*
X144997606Y-93015021D02*
X145085021Y-93015021D01*
X85630001Y-72460999D02*
X85630001Y-73016005D01*
X85630001Y-73016005D02*
X94673986Y-82059990D01*
X114704006Y-93200010D02*
X126040988Y-93200010D01*
X94673986Y-82059990D02*
X96569991Y-82059990D01*
X144837575Y-92854990D02*
X144997606Y-93015021D01*
X96569991Y-82059990D02*
X106680000Y-92169999D01*
X113673995Y-92169999D02*
X114704006Y-93200010D01*
X126040988Y-93200010D02*
X127165998Y-92075000D01*
X127165998Y-92075000D02*
X137073996Y-92075000D01*
X145085021Y-93015021D02*
X146050000Y-93980000D01*
X137073996Y-92075000D02*
X137853986Y-92854990D01*
X137853986Y-92854990D02*
X144837575Y-92854990D01*
X170815000Y-101600000D02*
X173355000Y-101600000D01*
X173355000Y-101600000D02*
X174625000Y-102870000D01*
X169545000Y-85090000D02*
X168275000Y-83820000D01*
X168275000Y-83820000D02*
X163195000Y-83820000D01*
X174625000Y-86360000D02*
X175750001Y-85234999D01*
X175750001Y-85234999D02*
X193184999Y-85234999D01*
X193184999Y-85234999D02*
X193675000Y-85725000D01*
X158750000Y-101600000D02*
X153670000Y-101600000D01*
X153670000Y-101600000D02*
X149225000Y-106045000D01*
X157480000Y-85090000D02*
X156210000Y-83820000D01*
X156210000Y-83820000D02*
X151130000Y-83820000D01*
X174625000Y-110490000D02*
X176039990Y-111904990D01*
X176039990Y-111904990D02*
X193004990Y-111904990D01*
X193004990Y-111904990D02*
X194130000Y-113030000D01*
X194130000Y-113030000D02*
X195580000Y-113030000D01*
X172265000Y-99060000D02*
X173535000Y-97790000D01*
X173535000Y-97790000D02*
X190500000Y-97790000D01*
X170815000Y-99060000D02*
X172265000Y-99060000D01*
X145561400Y-92854990D02*
X168239990Y-92854990D01*
X168239990Y-92854990D02*
X169365000Y-93980000D01*
X144058996Y-91440000D02*
X145184006Y-92565010D01*
X169365000Y-93980000D02*
X170815000Y-93980000D01*
X138430000Y-91440000D02*
X144058996Y-91440000D01*
X145271421Y-92565010D02*
X145561400Y-92854990D01*
X145184006Y-92565010D02*
X145271421Y-92565010D01*
X189278998Y-95250000D02*
X190103999Y-94424999D01*
X173535000Y-95250000D02*
X189278998Y-95250000D01*
X190896001Y-94424999D02*
X191721002Y-95250000D01*
X191721002Y-95250000D02*
X198047894Y-95250000D01*
X170815000Y-93980000D02*
X172265000Y-93980000D01*
X190103999Y-94424999D02*
X190896001Y-94424999D01*
X198047894Y-95250000D02*
X198755000Y-95250000D01*
X172265000Y-93980000D02*
X173535000Y-95250000D01*
X202200044Y-107200031D02*
X202950013Y-107950000D01*
X161175031Y-107200031D02*
X202200044Y-107200031D01*
X154305000Y-93980000D02*
X158750000Y-93980000D01*
X146050000Y-88900000D02*
X147500000Y-88900000D01*
X147500000Y-88900000D02*
X148770000Y-90170000D01*
X148770000Y-90170000D02*
X154305000Y-90170000D01*
X200152000Y-93980000D02*
X203026305Y-93980000D01*
X203026305Y-93980000D02*
X203402042Y-94355737D01*
X204038813Y-99060000D02*
X203852035Y-99246778D01*
X207772000Y-99060000D02*
X204038813Y-99060000D01*
X200152000Y-118110000D02*
X200552000Y-118110000D01*
X201602000Y-119160000D02*
X203818400Y-119160000D01*
X203818400Y-119160000D02*
X204933572Y-118044828D01*
X204933572Y-118044828D02*
X205433571Y-117544829D01*
X200552000Y-118110000D02*
X201602000Y-119160000D01*
X205105000Y-103505000D02*
X201295000Y-103505000D01*
X207772000Y-88900000D02*
X202953514Y-88900000D01*
X202953514Y-88900000D02*
X202952031Y-88898517D01*
X186510000Y-110490000D02*
X187960000Y-110490000D01*
X177246059Y-108585000D02*
X184605000Y-108585000D01*
X176746060Y-109084999D02*
X177246059Y-108585000D01*
X184605000Y-108585000D02*
X186510000Y-110490000D01*
X159385000Y-108585000D02*
X159884999Y-109084999D01*
X159884999Y-109084999D02*
X176746060Y-109084999D01*
X210185000Y-111760000D02*
X200372000Y-111760000D01*
X200372000Y-111760000D02*
X200152000Y-111980000D01*
X200152000Y-111980000D02*
X200152000Y-113030000D01*
X133721847Y-137465887D02*
X134221846Y-137965886D01*
X120799533Y-121100011D02*
X127164391Y-127464869D01*
X126714991Y-129079073D02*
X126714989Y-133658731D01*
X129226268Y-136170010D02*
X132425970Y-136170010D01*
X127164391Y-127464869D02*
X127164391Y-128629673D01*
X126714989Y-133658731D02*
X129226268Y-136170010D01*
X88918991Y-121100011D02*
X120799533Y-121100011D01*
X78105000Y-125095000D02*
X84924002Y-125095000D01*
X127164391Y-128629673D02*
X126714991Y-129079073D01*
X84924002Y-125095000D02*
X88918991Y-121100011D01*
X132425970Y-136170010D02*
X133721847Y-137465887D01*
X137716276Y-126808722D02*
X137216277Y-126308723D01*
X138040011Y-127132457D02*
X137716276Y-126808722D01*
X138040011Y-132373260D02*
X138040011Y-127132457D01*
X78105000Y-125095000D02*
X71605000Y-125095000D01*
X70279999Y-127579999D02*
X70605001Y-127905001D01*
X70279999Y-124458999D02*
X70279999Y-127579999D01*
X72088999Y-122649999D02*
X70279999Y-124458999D01*
X70605001Y-127905001D02*
X71605000Y-128905000D01*
X85581005Y-122649999D02*
X72088999Y-122649999D01*
X87581004Y-120650000D02*
X85581005Y-122649999D01*
X127635000Y-120650000D02*
X87581004Y-120650000D01*
X71605000Y-128905000D02*
X78105000Y-128905000D01*
X110997885Y-102235000D02*
X111704991Y-102235000D01*
X97970000Y-102235000D02*
X110997885Y-102235000D01*
X96700000Y-103505000D02*
X97970000Y-102235000D01*
X95250000Y-103505000D02*
X96700000Y-103505000D01*
X113165001Y-106180001D02*
X113665000Y-106680000D01*
X111904990Y-104919990D02*
X113165001Y-106180001D01*
X106681411Y-106045000D02*
X107806421Y-104919990D01*
X107806421Y-104919990D02*
X111904990Y-104919990D01*
X95250000Y-106045000D02*
X106681411Y-106045000D01*
X145415000Y-67945000D02*
X149740000Y-67945000D01*
X149740000Y-67945000D02*
X154940000Y-73145000D01*
X154940000Y-73145000D02*
X154940000Y-74295000D01*
X145415000Y-64770000D02*
X144289999Y-65895001D01*
X144289999Y-65895001D02*
X144289999Y-69874999D01*
X144289999Y-69874999D02*
X148710000Y-74295000D01*
X148710000Y-74295000D02*
X149860000Y-74295000D01*
X81350999Y-109760001D02*
X78734987Y-107143989D01*
X110490000Y-108585000D02*
X109040000Y-108585000D01*
X78937444Y-89796659D02*
X78937444Y-87827444D01*
X78734987Y-89999116D02*
X78937444Y-89796659D01*
X78734987Y-107143989D02*
X78734987Y-89999116D01*
X107864999Y-109760001D02*
X81350999Y-109760001D01*
X109040000Y-108585000D02*
X107864999Y-109760001D01*
X78937444Y-87827444D02*
X77684999Y-86574999D01*
X77684999Y-86574999D02*
X76835000Y-85725000D01*
X91154008Y-104630010D02*
X107459990Y-104630010D01*
X86313999Y-89488999D02*
X87774999Y-90949999D01*
X86123999Y-99600001D02*
X91154008Y-104630010D01*
X83890999Y-99600001D02*
X86123999Y-99600001D01*
X83279999Y-98989001D02*
X83890999Y-99600001D01*
X87774999Y-94494001D02*
X85019001Y-97249999D01*
X83890999Y-97249999D02*
X83279999Y-97860999D01*
X87774999Y-90949999D02*
X87774999Y-94494001D01*
X83279999Y-97860999D02*
X83279999Y-98989001D01*
X85630001Y-89488999D02*
X86313999Y-89488999D01*
X107459990Y-104630010D02*
X108585000Y-103505000D01*
X78010001Y-81820001D02*
X84829003Y-81820001D01*
X76835000Y-80645000D02*
X78010001Y-81820001D01*
X84829003Y-81820001D02*
X85630001Y-82620999D01*
X85630001Y-82620999D02*
X85630001Y-89488999D01*
X108585000Y-103505000D02*
X110490000Y-103505000D01*
X85019001Y-97249999D02*
X83890999Y-97249999D01*
X118227904Y-112395000D02*
X118935010Y-112395000D01*
X113210000Y-112395000D02*
X118227904Y-112395000D01*
X111940000Y-113665000D02*
X113210000Y-112395000D01*
X110490000Y-113665000D02*
X111940000Y-113665000D01*
X119380000Y-102870000D02*
X122970000Y-102870000D01*
X122970000Y-102870000D02*
X123190000Y-103090000D01*
X123190000Y-103090000D02*
X123190000Y-104140000D01*
X110890000Y-116205000D02*
X110490000Y-116205000D01*
X111992404Y-114790010D02*
X111940000Y-114842414D01*
X118110000Y-113665000D02*
X116984990Y-114790010D01*
X116984990Y-114790010D02*
X111992404Y-114790010D01*
X111940000Y-114842414D02*
X111940000Y-115155000D01*
X111940000Y-115155000D02*
X110890000Y-116205000D01*
X115570000Y-104140000D02*
X118110000Y-104140000D01*
X114347750Y-95885000D02*
X113640644Y-95885000D01*
X130175000Y-98425000D02*
X131350001Y-97249999D01*
X131350001Y-95320999D02*
X130739001Y-94709999D01*
X125086005Y-94709999D02*
X123911004Y-95885000D01*
X130739001Y-94709999D02*
X125086005Y-94709999D01*
X123911004Y-95885000D02*
X114347750Y-95885000D01*
X131350001Y-97249999D02*
X131350001Y-95320999D01*
X112108528Y-107527706D02*
X112815634Y-107527706D01*
X95250000Y-108585000D02*
X96700000Y-108585000D01*
X96700000Y-108585000D02*
X97970000Y-107315000D01*
X111895822Y-107315000D02*
X112108528Y-107527706D01*
X97970000Y-107315000D02*
X111895822Y-107315000D01*
X130175000Y-95885000D02*
X128810001Y-97249999D01*
X124135988Y-100185010D02*
X111701014Y-100185010D01*
X128810001Y-97249999D02*
X127070999Y-97249999D01*
X127070999Y-97249999D02*
X124135988Y-100185010D01*
X111701014Y-100185010D02*
X111211004Y-99695000D01*
X111211004Y-99695000D02*
X97790000Y-99695000D01*
X105410000Y-85725000D02*
X110490000Y-85725000D01*
X88900000Y-117475000D02*
X105410000Y-117475000D01*
X106680000Y-88265000D02*
X110490000Y-88265000D01*
X87630000Y-114935000D02*
X106680000Y-114935000D01*
X69565001Y-61879999D02*
X69079999Y-62365001D01*
X97675764Y-61879999D02*
X69565001Y-61879999D01*
X101535001Y-67010001D02*
X101535001Y-65499999D01*
X100710764Y-64914999D02*
X97675764Y-61879999D01*
X100950001Y-64914999D02*
X100710764Y-64914999D01*
X110090000Y-75565000D02*
X101535001Y-67010001D01*
X101535001Y-65499999D02*
X100950001Y-64914999D01*
X69079999Y-62365001D02*
X68580000Y-62865000D01*
X110490000Y-75565000D02*
X110090000Y-75565000D01*
X68580000Y-118745000D02*
X80175998Y-118745000D01*
X80175998Y-118745000D02*
X81540997Y-120109999D01*
X83279999Y-120109999D02*
X83605001Y-120435001D01*
X81540997Y-120109999D02*
X83279999Y-120109999D01*
X83605001Y-120435001D02*
X84455000Y-121285000D01*
X107950000Y-118745000D02*
X106680000Y-120015000D01*
X106680000Y-120015000D02*
X86995000Y-120015000D01*
X110490000Y-78105000D02*
X107950000Y-78105000D01*
X110490000Y-83185000D02*
X110890000Y-83185000D01*
X102885034Y-64940799D02*
X95094235Y-57150000D01*
X110890000Y-83185000D02*
X112015010Y-82059990D01*
X112015010Y-82059990D02*
X112015010Y-70019006D01*
X112015010Y-70019006D02*
X109161005Y-67165001D01*
X109161005Y-67165001D02*
X104869999Y-67165001D01*
X104869999Y-67165001D02*
X102885034Y-65180036D01*
X102885034Y-65180036D02*
X102885034Y-64940799D01*
X95094235Y-57150000D02*
X69850000Y-57150000D01*
X90491002Y-98425000D02*
X84455000Y-98425000D01*
X97790000Y-97155000D02*
X91761002Y-97155000D01*
X91761002Y-97155000D02*
X90491002Y-98425000D01*
X110490000Y-80645000D02*
X99695000Y-80645000D01*
X99695000Y-80645000D02*
X97790000Y-78740000D01*
X101985012Y-65552835D02*
X101985012Y-65313599D01*
X70405273Y-61054989D02*
X69698167Y-61054989D01*
X110090000Y-73025000D02*
X109040000Y-71975000D01*
X101136401Y-64464988D02*
X100897164Y-64464988D01*
X108407177Y-71975000D02*
X101985012Y-65552835D01*
X109040000Y-71975000D02*
X108407177Y-71975000D01*
X110490000Y-73025000D02*
X110090000Y-73025000D01*
X101985012Y-65313599D02*
X101136401Y-64464988D01*
X100897164Y-64464988D02*
X97862164Y-61429988D01*
X97862164Y-61429988D02*
X70780272Y-61429988D01*
X70780272Y-61429988D02*
X70405273Y-61054989D01*
X74518152Y-60604978D02*
X73811046Y-60604978D01*
X97673565Y-60604978D02*
X74518152Y-60604978D01*
X101083564Y-64014977D02*
X97673565Y-60604978D01*
X102435023Y-65366436D02*
X102435023Y-65127199D01*
X110490000Y-70485000D02*
X107553587Y-70485000D01*
X107553587Y-70485000D02*
X102435023Y-65366436D01*
X101322801Y-64014977D02*
X101083564Y-64014977D01*
X102435023Y-65127199D02*
X101322801Y-64014977D01*
M02*
