M48
METRIC,TZ
T1C0.600
T2C0.760
T3C0.800
T4C0.900
T5C1.000
T6C1.100
T7C1.200
T8C1.470
T9C3.200
T10C3.250
T11C3.200
T12C3.500
%
G90
G05
T1
X68580Y-62865
X68580Y-118745
X69698Y-61055
X69850Y-57150
X73811Y-60605
X78112Y-89401
X80010Y-92075
X80010Y-106045
X86950Y-92080
X86995Y-120015
X87630Y-114935
X88900Y-117475
X90474Y-121925
X96965Y-92075
X97790Y-78740
X97790Y-97155
X97790Y-99695
X105410Y-85725
X105410Y-117475
X106680Y-88265
X106680Y-114935
X107950Y-78105
X107950Y-118745
X111705Y-102235
X112816Y-107528
X113641Y-95885
X113665Y-106680
X117475Y-94615
X118110Y-104140
X118110Y-113665
X118935Y-112395
X119380Y-102870
X120650Y-89535
X121848Y-123535
X125889Y-128047
X127000Y-116205
X127635Y-120650
X127825Y-115125
X128270Y-107315
X131445Y-81915
X131445Y-114840
X134222Y-137966
X137216Y-126309
X138040Y-132373
X139748Y-76835
X141605Y-121475
X144100Y-113665
X146685Y-102235
X148780Y-123983
X153670Y-88265
X153670Y-97155
X154305Y-90170
X154305Y-93980
X155575Y-86360
X155950Y-91398
X156210Y-87630
X157480Y-85090
X159385Y-108585
X160020Y-53975
X161175Y-107200
X161290Y-80650
X163195Y-111760
X166001Y-86626
X167005Y-95250
X168275Y-91440
X169545Y-85090
X172625Y-136525
X173355Y-82550
X174625Y-106045
X176585Y-108025
X177410Y-102480
X177800Y-73025
X179070Y-83185
X179070Y-88900
X183515Y-53340
X185420Y-92710
X186055Y-139700
X187325Y-139700
X189230Y-108585
X190500Y-97790
X190760Y-96520
X193675Y-85725
X196650Y-52700
X197485Y-68580
X198755Y-95250
X201295Y-103505
X201550Y-95400
X201985Y-87575
X202950Y-107950
X202952Y-88899
X203402Y-94356
X203852Y-99247
X205052Y-93980
X205105Y-103505
X205434Y-117545
X210185Y-90170
X210185Y-111760
T2
X140208Y-129286
X141478Y-131826
X142748Y-129286
X144018Y-131826
X145288Y-129286
X146558Y-131826
X155702Y-129286
X156972Y-131826
X158242Y-129286
X159512Y-131826
X160782Y-129286
X162052Y-131826
X183642Y-129286
X184912Y-131826
X186182Y-129286
X187452Y-131826
X188722Y-129286
X189992Y-131826
X199386Y-129286
X200656Y-131826
X201926Y-129286
X203196Y-131826
X204466Y-129286
X205736Y-131826
T3
X73025Y-101600
X73025Y-106600
X76835Y-99060
X76835Y-109220
X88900Y-91440
X88940Y-107950
X90170Y-81915
X90170Y-86915
X90170Y-97155
X90170Y-102055
X91400Y-91440
X91440Y-107950
X95250Y-70485
X95250Y-73025
X95250Y-75565
X95250Y-78105
X95250Y-80645
X95250Y-83185
X95250Y-85725
X95250Y-88265
X95250Y-90805
X95250Y-93345
X95250Y-95885
X95250Y-98425
X95250Y-100965
X95250Y-103505
X95250Y-106045
X95250Y-108585
X95250Y-111125
X95250Y-113665
X95250Y-116205
X95250Y-118745
X100410Y-66040
X105410Y-66040
X110490Y-70485
X110490Y-73025
X110490Y-75565
X110490Y-78105
X110490Y-80645
X110490Y-83185
X110490Y-85725
X110490Y-88265
X110490Y-90805
X110490Y-93345
X110490Y-95885
X110490Y-98425
X110490Y-100965
X110490Y-103505
X110490Y-106045
X110490Y-108585
X110490Y-111125
X110490Y-113665
X110490Y-116205
X110490Y-118745
X115570Y-86995
X115570Y-89535
X115570Y-92075
X115570Y-94615
X115570Y-99060
X115570Y-101600
X115570Y-104140
X115570Y-106680
X115570Y-111125
X115570Y-113665
X115570Y-116205
X115570Y-118745
X116285Y-81280
X121285Y-81280
X123190Y-86995
X123190Y-89535
X123190Y-92075
X123190Y-94615
X123190Y-99060
X123190Y-101600
X123190Y-104140
X123190Y-106680
X123190Y-111125
X123190Y-113665
X123190Y-116205
X123190Y-118745
X135890Y-110490
X135890Y-113665
X135890Y-117475
X135890Y-120650
X138430Y-83820
X138430Y-86360
X138430Y-88900
X138430Y-91440
X138430Y-93980
X138430Y-96520
X138430Y-99060
X139065Y-106045
X139700Y-73025
X144700Y-73025
X145415Y-64770
X145415Y-67945
X146050Y-83820
X146050Y-86360
X146050Y-88900
X146050Y-91440
X146050Y-93980
X146050Y-96520
X146050Y-99060
X146050Y-110490
X146050Y-113665
X146050Y-117475
X146050Y-120650
X149225Y-106045
X149225Y-110490
X149225Y-113665
X149225Y-121285
X150495Y-60325
X150575Y-50800
X150575Y-55880
X151130Y-83820
X151130Y-86360
X151130Y-88900
X151130Y-91440
X151130Y-93980
X151130Y-96520
X151130Y-99060
X151130Y-101600
X151845Y-117475
X152400Y-106045
X155495Y-60325
X155575Y-50800
X155575Y-55880
X155575Y-64770
X155575Y-67945
X156845Y-117475
X157400Y-106045
X158750Y-83820
X158750Y-86360
X158750Y-88900
X158750Y-91440
X158750Y-93980
X158750Y-96520
X158750Y-99060
X158750Y-101600
X159385Y-110490
X159385Y-113665
X159385Y-121285
X161925Y-110490
X161925Y-113665
X161925Y-121285
X163195Y-83820
X163195Y-86360
X163195Y-88900
X163195Y-91440
X163195Y-93980
X163195Y-96520
X163195Y-99060
X163195Y-101600
X164545Y-106045
X164545Y-117475
X168275Y-137160
X168275Y-140970
X168815Y-131445
X169545Y-106045
X169545Y-117475
X170815Y-83820
X170815Y-86360
X170815Y-88900
X170815Y-91440
X170815Y-93980
X170815Y-96520
X170815Y-99060
X170815Y-101600
X170815Y-131445
X172085Y-110490
X172085Y-113665
X172085Y-121285
X174625Y-86360
X174625Y-96520
X174625Y-99695
X174625Y-102870
X174625Y-110490
X174625Y-120650
X174625Y-123825
X175165Y-131445
X175895Y-89535
X175895Y-113665
X177165Y-92710
X177165Y-131445
X177245Y-116840
X178435Y-137160
X178435Y-140970
X182165Y-92710
X182245Y-116840
X182960Y-50880
X182960Y-55880
X183515Y-89535
X183515Y-113665
X184785Y-86360
X184785Y-96520
X184785Y-99695
X184785Y-102870
X184785Y-110490
X184785Y-120650
X184785Y-123825
X187960Y-50880
X187960Y-55880
X187960Y-86360
X187960Y-88900
X187960Y-91440
X187960Y-93980
X187960Y-96520
X187960Y-99060
X187960Y-101600
X187960Y-110490
X187960Y-113030
X187960Y-115570
X187960Y-118110
X187960Y-120650
X187960Y-123190
X187960Y-125730
X189310Y-106045
X194310Y-106045
X195580Y-86360
X195580Y-88900
X195580Y-91440
X195580Y-93980
X195580Y-96520
X195580Y-99060
X195580Y-101600
X195580Y-110490
X195580Y-113030
X195580Y-115570
X195580Y-118110
X195580Y-120650
X195580Y-123190
X195580Y-125730
X200152Y-86360
X200152Y-88900
X200152Y-91440
X200152Y-93980
X200152Y-96520
X200152Y-99060
X200152Y-101600
X200152Y-110490
X200152Y-113030
X200152Y-115570
X200152Y-118110
X200152Y-120650
X200152Y-123190
X200152Y-125730
X201375Y-106045
X206375Y-106045
X207772Y-86360
X207772Y-88900
X207772Y-91440
X207772Y-93980
X207772Y-96520
X207772Y-99060
X207772Y-101600
X207772Y-110490
X207772Y-113030
X207772Y-115570
X207772Y-118110
X207772Y-120650
X207772Y-123190
X207772Y-125730
X212090Y-96520
X212090Y-106680
X212170Y-59055
X212170Y-74930
X212170Y-92710
X215265Y-96520
X215265Y-106680
X217170Y-59055
X217170Y-74930
X217170Y-92710
T4
X149860Y-74295
X149860Y-76835
X154940Y-74295
X154940Y-76835
X220980Y-74295
X220980Y-76835
X220980Y-92075
X220980Y-94615
T5
X74295Y-80645
X74295Y-83185
X74295Y-85725
X74295Y-88265
X74295Y-90805
X76835Y-80645
X76835Y-83185
X76835Y-85725
X76835Y-88265
X76835Y-90805
X81915Y-70485
X81915Y-73025
X81915Y-75565
X81915Y-78105
X81915Y-80645
X81915Y-83185
X81915Y-85725
X81915Y-88265
X81915Y-90805
X81915Y-93345
X81915Y-95885
X81915Y-98425
X81915Y-100965
X81915Y-103505
X81915Y-106045
X81915Y-108585
X81915Y-111125
X81915Y-113665
X81915Y-116205
X81915Y-118745
X81915Y-121285
X81915Y-123825
X81915Y-126365
X84455Y-70485
X84455Y-73025
X84455Y-75565
X84455Y-78105
X84455Y-80645
X84455Y-83185
X84455Y-85725
X84455Y-88265
X84455Y-90805
X84455Y-93345
X84455Y-95885
X84455Y-98425
X84455Y-100965
X84455Y-103505
X84455Y-106045
X84455Y-108585
X84455Y-111125
X84455Y-113665
X84455Y-116205
X84455Y-118745
X84455Y-121285
X84455Y-123825
X84455Y-126365
X127635Y-90805
X127635Y-93345
X127635Y-95885
X127635Y-98425
X127635Y-100965
X127635Y-103505
X130175Y-70485
X130175Y-73025
X130175Y-75565
X130175Y-78105
X130175Y-80645
X130175Y-83185
X130175Y-85725
X130175Y-88265
X130175Y-90805
X130175Y-93345
X130175Y-95885
X130175Y-98425
X130175Y-100965
X130175Y-103505
X130175Y-106045
X130175Y-108585
X130175Y-111125
X130175Y-113665
X130175Y-116205
X130175Y-118745
X130175Y-121285
X130175Y-123825
X130175Y-126365
X132715Y-70485
X132715Y-73025
X132715Y-75565
X132715Y-78105
X132715Y-80645
X132715Y-83185
X132715Y-85725
X132715Y-88265
X132715Y-90805
X132715Y-93345
X132715Y-95885
X132715Y-98425
X132715Y-100965
X132715Y-103505
X132715Y-106045
X132715Y-108585
X132715Y-111125
X132715Y-113665
X132715Y-116205
X132715Y-118745
X132715Y-121285
X132715Y-123825
X132715Y-126365
X149860Y-125095
X152400Y-125095
X160800Y-55880
X162500Y-50800
X164200Y-55880
X165900Y-50800
X167600Y-55880
X168910Y-125095
X169300Y-50800
X171000Y-55880
X171450Y-125095
X172700Y-50800
X174400Y-55880
X176100Y-50800
X177800Y-55880
X193430Y-55880
X195130Y-50800
X196830Y-55880
X198530Y-50800
X200230Y-55880
X201930Y-50800
X203630Y-55880
X205330Y-50800
X207030Y-55880
X208730Y-50800
X210430Y-55880
T6
X71605Y-112340
X71605Y-116840
X71605Y-120595
X71605Y-125095
X71605Y-128905
X71605Y-133405
X78105Y-112340
X78105Y-116840
X78105Y-120595
X78105Y-125095
X78105Y-128905
X78105Y-133405
T7
X161290Y-62230
X161290Y-68580
X161290Y-74930
X181610Y-62230
X181610Y-68580
X181610Y-74930
X187960Y-62230
X187960Y-68580
X187960Y-74930
X208280Y-62230
X208280Y-68580
X208280Y-74930
T8
X215900Y-64770
X215900Y-69770
X215900Y-82550
X215900Y-87550
X215900Y-113016
X215900Y-118016
X215900Y-123016
X215900Y-128016
X215900Y-133016
T9
X83185Y-131445
X86487Y-65405
X128524Y-65405
X131440Y-131445
T10
X138303Y-138176
X148463Y-138176
X153797Y-138176
X163957Y-138176
X181737Y-138176
X191897Y-138176
X197481Y-138176
X207641Y-138176
T11
X97155Y-127000
X114300Y-127000
T12
X70880Y-51600
X70880Y-140500
X223740Y-51600
X223740Y-140500
T0
M30
